<?xml version="1.0" encoding="UTF-8" standalone="no"?>
<!DOCTYPE svg PUBLIC "-//W3C//DTD SVG 1.1//EN" "http://www.w3.org/Graphics/SVG/1.1/DTD/svg11.dtd">
<svg width="100%" height="100%" viewBox="0 0 1000 1000" version="1.1" xmlns="http://www.w3.org/2000/svg" xmlns:xlink="http://www.w3.org/1999/xlink" xml:space="preserve" xmlns:serif="http://www.serif.com/" style="fill-rule:evenodd;clip-rule:evenodd;stroke-linejoin:round;stroke-miterlimit:2;">
    <g id="path28" transform="matrix(7.22388,0,0,7.22388,8.48095e-09,385.757)">
        <path d="M41.994,11.361L43.622,11.361L42.775,9.194L41.994,11.361ZM40.301,13.462L42.71,7.749L43.361,7.749L45.771,13.462L44.533,13.462L44.012,12.017L41.864,12.017L41.278,13.462L40.301,13.462ZM45.966,13.199L45.901,12.149C46.422,12.608 47.008,12.871 47.594,12.871C47.919,12.871 48.18,12.805 48.375,12.674C48.701,12.411 48.701,11.952 48.44,11.689C48.245,11.426 47.854,11.295 47.008,10.901C46.226,10.507 45.836,9.982 45.836,9.259C45.836,8.8 46.031,8.406 46.357,8.077C47.073,7.421 48.31,7.683 48.44,7.683C48.701,7.749 48.896,7.815 49.092,7.88L49.157,8.865C48.896,8.668 48.636,8.537 48.44,8.471C47.659,8.209 46.812,8.406 46.812,9.062C46.812,9.391 47.008,9.588 47.464,9.85C48.44,10.376 48.961,10.573 49.287,11.032C49.743,11.558 49.743,12.674 49.026,13.2C48.636,13.462 48.18,13.659 47.529,13.659C46.812,13.594 46.226,13.331 45.966,13.2ZM51.371,13.462L51.371,8.406C50.915,8.406 50.394,8.471 49.678,8.537L49.743,7.683L54.105,7.683L54.171,8.537C53.259,8.406 52.738,8.406 52.478,8.406L52.478,13.397L51.371,13.397L51.371,13.462ZM57.036,12.871C57.947,12.871 58.729,12.149 58.729,10.573C58.729,10.441 58.729,9.194 57.947,8.537C57.687,8.34 57.426,8.274 57.036,8.274C55.864,8.274 55.343,9.391 55.343,10.573C55.408,12.149 56.189,12.871 57.036,12.871ZM57.036,13.594C55.343,13.594 54.171,12.346 54.171,10.638C54.171,8.865 55.343,7.683 57.036,7.683C58.729,7.683 59.901,8.865 59.901,10.638C59.901,12.346 58.729,13.594 57.036,13.594ZM60.812,13.462L60.812,7.749L61.399,7.749L64.785,11.623L64.785,7.749L65.566,7.749L65.566,13.462L64.98,13.462L61.594,9.588L61.594,13.462L60.812,13.462ZM68.626,13.462L69.278,7.749L69.864,7.749L71.882,11.755L73.836,7.749L74.422,7.749L75.073,13.462L73.901,13.462L73.575,9.916L72.013,13.2L71.492,13.2L69.864,9.916L69.538,13.397L68.626,13.397L68.626,13.462ZM77.157,11.361L78.785,11.361L77.938,9.194L77.157,11.361ZM75.464,13.462L77.873,7.749L78.524,7.749L80.933,13.462L79.696,13.462L79.175,12.017L77.026,12.017L76.44,13.462L75.464,13.462ZM82.431,10.31C82.561,10.31 82.757,10.376 82.887,10.376C83.799,10.376 84.059,9.85 84.059,9.391C84.059,8.668 83.538,8.406 82.887,8.406L82.496,8.406L82.496,10.31L82.431,10.31ZM81.389,13.528L81.389,7.815C81.715,7.749 82.106,7.749 82.692,7.749C83.213,7.749 83.668,7.815 83.994,7.946C84.515,8.143 85.166,8.537 85.166,9.391C85.166,9.719 85.036,10.047 84.84,10.376C84.645,10.638 84.32,10.835 83.929,10.967L85.947,13.528L84.645,13.528L82.887,11.098L82.496,11.098L82.496,13.528L81.389,13.528ZM87.25,13.462L87.25,8.406C86.794,8.406 86.273,8.471 85.557,8.537L85.622,7.683L89.985,7.683L90.05,8.537C89.138,8.406 88.617,8.406 88.357,8.406L88.357,13.397L87.25,13.397L87.25,13.462ZM90.766,7.749L91.873,7.749L91.873,13.462L90.766,13.462L90.766,7.749ZM92.98,13.462L92.98,7.749L93.566,7.749L96.952,11.623L96.952,7.749L97.734,7.749L97.734,13.462L97.147,13.462L93.761,9.588L93.761,13.462L92.98,13.462Z" style="fill-rule:nonzero;"/>
    </g>
    <g id="path30" transform="matrix(7.22388,0,0,7.22388,8.48095e-09,385.757)">
        <path d="M138.173,1.051C137.783,0.394 137.066,0 136.22,0L80.415,0C79.503,0 78.071,0 76.573,1.51C76.117,1.97 75.792,2.495 75.596,2.889C75.14,3.743 74.815,4.334 73.252,4.334L65.113,4.334C63.615,4.334 63.224,3.743 62.768,2.889C62.508,2.43 62.247,1.97 61.792,1.51C60.294,0 58.861,0 57.95,0L2.21,0C1.298,0 0.582,0.394 0.257,1.051C-0.134,1.707 -0.069,2.561 0.387,3.283L1.364,4.991C1.884,5.91 2.601,6.041 3.122,6.173C3.577,6.238 3.903,6.304 4.229,6.961L5.14,8.537C5.857,9.85 6.638,9.981 7.224,10.113C7.68,10.178 8.136,10.244 8.722,11.295C9.308,12.345 10.154,13.921 12.303,14.578C12.498,14.644 33.075,20.685 33.14,20.685C35.289,21.408 35.875,22.196 36.526,23.181C36.917,23.772 38.024,25.348 40.629,26.07L60.424,31.455C62.573,32.046 63.875,30.995 64.526,30.404L68.108,26.989C68.629,26.53 68.889,26.333 69.215,26.333C69.54,26.333 69.801,26.53 70.322,26.989L73.903,30.404C74.554,30.929 75.857,31.98 78.006,31.455L97.801,26.07C100.471,25.348 101.513,23.772 101.903,23.181C102.555,22.196 103.141,21.342 105.289,20.685C105.289,20.685 125.866,14.644 126.127,14.578C128.21,13.921 129.122,12.345 129.708,11.295C130.294,10.244 130.685,10.178 131.141,10.113C131.727,9.981 132.573,9.85 133.289,8.537L134.201,6.961C134.592,6.304 134.852,6.238 135.308,6.173C135.829,6.041 136.545,5.91 137.066,4.991L138.043,3.283C138.499,2.495 138.564,1.707 138.173,1.051ZM100.08,5.647L100.08,15.498L38.35,15.498L38.35,5.647L100.08,5.647ZM77.94,30.01C76.443,30.01 75.922,28.697 75.531,27.646C75.075,26.464 72.666,18.715 71.95,16.614L75.01,16.614C76.638,19.437 79.633,24.428 80.936,26.53C81.196,26.923 81.847,28.04 83.02,28.762C78.331,30.01 78.461,30.01 77.94,30.01ZM85.168,28.04C83.475,28.04 82.564,26.726 82.043,25.873C80.936,24.1 78.396,19.832 76.508,16.614L79.894,16.614C82.043,18.912 86.536,23.706 88.294,25.545C88.554,25.807 89.14,26.398 89.987,26.924C85.82,27.974 85.82,28.04 85.168,28.04ZM92.071,26.136C90.768,26.136 89.792,25.216 89.14,24.56C87.578,22.984 83.866,19.044 81.587,16.548L85.299,16.548C87.643,18.321 93.047,22.327 95.196,23.771C95.587,24.034 96.368,24.494 97.28,24.822C92.461,26.135 92.592,26.135 92.071,26.135ZM100.796,22.458C100.21,23.378 99.754,23.837 98.713,23.837C97.736,23.837 96.759,23.378 95.913,22.787C94.154,21.539 90.052,18.584 87.447,16.614L91.875,16.614C97.28,19.306 99.559,20.554 101.057,21.014C101.317,21.079 101.578,21.145 101.838,21.211C101.382,21.539 101.122,21.999 100.796,22.458ZM102.424,19.897C101.187,19.897 99.559,19.044 94.61,16.548L99.429,16.548L106.201,18.256C106.657,18.387 107.113,18.453 107.503,18.584C103.662,19.766 103.075,19.897 102.424,19.897ZM115.578,16.22C111.606,17.402 110.955,17.665 109.848,17.665C109.066,17.665 108.089,17.533 106.462,17.074L101.122,15.695L101.122,13.79L115.578,16.22ZM119.745,15.038C118.443,15.366 117.271,15.235 115.448,14.907L101.252,12.542L101.252,11.032L124.499,13.659L119.745,15.038ZM128.471,10.638C128.276,10.966 128.08,11.295 127.885,11.557C127.103,12.674 126.583,12.608 124.108,12.345L101.122,9.719L101.122,8.274L127.624,9.85C127.82,9.85 128.341,9.916 128.927,9.916C128.796,10.113 128.601,10.375 128.471,10.638L128.471,10.638ZM132.964,6.238C132.964,6.238 132.443,7.092 132.248,7.552C131.466,8.799 131.076,8.799 128.862,8.602L101.187,6.961L101.187,5.779L133.289,5.779C133.159,5.976 133.094,6.107 132.964,6.238ZM136.936,2.561L136.22,3.809C135.699,4.597 135.503,4.597 133.81,4.597L76.182,4.597C76.768,3.874 76.964,3.152 77.615,2.495C78.722,1.379 79.633,1.379 80.48,1.379L136.285,1.379C136.676,1.379 136.936,1.51 137.066,1.707C137.131,1.904 137.131,2.233 136.936,2.561ZM63.354,29.682C63.615,29.353 63.81,28.894 64.136,28.106C64.592,26.924 67.131,18.847 67.847,16.614L70.647,16.614C71.364,18.912 73.903,26.923 74.359,28.106C74.62,28.894 74.88,29.353 75.14,29.682C75.075,29.616 74.945,29.55 74.88,29.485L71.299,26.07C70.713,25.544 70.126,25.019 69.28,25.019C68.433,25.019 67.782,25.545 67.261,26.07L63.68,29.485C63.55,29.55 63.42,29.616 63.354,29.682ZM55.41,28.697C56.582,27.974 57.299,26.858 57.494,26.464C58.796,24.428 61.792,19.372 63.42,16.548L66.48,16.548C65.829,18.649 63.354,26.398 62.899,27.58C62.508,28.631 61.987,29.944 60.489,29.944C59.968,30.01 60.099,30.01 55.41,28.697ZM48.508,26.858C49.354,26.398 49.94,25.807 50.201,25.479C51.959,23.706 56.517,18.847 58.601,16.548L61.987,16.548C60.099,19.766 57.559,24.034 56.452,25.807C55.931,26.661 55.019,27.974 53.326,27.974C52.675,28.04 52.61,27.974 48.508,26.858ZM41.215,24.822C42.126,24.56 42.908,24.034 43.299,23.772C45.447,22.327 50.852,18.321 53.196,16.548L56.908,16.548C54.629,19.044 50.917,22.984 49.354,24.56C48.703,25.216 47.792,26.136 46.424,26.136C45.903,26.136 45.968,26.136 41.215,24.822ZM36.657,21.145C36.917,21.079 37.178,21.079 37.438,20.948C39.001,20.488 41.28,19.306 46.619,16.548L51.047,16.548C48.378,18.518 44.34,21.473 42.582,22.721C41.801,23.312 40.759,23.772 39.782,23.772C38.74,23.772 38.285,23.312 37.699,22.393C37.373,21.999 37.047,21.539 36.657,21.145ZM30.992,18.65C31.382,18.584 31.838,18.453 32.294,18.321L39.066,16.614L43.885,16.614C38.936,19.109 37.308,19.963 36.071,19.963C35.354,19.897 34.768,19.766 30.992,18.65ZM37.308,13.79L37.308,15.695L31.968,17.074C30.34,17.468 29.364,17.665 28.582,17.665C27.475,17.665 26.824,17.402 22.852,16.22L37.308,13.79ZM14.061,13.659L37.308,11.032L37.308,12.542L23.112,14.907C21.224,15.235 20.052,15.366 18.815,15.038L14.061,13.659ZM9.503,9.916C10.024,9.85 10.61,9.85 10.805,9.85L37.308,8.274L37.308,9.719L14.322,12.345C11.847,12.608 11.326,12.674 10.545,11.557C10.35,11.295 10.154,10.966 9.959,10.638C9.829,10.375 9.698,10.113 9.503,9.916L9.503,9.916ZM5.205,5.844L37.308,5.844L37.308,7.026L9.633,8.668C7.419,8.799 7.029,8.865 6.247,7.617C5.987,7.158 5.531,6.304 5.531,6.304C5.401,6.107 5.271,5.976 5.205,5.844ZM1.429,1.707C1.559,1.51 1.819,1.379 2.21,1.379L58.015,1.379C58.861,1.379 59.838,1.379 60.88,2.495C61.531,3.152 61.726,3.874 62.313,4.597L4.684,4.597C2.991,4.597 2.796,4.597 2.275,3.809L1.559,2.561C1.364,2.233 1.298,1.904 1.429,1.707Z" style="fill-rule:nonzero;"/>
    </g>
</svg>
