<?xml version="1.0" encoding="UTF-8" standalone="no"?>
<!DOCTYPE svg PUBLIC "-//W3C//DTD SVG 1.1//EN" "http://www.w3.org/Graphics/SVG/1.1/DTD/svg11.dtd">
<svg width="100%" height="100%" viewBox="0 0 1000 1000" version="1.1" xmlns="http://www.w3.org/2000/svg" xmlns:xlink="http://www.w3.org/1999/xlink" xml:space="preserve" xmlns:serif="http://www.serif.com/" style="fill-rule:evenodd;clip-rule:evenodd;stroke-linejoin:round;stroke-miterlimit:2;">
    <g transform="matrix(3.68244,0,0,3.68244,113.342,-15.5399)">
        <path id="Black" d="M104.996,28.517C42.52,28.517 5.24,50.611 5.24,50.611L6,100.922C6,124.017 13.545,222.281 104.995,275.779C196.495,222.281 203.994,124.049 203.994,100.917L204.75,50.61C204.75,50.611 167.498,28.517 104.996,28.517" style="fill:rgb(35,31,32);fill-rule:nonzero;"/>
        <path id="Yellow" d="M200.998,54.222C200.998,54.222 168.5,33.517 104.996,33.517C41.5,33.517 8.999,54.222 8.999,54.222L9.996,100.918C9.996,119.214 13.498,217.223 104.996,270.412C196.496,217.232 199.993,119.219 199.993,100.918L200.998,54.222" style="fill:rgb(255,242,0);fill-rule:nonzero;"/>
        <path id="Red" d="M205.002,34.218L104.996,17.22L4.999,34.218L5.249,50.998C5.249,50.998 55.501,29.186 104.996,29.191C154.495,29.191 204.746,50.998 204.746,50.998L205.002,34.218" style="fill:rgb(237,28,36);fill-rule:nonzero;"/>
        <path id="Green" d="M4.999,29.219L4.999,23.222L105.004,4.22L205.002,23.222L205.002,29.223L104.996,10.722L4.999,29.219" style="fill:rgb(0,154,78);fill-rule:nonzero;"/>
        <path id="Horse" d="M102.744,41.263C102.744,41.263 102.637,42.346 102.38,42.979C102.148,43.558 101.512,43.958 101.556,44.345C101.597,44.737 102.014,45.192 102.642,45.52C103.27,45.843 103.523,46.094 104.159,46.258C104.751,46.399 105.5,46.841 105.721,46.34C105.936,45.843 105.61,45.219 105.245,44.628C104.619,43.604 104.307,43.357 103.38,41.937C103.183,41.636 103.024,41.303 102.744,41.263M98.058,152.422C98.117,152.244 99.606,153.173 100.371,153.629C101.988,154.594 102.721,155.168 104.153,156.251C105.276,157.104 105.826,157.549 106.969,158.537C108.367,159.738 109.119,160.764 109.496,160.521C110.033,159.867 108.603,157.962 107.336,156.924C106.102,155.917 104.829,155.088 103.839,154.429C102.575,153.601 102.464,153.4 100.567,152.129C98.534,150.767 96.776,149.06 96.776,149.06L94.793,147.498L91.692,144.879L88.252,141.701L85.645,138.805C85.645,138.805 83.621,136.328 83.3,135.859C82.979,135.381 82.028,133.851 81.235,132.553C80.529,131.392 79.168,129.584 79.038,129.429C78.305,128.536 76.622,128.896 74.674,127.744C72.297,126.346 71.728,125.071 71.728,125.071C71.728,125.071 71.635,124.88 71.551,124.779C71.462,124.67 71.28,124.55 71.28,124.55L70.044,123.675L69.331,123.206C69.331,123.206 68.785,122.76 68.104,122.468C67.428,122.172 65.909,121.289 65.909,121.289L63.195,119.559C63.195,119.559 62.132,118.703 61.777,118.421C61.424,118.143 60.753,117.761 60.753,117.761C60.753,117.761 60.327,117.542 60.197,117.538C60.068,117.529 59.508,117.474 59.508,117.474C59.508,117.474 58.987,117.342 58.454,117.966C57.919,118.59 58.044,118.258 58.912,121.778C59.251,123.176 59.219,128.075 59.588,129.56C60.064,131.481 61.4,133.958 61.537,134.25C61.676,134.537 61.769,135.612 61.769,135.612C61.769,135.612 61.714,136.477 61.808,137.023C62.218,139.55 65.92,137.888 66.735,141.357C67.543,144.783 66.255,148.202 66.255,148.202C66.255,148.202 65.454,149.896 64.336,150.17C63.211,150.434 61.472,147.952 60.212,145.936C58.971,143.959 57.951,141.365 57.626,140.54C57.298,139.72 57.13,139.538 56.754,138.933C56.198,138.05 55.745,138.204 55.126,136.807C54.504,135.4 55.055,134.835 54.771,133.61C54.614,132.932 54.464,132.859 54.254,131.889C54.045,130.919 53.769,127.85 53.769,127.85L53.377,124.981C53.377,124.981 53.236,123.674 53.061,122.859C52.43,119.995 52.221,117.226 52.221,117.226L52.105,116.092L52.057,114.917C52.057,114.917 52.021,114.348 52.16,113.77C52.301,113.187 52.586,112.705 52.586,112.705C52.586,112.705 53.16,111.735 53.258,111.498C53.356,111.266 54.54,109.895 54.54,109.895C54.54,109.895 55.15,109.39 56.161,108.761C57.169,108.142 58.082,108.192 58.082,108.192C58.082,108.192 58.344,108.16 60.133,108.383C61.929,108.611 65.613,109.585 66.535,109.831C67.455,110.073 68.545,110.459 69.263,110.851C71.31,111.967 71.931,111.493 70.299,110.223C69.204,109.363 68.897,108.98 68.013,108.17C67.268,107.491 66.681,107.031 66.126,106.399C65.575,105.761 63.981,103.417 63.981,103.417L62.993,101.951C62.993,101.951 62.455,101.359 62.371,101.313C62.289,101.268 62.018,101.058 62.018,101.058C62.018,101.058 61.365,101.095 60.684,100.958C60.003,100.831 59.682,101.782 59.682,101.782C59.682,101.782 58.209,104.532 56.711,106.217C54.291,108.949 52.551,110.811 51.657,112.259C50.407,114.276 50.678,116.485 50.033,117.505C49.658,118.106 49.455,118.193 49.25,118.716C48.622,120.3 50.905,121.17 50.384,122.928C49.553,125.715 43.021,128.474 42.154,128.01C41.259,127.536 41.992,123.771 42.295,122.546C42.603,121.321 43.516,119.523 43.6,119.427C43.684,119.336 43.903,118.913 43.974,118.553C44.044,118.189 44.067,117.378 44.113,116.918C44.156,116.467 44.339,115.748 44.339,115.748C44.339,115.748 44.371,115.602 44.944,114.341C45.523,113.084 47.649,110.156 49.179,107.361C50.172,105.535 50.595,104.428 51.597,102.611C52.526,100.926 54.106,98.372 54.106,98.372C54.106,98.372 54.778,97.065 55.094,96.578C55.413,96.081 56.08,95.135 56.703,94.21C57.334,93.286 57.491,92.589 58.317,91.828C59.003,91.195 59.463,90.858 60.355,90.567C61.683,90.13 62.593,90.371 63.941,90.745C65.353,91.132 66.318,91.774 67.235,92.539C68.151,93.304 68.836,94.156 68.836,94.156L69.28,94.812L69.553,94.976L70.411,95.522L72.365,96.82C72.365,96.82 77,99.971 77.253,100.139C77.503,100.303 78.33,100.986 78.501,101.045C78.669,101.091 79.906,99.756 82.326,98.081C85.129,96.142 86.126,96.291 87.043,95.786C87.963,95.281 88.345,94.857 89.063,94.138C90.149,93.045 90.154,92.471 91.39,90.951C92.631,89.43 93.796,88.583 93.796,88.583C93.796,88.583 93.964,88.415 96.177,85.919C98.392,83.419 99.367,81.529 99.367,81.529L100.585,79.102C100.585,79.102 102.343,75.327 102.907,73.833C103.47,72.335 103.47,71.83 103.47,71.83C103.47,71.83 103.554,71.443 103.122,70.683C102.687,69.922 102.236,70.268 101.401,70.441C99.784,70.783 98.808,70.364 97.182,70.082C95.688,69.827 94.91,69.39 93.418,69.135C91.906,68.88 91.021,68.639 89.506,68.784C89.272,68.807 88.807,68.898 88.582,68.975C87.733,69.262 87.492,69.326 86.856,69.69C86.121,70.041 85.636,70.154 84.818,70.172C84.255,70.181 83.909,70.199 83.388,69.995C83.028,69.858 82.828,69.753 82.538,69.498C82.365,69.339 82.276,69.239 82.142,69.042C82.128,68.878 82.076,68.887 82.231,68.632C82.379,68.368 82.575,68.322 82.575,68.322L83.272,68.149C83.272,68.149 84.251,67.889 84.333,67.871C84.422,67.848 85.355,67.543 85.765,67.415C86.182,67.283 86.633,67.046 86.633,67.046C86.633,67.046 86.89,66.65 86.788,66.413C86.672,66.153 86.117,66.135 86.117,66.135C86.117,66.135 85.334,66.413 85.245,66.431C85.161,66.458 83.924,66.85 83.924,66.85C83.924,66.85 82.945,67.064 82.189,67.242C81.431,67.415 80.343,67.501 80.343,67.501L80.017,67.415C80.017,67.415 79.639,67.165 79.584,66.915C79.532,66.683 79.495,66.505 79.452,66.246C79.295,65.285 79.103,64.698 79.322,63.75C79.415,63.354 79.509,63.14 79.682,62.767C79.825,62.453 79.919,62.28 80.105,61.988L80.71,61.014L81.839,59.343C82.226,58.947 82.481,58.751 82.966,58.487C83.69,58.082 84.109,57.964 85.004,57.863C85.892,57.772 86.008,57.781 87.263,57.499C88.522,57.217 89.412,56.716 89.412,56.716C89.412,56.716 92.415,55.614 94.248,54.713C96.163,53.775 97.007,52.764 98.997,51.985C99.837,51.657 100.322,51.507 101.19,51.288C101.301,51.215 101.354,51.147 101.386,51.024C101.475,50.706 100.981,50.555 100.648,50.592C100.354,50.619 99.669,50.933 99.512,50.596C99.389,50.327 100.14,50.173 100.14,50.173C100.14,50.173 100.491,50.009 100.495,49.809C100.508,49.513 99.987,49.704 99.757,49.681C98.596,49.554 98.503,49.34 97.696,49.139C96.74,48.902 96.223,48.611 95.244,48.574C94.368,48.533 93.55,48.724 93.011,48.856C92.465,48.988 92.447,48.456 92.66,48.356C94.19,47.641 94.222,47.577 95.299,47.532C95.891,47.509 96.717,47.641 96.806,47.682C96.895,47.728 98.074,47.669 98.382,47.364C98.685,47.063 97.407,47.077 96.806,46.84C96.255,46.617 95.406,46.558 95.426,46.189C95.449,45.82 95.863,46.021 96.153,45.952C96.517,45.866 96.736,45.87 97.109,45.815C97.785,45.724 97.847,45.669 98.848,45.578C99.846,45.492 101.278,45.906 101.278,45.906C101.278,45.906 102.774,46.575 103.511,46.921C104.248,47.272 105.139,47.445 105.139,47.445C105.139,47.445 106.176,47.6 106.98,47.094C107.788,46.593 107.334,46.274 107.044,45.819C106.769,45.386 106.419,44.777 106.937,43.602C107.394,42.578 107.626,41.394 107.763,41.284C107.915,41.152 108.56,42.063 108.964,42.445C110.427,43.811 112.376,44.494 114.2,47.363C114.343,47.595 115.034,47.226 117.157,47.55C119.282,47.878 121.128,50.154 121.604,50.696C122.083,51.238 122.71,51.219 122.71,51.219L123.731,51.351L127.438,51.414C127.438,51.414 129.122,51.118 130.091,51.482C130.77,51.732 133.029,53.244 131.999,53.823C131.277,54.223 130.598,53.34 129.95,53.295C129.179,53.245 128.839,53.386 128.154,53.559C126.716,53.923 123.63,54.857 124.749,55.235C124.841,55.262 124.986,55.294 124.986,55.294L125.55,55.385C125.55,55.385 126.905,55.695 127.716,56.018C128.96,56.51 129.534,57.051 130.691,57.721C131.333,58.099 131.626,58.477 132.335,58.686C132.991,58.877 133.405,58.682 134.075,58.8C134.954,58.955 135.45,59.128 136.251,59.515C137.438,60.093 137.882,60.785 138.956,61.555C139.484,61.942 139.932,62.006 140.331,62.525C140.423,62.643 140.505,62.698 140.542,62.839C140.688,63.317 139.76,63.035 139.268,62.958C138.725,62.867 138.489,62.598 137.993,62.366C137.255,62.025 136.899,61.633 136.089,61.483C135.497,61.374 135.151,61.465 134.55,61.492C133.972,61.519 133.654,61.61 133.075,61.619C132.077,61.633 131.509,61.541 130.534,61.341C129.442,61.113 128.905,60.681 127.802,60.458C126.583,60.203 124.396,59.151 124.614,60.198C124.719,60.708 125.88,61.132 125.88,61.132C125.88,61.132 126.659,61.565 127.419,61.892C128.181,62.22 128.591,62.716 128.591,62.716L129.114,63.108C129.114,63.108 129.651,63.846 130.348,64.67C131.042,65.499 132.253,65.476 132.253,65.476C132.253,65.476 132.991,65.476 134.581,65.799C136.161,66.127 137.79,67.101 137.79,67.101C137.79,67.101 139.029,67.943 139.739,68.795C140.454,69.637 140.044,70.07 139.958,70.161C139.872,70.247 139.895,70.202 139.809,70.247C139.723,70.288 138.83,69.186 138.83,69.186L138.201,68.64C138.201,68.64 137.571,68.207 136.766,67.943C135.963,67.684 135.705,67.861 135.705,67.861C135.705,67.861 133.992,68.335 132.517,68.294C131.039,68.253 130.256,67.666 130.256,67.666L129.322,67.038C129.322,67.038 127.916,65.718 127.871,66.341C127.838,66.765 128.49,67.234 128.49,67.234C128.49,67.234 128.949,67.694 129.246,67.981C129.809,68.536 130.037,68.819 130.688,69.401C131.338,69.988 131.75,69.988 131.75,69.988C131.75,69.988 132.101,70.07 132.231,70.093C132.358,70.115 132.596,70.184 132.596,70.184C132.596,70.184 132.815,70.266 133.834,70.681C134.854,71.095 135.941,71.983 135.941,71.983C135.941,71.983 136.045,72.074 136.197,72.092C136.351,72.114 136.656,72.26 136.742,72.288C136.83,72.31 137.09,72.31 137.676,72.392C138.26,72.483 138.045,72.852 138.045,72.852L137.936,73.002L137.459,73.325C137.459,73.325 136.83,73.503 136.393,73.521C135.959,73.543 135.354,73.307 135.354,73.307L134.031,72.807C134.031,72.807 132.707,72.461 132.427,72.415C132.14,72.374 130.948,72.137 130.757,72.092C130.56,72.046 129.95,71.828 129.8,71.746C129.646,71.655 129.345,71.591 128.634,71.245C127.915,70.894 127.628,70.485 126.739,70.202C125.852,69.92 125.309,69.861 124.635,70.334C123.489,71.126 126.374,71.254 127.819,71.969C129.936,73.011 131.132,73.786 131.643,74.915C132.149,76.049 132.664,76.463 132.664,76.463C132.664,76.463 134.151,77.214 134.83,78.002C135.194,78.425 135.254,78.781 135.612,79.209C136.436,80.166 138.022,80.12 138.342,80.935C138.643,81.695 137.057,81.354 136.229,81.276C134.735,81.13 134.378,79.769 132.987,79.213C132.204,78.903 131.698,78.899 130.893,78.63C129.436,78.148 128.751,77.514 127.286,77.059C126.403,76.79 124.792,75.616 124.983,76.517C125.032,76.74 125.155,76.904 125.223,77.036C125.286,77.168 125.657,77.641 125.657,77.641C125.657,77.641 126.157,78.297 126.376,78.465C126.591,78.643 127.542,79.358 128.89,80.095C130.238,80.832 131.404,82.244 131.404,82.244C131.404,82.244 131.804,82.818 131.997,83.223C132.195,83.669 132.06,83.806 132.359,84.434C132.667,85.062 132.816,85.181 133.208,85.563C134.191,86.519 135.221,86.328 136.486,86.847C136.823,86.979 136.849,87.038 137.222,87.43C137.587,87.822 137.154,87.995 137.154,87.995C137.154,87.995 135.758,88.346 134.855,88.273C133.679,88.177 133.163,87.822 132.013,87.257C130.867,86.693 130.255,85.673 130.146,85.604C130.038,85.54 129.759,85.235 129.542,85.08C129.323,84.934 128.77,84.811 128.264,84.67C127.764,84.533 127.462,84.511 126.96,84.37C126.27,84.174 125.55,83.869 125.227,83.764C124.899,83.655 124.149,83.518 123.61,83.842C122.518,84.484 125.292,84.925 126.161,85.841C126.602,86.315 126.78,86.642 127.2,87.125C127.518,87.499 127.649,87.763 128.046,88.059C128.319,88.26 128.808,88.469 128.808,88.469C128.808,88.469 129.476,88.779 130.452,89.316C131.435,89.858 132.583,91.379 132.583,91.379L133.275,92.44L133.693,93.05L133.798,93.332L133.948,93.678C133.948,93.678 134.448,94.329 134.817,94.543C135.186,94.761 135.122,94.957 135.122,94.957C135.122,94.957 135.077,95.089 134.817,95.24C134.557,95.395 134.423,95.262 134.057,95.153C133.682,95.049 133.452,94.698 133.126,94.438C132.798,94.174 132.441,93.523 131.843,93.154C131.319,92.84 130.63,92.726 130.366,92.635C130.105,92.549 129.456,92.139 129.195,92.03C128.935,91.921 128.261,91.615 128.261,91.615C128.261,91.615 126.95,90.878 126.24,90.682C125.52,90.486 125.975,90.928 125.975,90.928C125.975,90.928 126.625,91.93 127.242,92.335C128.043,92.868 129.168,93.336 128.805,93.765C128.559,94.052 128.221,93.947 127.852,93.902C127.251,93.838 126.524,93.114 126.524,93.114C126.524,93.114 126.223,92.918 124.878,92.486C123.53,92.048 124.025,92.791 124.331,93.178C124.637,93.57 125.053,93.788 125.053,93.788L125.956,94.198L126.376,94.33C126.376,94.33 126.739,94.394 127.96,94.676C129.171,94.958 129.846,95.541 129.846,95.541C129.846,95.541 130.497,96.156 131.405,96.825C132.325,97.494 133.231,97.672 133.727,97.74C134.227,97.799 134.206,98.15 134.206,98.15C134.206,98.15 134.274,98.473 134.251,98.582C134.228,98.691 134.118,98.778 134.015,98.778C133.9,98.778 133.859,98.819 133.728,98.887C133.601,98.951 133.077,99.037 133.077,99.037C133.077,99.037 131.712,98.992 130.65,98.737C129.585,98.473 128.657,97.739 128.564,97.69C128.482,97.649 127.48,97.107 126.81,96.888C126.132,96.67 125.073,96.761 124.966,96.802C124.857,96.847 124.487,96.911 123.855,97.084C123.228,97.257 124.011,97.494 124.011,97.494L124.466,97.544L125.55,97.626C125.55,97.626 126.655,97.758 127.613,98.109C128.563,98.45 129.174,99.147 129.801,99.776C130.43,100.405 131.127,100.818 131.127,100.818L131.623,101.141L131.887,101.337L131.951,101.51C131.951,101.51 131.931,101.601 131.887,101.706C131.842,101.82 131.692,101.902 131.692,101.902C131.692,101.902 131.451,101.861 131.34,101.861C131.231,101.861 130.526,101.483 130.002,101.251C129.445,101.005 129.168,100.787 128.586,100.646C128.08,100.523 127.414,100.473 127.27,100.514C127.117,100.555 126.008,100.71 125.158,100.774C124.315,100.842 123.567,100.852 122.567,100.729C121.131,100.556 119.233,99.427 118.992,99.745C118.496,100.396 120.016,100.592 120.742,101.011C121.748,101.589 123.492,102.122 123.492,102.122C123.492,102.122 124.759,102.405 125.504,102.75C127.136,103.506 127.631,104.622 128.939,105.806C129.668,106.471 130.242,106.753 131.215,106.894C132.05,107.012 132.039,106.916 133.363,106.657C134.682,106.393 135.494,105.136 135.877,105.591C135.955,105.687 135.925,105.764 135.898,105.896C135.877,106.023 135.769,106.265 135.769,106.265C135.769,106.265 135.619,106.483 135.381,106.72C135.144,106.957 134.23,107.458 133.756,107.654C133.277,107.85 132.103,108.173 130.631,108.128C129.152,108.087 127.091,106.958 127.091,106.958L125.597,106.33C125.597,106.33 124.906,106.002 124.449,105.829C123.211,105.37 122.428,105.41 121.148,105.069C120.351,104.86 119.845,104.636 119.129,104.486C118.41,104.34 118.812,104.618 118.89,104.728C119.232,105.179 119.672,105.324 120.238,105.593C120.99,105.957 121.517,105.885 122.301,106.199C123.156,106.554 123.905,107.051 124.377,107.351C124.856,107.656 125.205,107.993 125.662,108.48L127.246,109.823C127.246,109.823 127.615,110.128 127.656,110.256C127.701,110.388 127.875,110.711 127.787,111.235C127.701,111.758 127.273,111.39 127.273,111.39L126.853,111.13L126.445,110.738L125.771,110.192C125.771,110.192 125.205,109.673 124.232,109.172C123.256,108.676 122.082,108.544 122.082,108.544C122.082,108.544 121.039,108.389 121.08,108.717C121.127,109.045 121.367,109.068 122.187,109.281C123.011,109.5 123.556,109.909 123.556,109.909C123.556,109.909 124.404,110.542 125.004,111.234C125.619,111.931 125.787,112.6 125.787,112.6C125.787,112.6 126.093,113.165 126.875,113.925C127.654,114.686 128.072,114.426 128.022,114.79C127.981,115.159 127.629,115.227 127.629,115.227C127.629,115.227 127.438,115.205 127.352,115.205C127.27,115.205 127.065,115.096 126.85,115.014C126.637,114.923 125.813,114.358 125.813,114.358C125.813,114.358 124.529,113.32 124.375,113.206C124.229,113.101 123.011,112.19 123.011,112.19C123.011,112.19 122.3,111.735 121.777,111.471C121.261,111.211 120.566,110.952 120.17,110.82C119.777,110.693 119.068,110.647 119.068,110.647C119.068,110.647 118.193,110.52 117.679,110.324C116.845,110.01 115.879,109.122 115.775,109.081C115.671,109.036 114.888,108.776 114.738,108.799C114.588,108.821 114.24,110.274 114.16,111.112C113.805,114.636 114.742,116.972 116.189,120.201C118.297,124.895 124.14,130.728 124.14,130.728C124.14,130.728 125.607,131.566 126.234,132.058C127.984,133.429 130.879,135.364 133.439,137.923C135.631,140.117 138.556,144.017 138.556,144.017C138.556,144.017 140.236,146.371 141.015,148.033C141.976,150.078 142.742,153.183 142.742,153.183C142.742,153.183 142.81,153.724 142.873,153.832C142.932,153.946 143.074,154.083 143.184,154.088L144.205,154.124C144.313,154.124 145.472,154.032 146.235,153.842C147,153.652 148.811,152.826 150.006,152.195C151.199,151.57 152.634,150.355 152.634,150.355C152.634,150.355 152.904,150.126 154.306,148.57C155.707,147.012 156.611,144.676 156.947,143.801C157.275,142.918 157.552,141.238 157.761,138.356C157.976,135.473 157.584,132.422 157.584,132.422C157.584,132.422 157.056,128.169 156.735,126.726C156.418,125.278 155.651,122.929 155.651,122.929C155.651,122.929 155.115,120.825 154.94,119.5C154.776,118.17 154.742,116.017 154.742,116.017C154.742,116.017 154.742,114.696 155.18,112.256C155.612,109.819 157.11,107.37 157.11,107.37C157.11,107.37 157.524,106.551 159.141,104.62C160.78,102.657 161.309,102.339 162.93,101.168C164.212,100.239 165.885,98.759 166.426,99.105C167.028,99.487 165.837,100.239 165.444,100.63C164.432,101.627 162.534,103.407 160.999,106.076C159.665,108.389 159.169,109.919 158.831,111.426C158.499,112.938 158.64,114.586 158.681,115.155C158.728,115.719 159.042,115.515 159.042,115.515C159.042,115.515 162.292,112.906 164.06,110.92C165.982,108.78 167.679,104.969 168.349,104.937C168.794,104.914 169.009,105.934 168.904,106.398C168.476,108.379 168.341,108.629 167.704,109.932C166.958,111.448 166.282,112.122 165.264,113.502C164.18,114.959 163.661,115.519 162.796,117.445C161.548,120.218 162.275,122.358 162.275,122.358C162.275,122.358 162.425,123.66 163.013,123.642C163.995,123.61 166.146,120.896 167.548,118.679C168.581,117.044 168.958,115.164 169.642,114.18C170.251,113.302 170.798,115.605 170.538,116.962C170.233,118.569 169.433,120.013 167.684,122.29C165.971,124.517 166.03,126.634 166.03,126.634C166.03,126.634 165.844,127.604 165.708,129.707C165.571,131.811 166.173,134.999 166.173,134.999C166.173,134.999 166.718,137.663 166.819,139.689C166.919,141.71 166.85,146.333 164.956,149.917C164.204,151.36 162.579,153.355 162.579,153.355C162.579,153.355 161.345,154.629 160.315,155.376C159.292,156.123 156.846,157.274 156.846,157.274C156.846,157.274 155.153,157.866 154.907,157.92C154.669,157.983 154.507,158.191 154.507,158.191C154.507,158.191 154.669,158.519 154.734,158.652C154.794,158.789 155.271,159.955 155.271,159.955C155.271,159.955 155.782,161.617 155.972,162.934C156.163,164.241 155.941,164.54 155.749,165.551C155.567,166.512 155.144,166.067 155.038,167.96C154.942,169.631 155.708,170.465 155.567,172.336C155.505,173.154 154.575,171.313 154.13,170.523C153.176,168.801 153.407,166.183 153.385,165.533C153.358,164.882 153.313,164.167 153.071,163.329C152.766,162.271 152.339,161.433 151.837,160.788C151.337,160.142 150.808,159.777 150.626,159.837C150.454,159.897 150.444,160.242 150.435,160.415C150.427,160.588 150.777,161.207 150.864,161.344C150.941,161.477 151.575,162.628 151.575,162.628C151.575,162.628 151.851,163.507 151.969,165.225C152.077,166.946 151.548,169.053 151.548,169.053C151.548,169.053 150.864,171.449 150.137,172.846C149.331,174.399 147.551,176.512 147.551,176.512C147.551,176.512 146.276,177.682 145.321,179.604C144.364,181.526 145.184,182.368 144.829,182.604C144.466,182.856 143.71,181.502 143.505,180.583C143.317,179.736 143.417,179.336 143.755,178.375C144.087,177.46 144.857,176.135 144.857,176.135L146.013,174.177C146.013,174.177 147.384,171.531 147.816,169.618C148.254,167.701 147.761,165.579 147.761,165.579C147.761,165.579 147.698,164.878 147.224,164.904C146.743,164.931 146.396,165.361 146.204,165.865C145.804,166.918 146.368,166.73 145.766,168.48C145.287,169.859 145.165,169.676 144.913,170.493C144.618,171.476 144.454,172.476 144.473,173.093C144.495,173.703 144.159,173.447 144.159,173.447C144.159,173.447 143.581,172.355 143.581,171.003C143.581,170.265 143.608,169.852 143.696,169.117C143.827,167.937 144.305,166.131 144.305,166.131C144.305,166.131 144.827,164.35 144.714,162.716C144.6,161.085 144.026,160.779 144.026,160.779C144.026,160.779 143.88,160.555 143.244,160.596C142.615,160.637 142.641,161.771 142.641,161.771C142.641,161.771 142.451,163.383 142.201,164.385C141.504,167.162 140.584,168.614 138.934,170.95C137.451,173.063 135.428,174.917 134.422,175.791C133.416,176.67 130.318,178.929 130.318,178.929L126.693,181.342C126.693,181.342 125.255,182.744 124.589,184.415C123.921,186.082 123.962,187.389 124.344,188.923C124.727,190.453 125.286,191.173 125.573,191.592C125.864,192.015 126.425,192.771 126.605,193.646C126.718,194.193 126.636,194.525 126.669,195.084C126.7,195.565 126.765,195.84 126.755,196.317C126.737,197.088 126.878,197.637 126.446,198.266C126.118,198.748 125.243,199.159 125.243,199.159C125.243,199.159 124.264,199.597 123.677,199.952C117.503,203.681 115.308,206.09 111.833,210.247C110.722,211.567 111.538,211.489 110.349,213.061C109.644,213.999 107.991,213.995 107.39,215.119C106.564,216.643 109.271,218.151 106.14,219.5C102.118,221.239 95.182,219.996 95.047,219.454C94.669,217.95 96.4,216.239 97.009,215.565C99.835,212.477 102.357,212.401 103.277,209.85C103.473,209.303 103.402,208.834 105.64,207.176C107.22,206.006 113.523,201.266 116.273,198.097C117.211,197.018 118.031,196.293 118.441,195.118C118.851,193.939 118.031,193.191 118.031,193.191L116.898,191.347L114.734,187.476C114.734,187.476 113.828,185.422 113.324,184.234C112.826,183.05 111.875,179.84 111.875,179.84C111.875,179.84 111.174,176.976 111.061,175.105C110.846,171.736 111.311,169.777 112.194,166.521C113.342,162.273 115.946,160.501 116.985,156.308C117.287,155.092 117.348,153.002 116.735,153.103C116.143,153.204 116.092,154.861 115.655,155.961C113.979,160.123 111.766,161.949 110.551,166.267C109.735,169.181 109.408,170.915 109.416,173.945C109.416,175.674 109.353,175.355 109.799,178.361C109.963,179.471 110.246,180.06 110.572,181.138C110.801,181.904 111.42,183.332 111.42,183.332C111.42,183.332 112.295,185.245 112.586,186.579C112.686,187.028 112.795,187.294 112.768,187.754C112.713,188.551 112.846,188.724 112.463,189.442C111.984,190.331 112.281,190.858 110.75,191.19C109.408,191.473 106.635,190.586 106.635,190.586C106.635,190.586 95.253,187.13 87.988,188.122C86.547,188.317 85.777,188.842 84.322,188.813C83.013,188.794 82.337,187.766 81.025,188.159C80.752,188.241 80.668,188.428 80.433,188.587C78.502,189.93 79.977,192.161 74.907,191C71.793,190.285 68.022,188.387 68.678,187.185C69.55,185.596 70.725,185.336 73.184,184.327C75.813,183.252 79.761,183.556 80.536,183.498C81.488,183.435 82.858,182.766 84.552,182.736C87.485,182.687 88.01,183.033 88.01,183.033L93,183.47L102.535,183.598C102.535,183.598 104.24,183.461 104.928,183.333C105.609,183.201 106.152,181.857 106.521,181.216C106.888,180.579 106.511,179.632 106.511,179.632L106.222,179.19L105.318,177.724L103.637,174.897L101.777,171.19C101.777,171.19 100.561,168.599 99.908,166.901C99.263,165.215 98.89,164.264 98.458,162.515C98.009,160.712 97.741,159.25 97.684,157.813C97.61,155.741 97.48,154.116 98.058,152.422" style="fill:rgb(35,31,32);fill-rule:nonzero;"/>
        <path id="Horse_contrast" d="M160.004,148.979C162.002,146.397 162.199,144.011 162.317,140.632C162.41,138.182 161.479,134.403 161.479,134.403L161.352,134.13C161.352,134.13 161,133.675 160.785,134.276C160.819,134.809 160.889,135.237 160.889,135.237L161.007,140.104C161.007,140.104 160.852,142.555 160.02,145.082C158.612,149.344 154.878,151.252 154.332,152.777C153.41,155.336 157.6,152.08 160.004,148.979M138.949,156.854C138.949,156.854 138.125,157.085 138.111,157.897C138.09,158.71 138.31,159.418 138.293,160.391C138.27,161.629 137.123,163.079 137.859,163.541C139.13,164.343 140.217,158.687 139.832,157.85C139.445,157.014 139.07,156.844 138.949,156.854M124.777,196.066C124.777,196.066 124.545,195.939 124.086,196.111C123.631,196.281 123.658,196.755 123.658,196.755C123.658,196.755 123.57,197.256 123.939,197.315C124.308,197.366 124.918,196.473 124.914,196.365C124.906,196.264 124.777,196.066 124.777,196.066M111.455,205.529C111.455,205.529 111.312,205.67 111.435,205.769C111.554,205.861 111.722,205.734 111.722,205.734C111.722,205.734 114.027,203.939 115.388,202.67C116.834,201.316 118.904,198.99 118.904,198.99C118.904,198.99 119.045,198.808 118.883,198.658C118.73,198.512 118.324,198.74 118,198.894C117.713,199.04 117.545,199.207 117.336,199.386C117.121,199.564 116.453,200.259 116.453,200.259L114.668,201.993L113.558,203.036L112.47,204.079L112.008,204.602C112.008,204.602 111.886,204.801 111.859,204.852C111.828,204.903 111.705,205.061 111.705,205.061C111.705,205.061 111.545,205.221 111.545,205.262C111.545,205.303 111.49,205.358 111.486,205.408C111.486,205.461 111.455,205.529 111.455,205.529M107.469,208.143C107.469,208.143 107.215,207.938 106.828,208.143C106.435,208.343 106.017,208.885 105.984,208.946C105.952,209.005 105.732,209.3 105.88,209.55C106.026,209.8 106.525,209.432 106.595,209.418C106.667,209.408 107.318,208.902 107.318,208.902C107.318,208.902 107.695,208.666 107.469,208.143M99.848,215.865C99.848,215.865 99.527,215.251 99.099,215.506C98.664,215.756 98.436,215.843 98.045,216.38C97.979,216.481 97.556,217.026 97.476,217.163C97.401,217.305 96.987,218.101 97.836,218.15C99.309,218.247 98.348,217.295 98.852,216.929C99.262,216.644 100.027,216.715 100.036,216.414C100.048,216.12 99.848,215.865 99.848,215.865M73.747,185.043C73.747,185.043 72.859,185.253 72.795,185.566C72.729,185.879 73.312,186.185 73.405,186.199C73.503,186.218 73.708,186.445 74.291,186.049C74.874,185.653 74.851,185.313 74.851,185.313C74.851,185.313 75.195,184.915 73.747,185.043M88.106,184.574C88.106,184.574 88.097,184.251 87.469,184.287C86.838,184.323 86.699,184.441 86.686,184.533C86.667,184.633 86.713,184.793 87.282,184.838C87.856,184.884 88.088,184.834 88.106,184.574M101.671,184.971C100.532,184.956 100.897,184.993 100.193,185.03C98.916,185.098 98.219,185.045 96.962,184.963C95.198,184.851 92.465,184.403 92.465,184.403C92.465,184.403 92.121,184.33 91.985,184.544C91.856,184.773 92.318,185.241 92.732,185.373C94.965,186.069 95.082,185.942 96.611,185.97C97.46,185.984 97.936,185.898 98.778,185.842C99.846,185.769 100.349,185.933 101.51,185.623C101.815,185.544 102.111,184.975 101.671,184.971M109.324,182.693C109.324,182.693 109.094,182.433 108.625,182.661C108.152,182.892 107.869,183.408 107.869,183.408C107.869,183.408 107.65,183.75 108.115,183.695C108.582,183.64 108.986,183.439 109.105,183.367C109.223,183.305 109.561,182.98 109.324,182.693M102.664,90.927C102.664,90.927 105.902,87.894 108.207,83.896C109.582,81.515 110.18,75.964 109,77.353C108.465,77.977 107.826,80.864 106.805,82.99C105.351,86.022 102.242,90.321 102.242,90.321C102.242,90.321 101.573,91.756 102.664,90.927M89.762,98.609C89.762,98.609 89.418,98.869 89.571,99.306C89.731,99.743 90.398,99.41 90.398,99.41C90.398,99.41 91.88,98.85 93.446,98.786C95.019,98.722 97.192,99.191 97.192,99.191C97.192,99.191 98.228,99.478 98.403,99.542C98.576,99.605 99.141,99.883 99.23,99.916C99.323,99.948 99.854,100.216 100.156,99.943C100.466,99.67 98.273,97.685 96.04,97.384C92.325,96.878 89.877,98.472 89.877,98.472L89.762,98.609M74.437,111.709C74.706,111.927 75.951,109.564 76.992,108.071C77.752,106.969 79.141,105.134 79.141,105.134C79.141,105.134 79.76,104.291 78.704,104.765C78.269,104.956 77.09,105.853 76.259,107.506C75.55,108.909 74.17,111.481 74.437,111.709M65.847,101.423C65.847,101.423 65.581,102.329 66.656,103.481C67.733,104.628 68.01,105.58 68.698,104.893C68.889,104.711 68.027,103.154 67.587,102.726C67.145,102.303 66.822,101.943 66.822,101.943L66.547,101.715L66.185,101.519L65.985,101.437C65.983,101.437 65.922,101.382 65.847,101.423M62.368,92.635C62.368,92.635 61.207,92.854 60.917,93.414C60.63,93.978 62.256,93.637 62.256,93.637C62.256,93.637 63.338,93.7 63.362,93.286C63.39,92.872 63.222,92.821 62.368,92.635M43.89,123.257C43.303,123.079 43.2,124.25 43.125,124.623C43.052,125.001 43.387,125.761 43.521,125.752C43.662,125.748 44.134,125.01 44.161,124.646C44.188,124.281 44.418,123.416 43.89,123.257M63.078,146.061C63.078,146.061 62.019,145.223 61.856,145.557C61.699,145.883 62.732,147.365 62.732,147.365C62.732,147.365 63.044,147.846 63.533,147.624C64.018,147.401 63.843,146.868 63.843,146.868C63.843,146.868 63.516,146.175 63.078,146.061M55.071,121.39C55.071,121.39 54.802,121.326 54.698,121.649C54.6,121.972 54.612,122.51 54.541,123.147C54.479,123.652 54.671,124.991 54.671,124.991C54.671,124.991 54.774,126.048 54.983,126.694C55.213,127.382 55.828,128.361 55.828,128.361C55.828,128.361 56.06,128.871 56.34,128.848C56.62,128.821 56.556,128.484 56.556,128.484C56.556,128.484 55.668,124.955 55.636,124.595C55.529,123.425 55.538,121.991 55.538,121.991L55.529,121.772C55.529,121.772 55.52,121.404 55.071,121.39M56.462,110.625C56.462,110.625 55.968,110.525 55.52,111.472C55.067,112.424 55.16,112.806 55.199,112.851C55.235,112.897 55.599,112.883 56.173,112.004C56.74,111.129 56.615,110.802 56.615,110.802C56.615,110.802 56.583,110.625 56.462,110.625M69.917,120.384C69.917,120.384 70.514,121.263 69.377,121.062C68.243,120.857 65.859,118.981 64.894,118.476C63.936,117.971 62.362,117.802 63.025,117.219C63.141,117.115 63.171,117.019 63.367,117.01C63.563,117.001 64.209,117.26 64.252,117.279C64.289,117.301 65.966,117.989 66.028,118.012C66.09,118.039 67.026,118.44 67.697,118.832C68.369,119.228 69.455,119.988 69.455,119.988L69.917,120.384M101.298,147.395C101.606,148.374 97.726,145.346 95.647,143.745C90.135,139.506 83.389,130.808 84.231,130.043C84.932,129.406 87.696,133.39 91.749,137.775C96.075,142.454 101.116,146.816 101.298,147.395M117.496,143.236C116.299,144.521 115.871,146.165 116.562,147.394C117.246,148.586 117.455,145.65 118.209,144.775C118.853,144.029 119.248,144.142 120.322,143.386C122.146,142.1 119.021,141.604 117.496,143.236M110.598,115.794C109.78,115.657 109.807,116.909 109.924,117.806C110.471,121.795 112.26,124.869 114.651,127.769C116.108,129.526 120.098,132.668 120.567,132.167C120.735,131.985 116.764,128.925 114.242,124.986C112.453,122.194 111.492,119.822 111.272,117.518C111.244,117.232 111.313,115.908 110.598,115.794M95.158,56.648C93.357,57.627 90.238,58.483 90.238,58.483C90.238,58.483 90.094,58.788 90.495,58.756C93.166,58.547 94.183,58.205 95.611,57.581C97.031,56.962 98.072,55.254 98.072,55.254C98.072,55.254 98.646,54.202 97.569,55.072C97.241,55.337 96.141,56.107 95.158,56.648M116.855,49.791C116.855,49.791 116.244,49.654 115.834,49.91C115.426,50.169 115.543,50.379 115.543,50.379C115.543,50.379 116.172,50.871 116.627,50.944C117.082,51.012 118.057,51.436 118.012,51.108C117.975,50.776 117.428,50.17 117.246,50.006C117.055,49.841 116.855,49.791 116.855,49.791M106.641,68.529C106.748,68.743 108.573,68.247 109.27,67.855C109.826,67.545 110.035,66.512 110.035,66.512C110.035,66.512 110.19,65.506 109.953,65.892C108.908,67.591 106.539,68.31 106.641,68.529M106.582,63.848C107.318,62.441 104.558,65.319 103.153,66.066C102.295,66.521 100.902,67.118 100.902,67.118C100.902,67.118 100.533,67.578 101.048,67.541C101.565,67.5 102.879,67.951 103.933,67.122C104.181,66.931 105.294,65.319 105.294,65.319C105.294,65.319 106.227,64.526 106.582,63.848M106.156,69.867C106.209,70.099 109.31,70.017 110.084,69.794C110.689,69.617 111.018,68.533 111.018,68.533C111.018,68.533 111.391,67.591 111.078,67.914C109.678,69.339 106.105,69.631 106.156,69.867M56.512,98.176C56.512,98.176 56.041,98.008 55.458,98.886C54.88,99.756 52.28,103.699 52.744,104.286C53.29,104.974 55.542,100.757 56.227,99.965C56.917,99.177 56.642,98.367 56.642,98.367C56.642,98.367 56.633,98.19 56.512,98.176M113.176,169.452C112.903,170.764 113.24,173.439 113.686,173.969C114.789,175.299 114.114,171.893 114.268,170.699C114.401,169.579 114.547,169.197 115.088,168.004C116.072,165.863 113.758,166.656 113.176,169.452M103.691,55.232C103.691,55.232 102.833,55.251 102.161,55.619C101.49,55.993 101.312,56.507 101.312,56.507C101.312,56.507 101.178,56.881 101.271,57.09C101.467,57.546 102.389,56.858 103.042,57.086C103.57,57.273 103.821,57.423 104.217,57.905C104.568,58.329 105.187,58.93 105.574,58.588C105.961,58.247 105.822,57.395 105.822,57.395C105.822,57.395 105.364,56.001 104.768,55.601C104.171,55.205 103.691,55.232 103.691,55.232M89.441,65.054C89.441,65.054 88.965,65.132 89.077,65.71C89.191,66.289 89.502,66.197 89.502,66.197C89.502,66.197 90.495,65.774 90.429,65.177C90.37,64.572 89.441,65.054 89.441,65.054M82.483,61.935C82.483,61.935 81.962,61.954 81.597,62.6C81.231,63.246 81.019,63.912 81.019,63.912C81.019,63.912 80.844,64.763 81.151,65.027C81.459,65.296 81.789,64.476 82.228,64.167C82.494,63.976 82.656,63.885 82.927,63.698C83.301,63.439 83.906,63.771 83.861,63.015C83.813,62.259 83.007,61.899 82.483,61.935M104.963,53.839C104.963,53.839 103.779,53.671 103.825,54.126C103.864,54.545 104.469,54.294 104.856,54.468C105.234,54.632 105.475,54.7 105.777,54.982C105.999,55.178 105.972,55.565 106.245,55.569C106.622,55.574 106.542,55.423 106.542,55.423C106.542,55.423 106.204,54.403 105.759,54.107C105.319,53.821 104.963,53.839 104.963,53.839M118.176,58.611C118.002,59.253 117.899,59.481 117.899,59.481C117.899,59.481 117.565,60.788 118.891,60.305C120.211,59.813 119.535,60.023 120.479,59.563C121.422,59.103 121.391,59.354 122.083,59.385C122.318,59.394 122.466,59.408 122.82,59.335C123.116,59.276 122.993,58.917 122.329,58.739C121.613,58.548 120.725,58.598 119.706,58.584C119.113,58.579 118.348,57.974 118.176,58.611M118.758,53.766C118.758,53.766 118.149,53.634 117.738,53.889C117.324,54.149 117.447,54.353 117.447,54.353C117.447,54.353 118.08,54.85 118.531,54.918C118.986,54.995 119.961,55.414 119.924,55.082C119.879,54.75 119.332,54.149 119.151,53.98C118.967,53.821 118.758,53.766 118.758,53.766M121.09,62.855C121.09,62.855 120.438,62.728 119.996,62.978C119.551,63.224 119.682,63.415 119.682,63.415C119.682,63.415 120.362,63.879 120.844,63.948C121.326,64.012 122.373,64.408 122.332,64.094C122.291,63.784 121.709,63.215 121.508,63.055C121.309,62.9 121.09,62.855 121.09,62.855M121.281,66.156C121.281,66.156 120.593,66.006 120.125,66.288C119.66,66.565 119.801,66.793 119.801,66.793C119.801,66.793 120.516,67.326 121.026,67.408C121.543,67.485 122.639,67.936 122.592,67.576C122.547,67.221 121.938,66.565 121.727,66.383C121.518,66.207 121.281,66.156 121.281,66.156M121.596,69.371C121.596,69.371 120.848,69.203 120.344,69.517C119.838,69.836 119.989,70.086 119.989,70.086C119.989,70.086 120.766,70.691 121.317,70.778C121.875,70.864 123.067,71.383 123.02,70.983C122.971,70.578 122.301,69.836 122.074,69.631C121.846,69.43 121.596,69.371 121.596,69.371M121.518,73.346C121.518,73.346 120.776,73.178 120.266,73.496C119.76,73.81 119.914,74.065 119.914,74.065C119.914,74.065 120.689,74.666 121.244,74.753C121.801,74.844 123.002,75.358 122.947,74.953C122.896,74.548 122.228,73.81 122,73.605C121.773,73.405 121.518,73.346 121.518,73.346M120.977,81.092C120.977,81.092 120.229,80.924 119.723,81.242C119.219,81.556 119.369,81.811 119.369,81.811C119.369,81.811 120.142,82.417 120.697,82.503C121.254,82.594 122.455,83.104 122.4,82.703C122.351,82.298 121.681,81.556 121.453,81.35C121.227,81.151 120.977,81.092 120.977,81.092M121.48,77.212C121.48,77.212 120.621,77.021 120.033,77.385C119.451,77.749 119.627,78.041 119.627,78.041C119.627,78.041 120.525,78.742 121.162,78.842C121.805,78.942 123.193,79.539 123.129,79.074C123.074,78.605 122.301,77.749 122.037,77.516C121.773,77.28 121.48,77.212 121.48,77.212M120.607,84.589C120.607,84.589 119.996,84.448 119.578,84.712C119.158,84.971 119.287,85.181 119.287,85.181C119.287,85.181 119.924,85.678 120.385,85.75C120.84,85.823 121.823,86.251 121.781,85.914C121.74,85.581 121.189,84.971 121.004,84.803C120.816,84.634 120.607,84.589 120.607,84.589M120.029,87.949C120.029,87.949 119.523,87.835 119.177,88.054C118.83,88.268 118.931,88.441 118.931,88.441C118.931,88.441 119.463,88.856 119.84,88.915C120.22,88.974 121.037,89.325 121.002,89.052C120.97,88.774 120.515,88.269 120.358,88.128C120.201,87.99 120.029,87.949 120.029,87.949M119.314,91.009C119.314,91.009 118.853,90.904 118.539,91.1C118.23,91.291 118.32,91.451 118.32,91.451C118.32,91.451 118.795,91.825 119.14,91.875C119.482,91.934 120.22,92.248 120.193,92.002C120.16,91.752 119.75,91.292 119.609,91.173C119.469,91.045 119.314,91.009 119.314,91.009M118.586,93.518C118.586,93.518 118.121,93.414 117.811,93.604C117.502,93.8 117.592,93.959 117.592,93.959C117.592,93.959 118.071,94.328 118.412,94.382C118.758,94.441 119.492,94.756 119.459,94.505C119.428,94.259 119.018,93.799 118.877,93.676C118.74,93.555 118.586,93.518 118.586,93.518M117.711,96.428C117.711,96.428 117.338,96.342 117.092,96.501C116.836,96.661 116.914,96.788 116.914,96.788C116.914,96.788 117.301,97.084 117.574,97.134C117.851,97.175 118.449,97.43 118.422,97.229C118.395,97.029 118.063,96.66 117.947,96.56C117.838,96.459 117.711,96.428 117.711,96.428M116.664,99.155C116.664,99.155 116.346,99.087 116.131,99.219C115.912,99.351 115.977,99.465 115.977,99.465C115.977,99.465 116.309,99.72 116.545,99.757C116.781,99.798 117.297,100.017 117.279,99.843C117.256,99.675 116.965,99.351 116.873,99.265C116.773,99.178 116.664,99.155 116.664,99.155M115.584,101.742C115.584,101.742 115.262,101.674 115.051,101.81C114.828,101.942 114.897,102.051 114.897,102.051C114.897,102.051 115.235,102.311 115.471,102.347C115.707,102.388 116.217,102.611 116.2,102.434C116.173,102.261 115.888,101.942 115.79,101.855C115.692,101.768 115.584,101.742 115.584,101.742M45.554,114.915C45.554,114.915 45.014,115.962 45.279,116.536C45.546,117.11 46.274,115.62 46.274,115.62C46.274,115.62 47.027,114.131 46.72,113.858C46.408,113.581 46.23,114.355 45.554,114.915" style="fill:white;fill-rule:nonzero;"/>
        <path id="Scuderia" d="M86.615,207.082C86.615,207.082 86.21,206.559 85.827,206.939C85.444,207.323 84.946,207.933 84.06,207.874C83.17,207.807 82.788,207.669 82.287,207.455C81.793,207.236 81.099,206.909 81.099,206.909C81.099,206.909 79.291,206.212 77.757,206.176C76.227,206.135 73.723,206.774 72.511,208.088C71.298,209.395 70.99,210.757 70.99,210.757C70.99,210.757 70.585,213.149 71.28,214.24C71.974,215.342 72.73,216.521 74.413,217.554C76.102,218.587 76.837,218.97 76.837,218.97L79.767,220.318L82.475,221.339C82.475,221.339 86.389,222.509 86.864,225.469C87.338,228.43 85.562,232.258 80.159,232.61C74.843,232.957 72.254,230.375 71.426,228.721C70.599,227.059 71.075,225.657 71.075,225.657L71.298,225.202L71.507,225.098C71.507,225.098 72.334,225.658 73.144,225.552C73.952,225.448 75.439,224.473 75.131,222.884C74.819,221.29 73.392,220.94 72.706,220.998C72.025,221.059 68.979,221.846 68.92,226.275C68.858,230.702 72.893,233.06 72.893,233.06C72.893,233.06 75.75,234.839 78.976,234.699C82.204,234.553 84.875,233.269 84.875,233.269C84.875,233.269 89.654,230.892 89.781,225.697C89.902,220.507 86.614,218.679 86.614,218.679C86.614,218.679 85.435,217.855 84.358,217.355C83.281,216.863 80.697,215.616 80.697,215.616L78.068,214.418L76.474,213.53L75.581,212.929C75.581,212.929 73.453,211.252 74.588,209.431C75.727,207.611 79.019,208.292 79.019,208.292C79.019,208.292 81.564,208.829 83.55,210.259C85.538,211.685 86.699,213.402 86.699,213.402L87.523,214.751L87.625,214.938L88.331,214.692C88.331,214.692 87.233,211.629 87.024,210.343C86.82,209.063 86.615,207.082 86.615,207.082" style="fill:rgb(35,31,32);fill-rule:nonzero;"/>
        <path id="Ferrari" d="M118.121,224.6C118.121,224.6 118.832,225.387 119.777,225.387C120.734,225.387 122.09,224.723 122.072,223.005C122.054,221.289 120.316,220.829 120.316,220.829C120.316,220.829 117.687,220.21 116.408,222.883C115.125,225.551 115.826,227.868 115.826,227.868C115.826,227.868 116.428,231.471 120.234,233.601C124.04,235.73 128.121,234.161 128.121,234.161C128.121,234.161 131.18,233.144 133.83,230.163C136.48,227.185 137.742,223.646 137.742,223.646L138.67,221.33L139.787,221.351C139.787,221.351 141.344,221.497 142.435,220.605C143.539,219.711 144.22,218.493 144.22,218.493L144.363,218.124L143.656,217.796C143.656,217.796 142.855,218.848 141.734,218.953C140.619,219.053 139.459,218.866 139.459,218.866L140.533,215.988C140.533,215.988 141.775,213.484 142.131,212.904C142.483,212.327 143.93,210.465 143.93,210.465C143.93,210.465 146.909,210.447 149.785,209.846C152.664,209.245 154.439,208.522 154.439,208.522L158,207.05L158.869,206.576L158.601,205.87C158.601,205.87 155.394,207.009 150.65,207.551C145.916,208.088 142.937,207.51 142.937,207.51L137.554,206.677C137.554,206.677 135.918,206.412 134.658,206.391C133.398,206.371 130.824,206.841 130.824,206.841C130.824,206.841 128.265,207.423 127.109,208.293C125.943,209.163 123.193,211.193 124.459,214.295C125.717,217.4 130.871,215.742 131.6,213.443C131.574,213.464 131.887,212.701 131.887,212.701L131.973,212.286L131.533,212.118L131.016,212.719C131.016,212.719 129.094,214.336 127.602,213.297C126.119,212.264 127.127,210.82 127.274,210.651C127.416,210.489 128.221,209.514 130.147,209.082C132.073,208.65 134.969,209.351 134.969,209.351L138.115,209.929C138.115,209.929 139.853,210.261 139.931,210.261C140.017,210.261 140.577,210.343 140.577,210.343L139.478,211.564C139.478,211.564 137.884,213.094 136.765,215.312C135.65,217.525 135.134,218.681 135.134,218.681L135.025,218.849C135.025,218.849 133.624,219.013 132.736,219.55C131.843,220.088 131.265,220.916 131.265,220.916L130.849,221.663L131.407,222.137C131.407,222.137 132.05,221.412 132.837,221.208C133.624,220.998 134.223,221.312 134.223,221.312C134.223,221.312 133.083,224.123 132.546,225.137C132.009,226.151 131.098,228.015 129.815,229.4C128.536,230.784 127.602,231.99 124.665,232.404C121.727,232.814 119.655,230.929 118.892,230.001C118.122,229.072 117.671,227.661 117.63,226.632C117.584,225.592 118.121,224.6 118.121,224.6" style="fill:rgb(35,31,32);fill-rule:nonzero;"/>
    </g>
</svg>
