<?xml version="1.0" encoding="UTF-8" standalone="no"?>
<!DOCTYPE svg PUBLIC "-//W3C//DTD SVG 1.1//EN" "http://www.w3.org/Graphics/SVG/1.1/DTD/svg11.dtd">
<svg width="100%" height="100%" viewBox="0 0 1000 1000" version="1.1" xmlns="http://www.w3.org/2000/svg" xmlns:xlink="http://www.w3.org/1999/xlink" xml:space="preserve" xmlns:serif="http://www.serif.com/" style="fill-rule:evenodd;clip-rule:evenodd;stroke-linejoin:round;stroke-miterlimit:2;">
    <g transform="matrix(17.8568,0,0,17.8568,0.0199972,53.5804)">
        <path d="M31.281,44.277C26.094,44.277 21.414,42.186 17.969,38.792L23.32,38.792C23.32,38.792 38.698,11.391 38.752,11.282C38.827,11.17 38.789,11.097 38.682,11.097L32.406,11.097C32.279,11.097 32.26,11.135 32.225,11.189C32.188,11.244 23.555,26.449 23.555,26.449L12.275,26.449C12.238,25.967 12.221,25.484 12.222,25C12.222,14.362 20.744,5.722 31.282,5.722C36.649,5.722 41.51,7.979 44.974,11.611C43.47,14.179 36.722,25.769 35.816,27.457C35.29,26.227 32.859,26.467 31.608,26.447C31.063,27.364 28.508,32.244 28.508,32.244C28.508,32.244 29.92,32.226 31.19,32.244C32.424,32.264 32.57,33.564 32.08,34.39C31.589,35.216 29.575,38.79 29.575,38.79L36.051,38.79C36.051,38.79 43.996,24.76 48.511,16.783C49.721,19.353 50.346,22.159 50.34,25C50.34,35.639 41.8,44.276 31.28,44.276M13.618,32.245L20.2,32.245L17.025,37.802C15.592,36.149 14.441,34.271 13.617,32.245M31.28,0C17.624,0 6.563,11.19 6.563,25.001C6.563,25.495 6.579,25.971 6.598,26.449L3.37,26.449C3.189,26.449 3.098,26.559 3.025,26.689C2.971,26.817 0.105,31.916 0.032,32.044C-0.022,32.172 -0.022,32.245 0.124,32.245L7.614,32.245C10.678,42.515 20.11,50 31.28,50C44.938,50 56,38.81 56,25.001C56,11.189 44.938,0 31.281,0" style="fill:rgb(230,0,45);"/>
    </g>
</svg>
