<?xml version="1.0" encoding="UTF-8" standalone="no"?>
<!DOCTYPE svg PUBLIC "-//W3C//DTD SVG 1.1//EN" "http://www.w3.org/Graphics/SVG/1.1/DTD/svg11.dtd">
<svg width="100%" height="100%" viewBox="0 0 1000 1000" version="1.1" xmlns="http://www.w3.org/2000/svg" xmlns:xlink="http://www.w3.org/1999/xlink" xml:space="preserve" xmlns:serif="http://www.serif.com/" style="fill-rule:evenodd;clip-rule:evenodd;stroke-linejoin:round;stroke-miterlimit:2;">
    <g transform="matrix(15.6194,0,0,15.6194,0,0.359)">
        <g>
            <g>
                <path id="outer_24_" d="M63.3,32C63.3,49.3 49.3,63.3 32,63.3C14.7,63.3 0.7,49.3 0.7,32C0.7,14.7 14.7,0.7 32,0.7C49.3,0.7 63.3,14.7 63.3,32ZM32,2.6C15.7,2.6 2.6,15.7 2.6,32C2.6,48.3 15.8,61.4 32,61.4C48.3,61.4 61.4,48.2 61.4,32C61.4,15.7 48.3,2.6 32,2.6Z" style="fill:url(#_Linear1);fill-rule:nonzero;"/>
                <path d="M32,2.6C15.7,2.6 2.6,15.7 2.6,32C2.6,48.3 15.8,61.4 32,61.4C48.3,61.4 61.4,48.2 61.4,32C61.4,15.7 48.3,2.6 32,2.6ZM32,59.5C16.8,59.5 4.5,47.2 4.5,32C4.5,16.8 16.8,4.5 32,4.5C47.2,4.5 59.5,16.8 59.5,32C59.5,47.2 47.2,59.5 32,59.5Z" style="fill:url(#_Linear2);fill-rule:nonzero;"/>
                <path d="M32,63.3C49.3,63.3 63.3,49.3 63.3,32C63.3,14.7 49.3,0.7 32,0.7C14.7,0.7 0.7,14.7 0.7,32C0.7,49.3 14.7,63.3 32,63.3ZM32,0C49.6,0 64,14.4 64,32C64,49.6 49.6,64 32,64C14.4,64 0,49.6 0,32C0,14.4 14.4,0 32,0Z" style="fill:url(#_Linear3);fill-rule:nonzero;"/>
                <path d="M2.2,32.1C2.2,15.7 15.5,2.2 32,2.2C48.5,2.2 61.8,15.6 61.8,32.1C61.8,48.5 48.5,61.8 32,61.8C15.5,61.8 2.2,48.5 2.2,32.1ZM11.5,11.5C6.2,16.8 2.9,24.1 2.9,32.1C2.9,40.1 6.2,47.4 11.4,52.6C16.7,57.8 24,61.1 32,61.1C40,61.1 47.3,57.9 52.5,52.6C57.8,47.4 61,40.1 61,32.1C61,24.1 57.7,16.8 52.5,11.5C47.3,6.2 40,2.9 32,2.9C24,2.9 16.7,6.2 11.5,11.5Z" style="fill:white;fill-rule:nonzero;"/>
                <path d="M32,59.6C24.6,59.6 17.7,56.7 12.5,51.5C7.3,46.3 4.4,39.4 4.4,32C4.4,24.6 7.3,17.7 12.5,12.5C17.7,7.3 24.6,4.4 32,4.4C39.4,4.4 46.3,7.3 51.5,12.5C56.7,17.7 59.6,24.6 59.6,32C59.6,39.4 56.7,46.3 51.5,51.5C46.3,56.7 39.4,59.6 32,59.6ZM32,58.8C39.1,58.8 45.9,56 50.9,51C56,45.9 58.7,39.2 58.7,32.1C58.7,25 55.9,18.2 50.9,13.2C45.8,8.1 39.1,5.4 32,5.4C24.9,5.4 18.1,8.2 13.1,13.2C8,18.1 5.2,24.9 5.2,32C5.2,39.1 8,45.9 13,50.9C18.1,56 24.9,58.8 32,58.8Z" style="fill:url(#_Linear4);fill-rule:nonzero;"/>
                <path d="M56.3,45C55.8,44.6 36.5,29.3 36.5,29.3L32,3.6C31.7,3.7 31.3,4 31.1,4.4L27.9,29.4L8,44.7C8,44.7 7.6,45.2 7.4,45.5C7.3,45.7 7.3,46 7.3,46.3L31.9,36.2L56.5,46.3C56.7,45.8 56.5,45.3 56.3,45Z" style="fill:white;fill-rule:nonzero;"/>
                <path d="M32.2,32.8L32,37.4L54.6,46.5C55.4,46.9 56,46.7 56.6,46.3L32.5,32.7C32.4,32.6 32.2,32.7 32.2,32.8Z" style="fill:rgb(86,95,100);fill-rule:nonzero;"/>
                <path d="M32.2,32.8C32.2,32.8 33.5,35.1 35,36.7C37.1,39 39.9,40.6 39.9,40.6L54.6,46.5C55.4,46.9 56,46.7 56.6,46.3L32.5,32.7C32.4,32.6 32.2,32.7 32.2,32.8Z" style="fill:url(#_Linear5);fill-rule:nonzero;"/>
                <path d="M56.5,45.4C56.5,45.3 56.4,45.2 56.3,45L35.7,29.9L32.9,31.7C32.9,31.7 33.1,31.8 33.2,31.7C33.5,31.6 34.1,31.5 34.7,31.7C35.2,31.9 56.5,45.5 56.5,45.5L56.5,45.4Z" style="fill:rgb(164,170,174);fill-opacity:0.6;fill-rule:nonzero;"/>
                <path d="M55.8,44.5L36.6,29.3L35.7,29.9L56.3,45.1C56.2,44.9 56,44.7 55.8,44.5Z" style="fill:rgb(51,62,70);fill-rule:nonzero;"/>
                <path d="M32.5,31.3L32.4,31.4C32.4,31.4 32.4,31.6 32.6,31.5C32.7,31.4 35.6,29.9 36.6,29.3L33.1,5.3C33,4.4 32.6,4 31.9,3.7L32.3,31.5L32.5,31.3Z" style="fill:rgb(86,95,100);fill-rule:nonzero;"/>
                <path d="M30.8,5.3L30.8,6.6L28.6,28.7C28.6,29 28.7,29.3 29,29.5L30.3,30.5L31.2,6.1L31.3,4.2C31,4.4 30.9,4.8 30.8,5.3Z" style="fill:rgb(164,170,174);fill-opacity:0.6;fill-rule:nonzero;"/>
                <path d="M29.6,30.9L28.4,29.9L8.1,44.6C8.1,44.6 7.5,45 7.4,45.4L8.1,45L29.4,31.6C29.8,31.4 29.9,31.2 29.6,30.9Z" style="fill:rgb(164,170,174);fill-opacity:0.6;fill-rule:nonzero;"/>
                <path d="M31.7,32.8C31.7,32.7 31.6,32.6 31.5,32.7L7.3,46.4C7.9,46.8 8.5,46.9 9.3,46.6L31.9,37.5L31.7,32.8Z" style="fill:rgb(86,95,100);fill-rule:nonzero;"/>
                <path d="M32.4,31.4L32.5,31.3L32.4,31.4C32.4,31.4 32.4,31.5 32.5,31.5L32.6,31.5C32.7,31.4 35.6,29.9 36.6,29.3L36.2,26.4L33.1,5.3C33.1,4.9 33,4.6 32.8,4.4C32.8,4.4 34.3,24.6 34.3,26.8C34.3,29.7 32.4,31.4 32.4,31.4Z" style="fill:url(#_Linear6);fill-rule:nonzero;"/>
                <path d="M31.7,32.8C31.7,32.7 31.6,32.6 31.5,32.7L7.3,46.4C7.9,46.8 8.5,46.9 9.3,46.6L31.9,37.5L31.7,32.8Z" style="fill:url(#_Linear7);fill-rule:nonzero;"/>
                <path d="M9.3,46.5L31.9,37.4L31.7,33C31.3,34.2 30.6,35.5 28.7,36.5C27.3,37.3 13.9,43.9 9.1,46.2C8.8,46.4 8.4,46.5 8.2,46.6C8.6,46.8 8.9,46.7 9.3,46.5Z" style="fill:url(#_Linear8);fill-rule:nonzero;"/>
                <path d="M32.5,31.3L32.4,31.4C32.4,31.4 32.4,31.6 32.6,31.5C32.7,31.4 35.6,29.9 36.6,29.3L33.1,5.3C33,4.4 32.6,4 31.9,3.7L32.3,31.5L32.5,31.3Z" style="fill:url(#_Linear9);fill-rule:nonzero;"/>
                <path d="M32.5,31.3L32.4,31.4C32.4,31.4 32.4,31.6 32.6,31.5C32.7,31.4 35.6,29.9 36.6,29.3L33.1,5.3C33,4.4 32.6,4 31.9,3.7L32.3,31.5L32.5,31.3Z" style="fill:url(#_Linear10);fill-rule:nonzero;"/>
                <path d="M5.1,44.4C4.4,42.8 0.4,35 4.8,20L3.1,20C2.2,23 1.5,24.8 1.1,27.5C1.1,27.5 0.9,28.5 0.8,29.6C0.7,30.7 0.7,31.3 0.7,32C0.7,38 2.2,41.5 2.2,41.5C3.8,46.5 6.6,51 10.4,54.4C13.7,57.3 18.8,59.5 23,60.3C22.3,60.2 10.3,55.1 5.1,44.4Z" style="fill:url(#_Linear11);fill-rule:nonzero;"/>
                <path d="M32.4,32.6L31.5,32.6C31.6,32.6 31.7,32.6 31.7,32.7L31.9,37.3L32,37.3L32.2,32.7C32.2,32.6 32.3,32.5 32.4,32.6Z" style="fill:url(#_Linear12);fill-rule:nonzero;"/>
                <path d="M42,2.3C52.5,6.3 62.4,17.3 62.4,31.2C62.4,48 49,61.7 32,61.7L32,63.3C49,63.3 63.3,49.3 63.3,32C63.3,18.2 54.5,6.6 42,2.3Z" style="fill:url(#_Linear13);fill-rule:nonzero;"/>
                <path d="M32.3,0.7L32,0.7L32.3,0.7Z" style="fill:url(#_Linear14);fill-rule:nonzero;"/>
                <path d="M58.8,20.2C51.8,4.1 36,3.2 35.1,3.1L35,3.1C47.1,5.3 54.8,13.2 57.5,21.5L57.5,21.6C58.7,24.8 59.3,28.2 59.4,31.9C59.5,35.4 58.7,39.3 57.2,42.9C57.1,43.4 57,44 56.9,44L58.5,44C63.3,35 61.2,25.9 58.8,20.2Z" style="fill:url(#_Linear15);fill-rule:nonzero;"/>
                <path d="M2.2,32.1C2.2,15.7 15.5,2.2 32,2.2C48.5,2.2 61.8,15.6 61.8,32.1C61.8,48.5 48.5,61.8 32,61.8C15.5,61.8 2.2,48.5 2.2,32.1ZM11.5,11.5C6.2,16.8 2.9,24.1 2.9,32.1C2.9,40.1 6.2,47.4 11.4,52.6C16.7,57.8 24,61.1 32,61.1C40,61.1 47.3,57.9 52.5,52.6C57.8,47.4 61,40.1 61,32.1C61,24.1 57.7,16.8 52.5,11.5C47.3,6.2 40,2.9 32,2.9C24,2.9 16.7,6.2 11.5,11.5Z" style="fill:rgb(251,251,251);fill-rule:nonzero;"/>
                <path d="M7.9,44.8L28.3,30.1C29.4,30.7 31.2,31.5 31.4,31.5C31.6,31.6 31.6,31.4 31.6,31.4L29.1,29.3C28.8,29.1 28.7,28.8 28.7,28.5L31.1,4.4C31,4.5 31,4.7 30.9,4.8C30.8,5 30.8,5.1 30.8,5.3L27.3,29.4L8.1,44.5C8,44.6 7.9,44.7 7.9,44.8Z" style="fill:rgb(51,63,71);fill-rule:nonzero;"/>
            </g>
        </g>
    </g>
    <defs>
        <linearGradient id="_Linear1" x1="0" y1="0" x2="1" y2="0" gradientUnits="userSpaceOnUse" gradientTransform="matrix(48,40.2,-40.2,48,-20.14,45.5)"><stop offset="0" style="stop-color:white;stop-opacity:1"/><stop offset="0.1" style="stop-color:rgb(231,232,230);stop-opacity:1"/><stop offset="0.1" style="stop-color:rgb(205,208,208);stop-opacity:1"/><stop offset="0.2" style="stop-color:rgb(181,187,189);stop-opacity:1"/><stop offset="0.2" style="stop-color:rgb(165,172,175);stop-opacity:1"/><stop offset="0.3" style="stop-color:rgb(155,163,167);stop-opacity:1"/><stop offset="0.3" style="stop-color:rgb(152,160,164);stop-opacity:1"/><stop offset="0.4" style="stop-color:rgb(130,138,143);stop-opacity:1"/><stop offset="0.5" style="stop-color:rgb(102,112,117);stop-opacity:1"/><stop offset="0.6" style="stop-color:rgb(83,92,99);stop-opacity:1"/><stop offset="0.7" style="stop-color:rgb(71,81,88);stop-opacity:1"/><stop offset="0.8" style="stop-color:rgb(67,77,84);stop-opacity:1"/><stop offset="1" style="stop-color:rgb(71,81,87);stop-opacity:1"/></linearGradient>
        <linearGradient id="_Linear2" x1="0" y1="0" x2="1" y2="0" gradientUnits="userSpaceOnUse" gradientTransform="matrix(45,37.8,-37.8,45,-88.78,130.1)"><stop offset="0" style="stop-color:rgb(11,31,42);stop-opacity:1"/><stop offset="0.2" style="stop-color:rgb(51,63,71);stop-opacity:1"/><stop offset="0.5" style="stop-color:rgb(119,127,132);stop-opacity:1"/><stop offset="0.5" style="stop-color:rgb(129,137,141);stop-opacity:1"/><stop offset="0.7" style="stop-color:rgb(179,184,184);stop-opacity:1"/><stop offset="0.8" style="stop-color:rgb(210,213,211);stop-opacity:1"/><stop offset="0.8" style="stop-color:rgb(222,224,221);stop-opacity:1"/><stop offset="1" style="stop-color:rgb(251,251,251);stop-opacity:1"/></linearGradient>
        <linearGradient id="_Linear3" x1="0" y1="0" x2="1" y2="0" gradientUnits="userSpaceOnUse" gradientTransform="matrix(-21.9,-60.2,60.2,-21.9,42.973,62.107)"><stop offset="0" style="stop-color:rgb(225,227,225);stop-opacity:0.4"/><stop offset="0.1" style="stop-color:rgb(193,197,196);stop-opacity:0.4"/><stop offset="0.3" style="stop-color:rgb(155,161,162);stop-opacity:0.4"/><stop offset="0.5" style="stop-color:rgb(125,132,135);stop-opacity:0.4"/><stop offset="0.7" style="stop-color:rgb(104,112,116);stop-opacity:0"/><stop offset="0.8" style="stop-color:rgb(91,100,105);stop-opacity:0"/><stop offset="1" style="stop-color:rgb(87,96,101);stop-opacity:0"/></linearGradient>
        <linearGradient id="_Linear4" x1="0" y1="0" x2="1" y2="0" gradientUnits="userSpaceOnUse" gradientTransform="matrix(27.6,47.8,-47.8,27.6,-192.12,129.54)"><stop offset="0" style="stop-color:rgb(225,227,225);stop-opacity:0.4"/><stop offset="0.1" style="stop-color:rgb(193,197,196);stop-opacity:0.4"/><stop offset="0.3" style="stop-color:rgb(155,161,162);stop-opacity:0.4"/><stop offset="0.5" style="stop-color:rgb(125,132,135);stop-opacity:0.4"/><stop offset="0.7" style="stop-color:rgb(104,112,116);stop-opacity:0"/><stop offset="0.8" style="stop-color:rgb(91,100,105);stop-opacity:0"/><stop offset="1" style="stop-color:rgb(87,96,101);stop-opacity:0"/></linearGradient>
        <linearGradient id="_Linear5" x1="0" y1="0" x2="1" y2="0" gradientUnits="userSpaceOnUse" gradientTransform="matrix(-1.7,2.8,-2.8,-1.7,-46.944,-16.1196)"><stop offset="0" style="stop-color:rgb(39,52,60);stop-opacity:1"/><stop offset="1" style="stop-color:rgb(0,17,30);stop-opacity:0"/></linearGradient>
        <linearGradient id="_Linear6" x1="0" y1="0" x2="1" y2="0" gradientUnits="userSpaceOnUse" gradientTransform="matrix(-2.8,-4.5,4.5,-2.8,59.4,16.78)"><stop offset="0" style="stop-color:rgb(2,19,31);stop-opacity:1"/><stop offset="0.1" style="stop-color:rgb(2,19,31);stop-opacity:1"/><stop offset="0.9" style="stop-color:rgb(2,19,31);stop-opacity:0"/><stop offset="1" style="stop-color:rgb(2,19,31);stop-opacity:0"/></linearGradient>
        <linearGradient id="_Linear7" x1="0" y1="0" x2="1" y2="0" gradientUnits="userSpaceOnUse" gradientTransform="matrix(-4.2,1.2,-1.2,-4.2,-7.19029,-100.766)"><stop offset="0" style="stop-color:rgb(2,19,31);stop-opacity:0.8"/><stop offset="0.2" style="stop-color:rgb(2,19,31);stop-opacity:0.8"/><stop offset="0.9" style="stop-color:rgb(2,19,31);stop-opacity:0"/><stop offset="1" style="stop-color:rgb(2,19,31);stop-opacity:0"/></linearGradient>
        <linearGradient id="_Linear8" x1="0" y1="0" x2="1" y2="0" gradientUnits="userSpaceOnUse" gradientTransform="matrix(-0.6,-1.5,1.5,-0.6,70.3,22.1)"><stop offset="0" style="stop-color:rgb(2,19,31);stop-opacity:0.8"/><stop offset="0.1" style="stop-color:rgb(2,19,31);stop-opacity:0.8"/><stop offset="1" style="stop-color:rgb(2,19,31);stop-opacity:0"/></linearGradient>
        <linearGradient id="_Linear9" x1="0" y1="0" x2="1" y2="0" gradientUnits="userSpaceOnUse" gradientTransform="matrix(-3.4,0.4,-0.4,-3.4,34.12,4.62)"><stop offset="0" style="stop-color:rgb(2,19,31);stop-opacity:1"/><stop offset="0.3" style="stop-color:rgb(2,19,31);stop-opacity:1"/><stop offset="0.8" style="stop-color:rgb(2,19,31);stop-opacity:0"/><stop offset="1" style="stop-color:rgb(2,19,31);stop-opacity:0"/></linearGradient>
        <linearGradient id="_Linear10" x1="0" y1="0" x2="1" y2="0" gradientUnits="userSpaceOnUse" gradientTransform="matrix(-2.3,0.3,-0.3,-2.3,34.59,8.59)"><stop offset="0" style="stop-color:rgb(39,52,60);stop-opacity:1"/><stop offset="0.4" style="stop-color:rgb(39,52,60);stop-opacity:1"/><stop offset="1" style="stop-color:rgb(59,71,78);stop-opacity:0"/></linearGradient>
        <linearGradient id="_Linear11" x1="0" y1="0" x2="1" y2="0" gradientUnits="userSpaceOnUse" gradientTransform="matrix(27.9,16.1,-16.1,27.9,-322.4,590.9)"><stop offset="0" style="stop-color:rgb(36,48,58);stop-opacity:0"/><stop offset="0" style="stop-color:rgb(37,50,59);stop-opacity:0"/><stop offset="0.1" style="stop-color:rgb(39,52,60);stop-opacity:1"/><stop offset="1" style="stop-color:rgb(39,52,60);stop-opacity:1"/></linearGradient>
        <linearGradient id="_Linear12" x1="0" y1="0" x2="1" y2="0" gradientUnits="userSpaceOnUse" gradientTransform="matrix(2.93915e-16,-4.8,4.8,2.93915e-16,188.281,37.4)"><stop offset="0" style="stop-color:rgb(165,171,175);stop-opacity:1"/><stop offset="0.3" style="stop-color:rgb(165,171,175);stop-opacity:1"/><stop offset="1" style="stop-color:rgb(165,171,175);stop-opacity:0"/></linearGradient>
        <linearGradient id="_Linear13" x1="0" y1="0" x2="1" y2="0" gradientUnits="userSpaceOnUse" gradientTransform="matrix(3.73517e-15,61,-61,3.73517e-15,-92.6,2.3)"><stop offset="0" style="stop-color:rgb(222,224,221);stop-opacity:1"/><stop offset="0" style="stop-color:rgb(197,201,199);stop-opacity:1"/><stop offset="0" style="stop-color:rgb(158,164,165);stop-opacity:1"/><stop offset="0" style="stop-color:rgb(130,137,140);stop-opacity:1"/><stop offset="0" style="stop-color:rgb(113,121,125);stop-opacity:1"/><stop offset="0" style="stop-color:rgb(107,115,120);stop-opacity:1"/><stop offset="0.2" style="stop-color:rgb(51,63,71);stop-opacity:1"/><stop offset="0.5" style="stop-color:rgb(39,52,60);stop-opacity:1"/><stop offset="0.8" style="stop-color:rgb(51,63,71);stop-opacity:1"/><stop offset="1" style="stop-color:rgb(67,77,84);stop-opacity:1"/></linearGradient>
        <linearGradient id="_Linear14" x1="0" y1="0" x2="1" y2="0" gradientUnits="userSpaceOnUse" gradientTransform="matrix(2e-06,0,0,2e-06,32.1,0.700001)"><stop offset="0" style="stop-color:rgb(222,224,221);stop-opacity:1"/><stop offset="0" style="stop-color:rgb(197,201,199);stop-opacity:1"/><stop offset="0" style="stop-color:rgb(158,164,165);stop-opacity:1"/><stop offset="0" style="stop-color:rgb(130,137,140);stop-opacity:1"/><stop offset="0" style="stop-color:rgb(113,121,125);stop-opacity:1"/><stop offset="0" style="stop-color:rgb(107,115,120);stop-opacity:1"/><stop offset="0.2" style="stop-color:rgb(51,63,71);stop-opacity:1"/><stop offset="0.5" style="stop-color:rgb(39,52,60);stop-opacity:1"/><stop offset="0.8" style="stop-color:rgb(51,63,71);stop-opacity:1"/><stop offset="1" style="stop-color:rgb(67,77,84);stop-opacity:1"/></linearGradient>
        <linearGradient id="_Linear15" x1="0" y1="0" x2="1" y2="0" gradientUnits="userSpaceOnUse" gradientTransform="matrix(-13.5,19.8,-19.8,-13.5,-4.08,-33.75)"><stop offset="0" style="stop-color:rgb(39,52,60);stop-opacity:1"/><stop offset="0.7" style="stop-color:rgb(43,55,63);stop-opacity:1"/><stop offset="0.7" style="stop-color:rgb(54,66,74);stop-opacity:1"/><stop offset="0.7" style="stop-color:rgb(73,84,91);stop-opacity:1"/><stop offset="0.8" style="stop-color:rgb(100,109,115);stop-opacity:0"/><stop offset="0.8" style="stop-color:rgb(134,141,146);stop-opacity:0"/><stop offset="0.8" style="stop-color:rgb(176,181,184);stop-opacity:0"/><stop offset="0.8" style="stop-color:rgb(225,227,228);stop-opacity:0"/><stop offset="1" style="stop-color:white;stop-opacity:0"/></linearGradient>
    </defs>
</svg>
