<?xml version="1.0" encoding="UTF-8" standalone="no"?>
<!DOCTYPE svg PUBLIC "-//W3C//DTD SVG 1.1//EN" "http://www.w3.org/Graphics/SVG/1.1/DTD/svg11.dtd">
<svg width="100%" height="100%" viewBox="0 0 1000 1000" version="1.1" xmlns="http://www.w3.org/2000/svg" xmlns:xlink="http://www.w3.org/1999/xlink" xml:space="preserve" xmlns:serif="http://www.serif.com/" style="fill-rule:evenodd;clip-rule:evenodd;stroke-linejoin:round;stroke-miterlimit:2;">
    <g transform="matrix(2.8204,0,0,2.8204,-946.731,60.3)">
        <path d="M404,184.2C403.2,184.7 402.4,185.1 401.6,185.6L401.6,164.1C403.3,162.4 404.8,160.6 406.2,158.8C413.3,149.3 412.5,134.5 404.6,125.8C403.7,124.8 402.7,123.9 401.6,123L401.6,8.6L471.7,8.6C503.6,8.6 529.5,34 529.5,65.3C529.5,92 510.8,114.3 485.5,120.4L499.6,140.4C499.3,140.7 499,140.9 498.8,141.2C486.9,141.3 477.5,144.7 468.5,152L468.2,152.2L468,152.4C466.8,153.5 465.7,154.5 464.5,155.5L453,137.7L453,91.8L462.5,91.8C477.6,91.8 489.8,80.6 489.8,66.7C489.8,52.8 478.4,41.6 463.3,41.6L442.5,41.6L442.5,163.6C440.7,163.9 439,164.2 436.2,164.9C426.6,167.1 417.9,173.9 410.9,179.3C407.1,182.3 406,183 405.7,183.2C405.1,183.5 404.5,183.9 404,184.2M555.2,110.5L555.6,110.3L556.1,110.1C561,108 566.7,106.9 572.6,106.9C576.9,106.9 581.2,107.6 584.9,108.8L584.9,41.6L610.5,41.6C621.7,41.6 630.8,51.9 630.8,63.1C630.8,74.3 621.7,83.4 610.5,83.4L597.2,83.4L597.2,114.5C598.2,115.2 599.3,115.9 600.6,116.8L601,117.1L602,117.9L621.7,117.9C635.3,117.9 645.6,128.9 645.6,142.5C645.4,147.2 644.3,151.4 642.4,155C648.1,161.9 655.2,171.1 659.4,177.9L659.6,178.2C661.4,181.3 663.1,185.4 664.2,189.1C678.3,179 687.4,163.2 687.4,145.5C687.4,123.6 679.7,108.1 653.9,96.1C664.4,86.3 670.8,73.2 670.8,58.8C670.8,45.7 665.8,33.7 657,24.3C647.9,14.2 631.7,8.6 609.8,8.6L544,8.6L544,117.3C545.1,116.6 546.3,115.9 547.5,115.1C549.9,113.6 552.4,111.9 555.2,110.5M533.2,272.4C534.3,274.8 535.3,277 536.4,277.3C536.9,277.4 537.4,277.5 538,277.5C540.5,277.5 544.1,276.1 546.6,274.1C548,272.9 547.6,272.1 546.9,271C546.7,270.7 546.5,270.3 546.2,269.8C545.5,268.5 545.1,267.1 544.8,265.9C544.1,263.4 543.5,261.3 540.9,261.7C537.1,262.2 533.5,262.5 529.4,262.5C529.3,262.5 528.1,262.5 527.7,263.4C527.2,264.4 528.3,265.4 529.4,266.4C530,267 530.7,267.6 531.1,268.2C531.7,269.3 532.5,270.9 533.2,272.4M344.2,280.7C344.1,280.7 343.9,280.7 343.8,280.8C341.6,281.7 339.1,284.5 339,286.2C338.5,293.5 338.2,294.3 336.3,296.5C335.7,297.1 335.4,298.6 336,299.2C336.6,299.8 343.7,302 344.5,302L344.7,302C345.3,301.8 345.9,300.2 347.3,295.1C348.1,292.4 349,289.3 350,286.5C350.1,286.3 350.1,286.1 349.4,285.1C348.6,283.9 345.8,280.7 344.2,280.7M690.2,270.4C690.1,271.1 689.6,271.6 688.8,271.7C687.9,271.9 687,272 686,272C678.7,272 671,266.2 668,260.8C664,253.5 660.7,249.2 654.8,247.1C655.4,248.3 656.1,249.4 656.9,250.5C657.4,251.1 657.8,251.8 658.2,252.4C660.1,255.6 662.8,260.3 664.2,265C665.5,269.4 670.2,272.7 674.5,275.4L679.9,278.3C681,278.8 681.6,279.6 681.5,280.3C681.4,280.9 681.2,281.4 680.2,281.7L679.2,281.8L678.1,281.8C668.4,281.8 660.6,278.5 654.3,271.7C652.4,269.6 650.5,268.5 648.6,268.5C644.3,272.3 639.9,276.1 634,276.5C626.7,275.3 620.6,275.7 616,277.7C615.2,278 614.5,278.2 613.7,278.5C609.5,280 605.2,281.6 600.4,281.8C597.8,281.8 594.5,280.5 593.6,277.9C593.3,276.8 593.4,275.8 593,274.5C592.4,272.2 591.9,269.8 593.2,267.6L596.8,262.2C596.8,261.7 596.4,261.3 595.9,261.2C595.4,261.1 594.8,261.4 594.2,261.6C593.6,261.8 593.1,262.1 592.6,262.1C591,262 591.1,260.5 591.1,260.5C591.3,256.3 594.7,253 597.9,250.1C598.8,249.3 599.7,248.5 600.5,247.6C601.4,243 603.2,239.2 606.1,235.9C606,235.6 605.8,235.3 605.4,235.1C604.3,235.3 603.2,235.5 602.1,235.7C598.6,236.4 595,237 591.2,237C586.2,239.6 579.3,240.4 577.4,239.1C577.4,239.1 576.6,238.5 576.5,237.8C576.4,237.1 576.6,236.3 576.8,235.9C581.7,229.1 583.6,220.5 582.2,212.3C582.1,211.6 581.8,211.4 581.4,211.4C580.8,211.4 580.6,212.1 580.5,212.5C579,221.1 576.6,227.4 572.7,233.4C571.4,235.4 567.8,236.2 564.3,236.9C562.8,237.2 561.5,237.4 560,238C559.2,238.3 558.1,239.1 558.1,240.3C558,242.8 559.3,245 560.6,247L560.8,247.2C561.1,247.8 569.4,261.4 569.7,264.2C570,266.6 568.9,274 567.9,277.1C567.6,278.2 568.1,278.3 568.2,278.3C568.4,278.3 568.7,278.2 569.1,277.9C570.5,276.9 575.4,269.4 575.8,267.1C576.2,264.8 575.5,263.3 574.8,261.8L565,242.4L565.1,242.2C565.6,241.2 566.9,240.6 568.7,240.5L568.9,240.5C570.5,240.5 571.9,241 573.2,241.6C573.8,241.8 574.5,242.1 575.1,242.3L575.3,242.3L575.4,242.5C577.6,248.4 578.6,250.7 584,259.4C585.8,262.3 585.8,266 584,269.7C582,273.9 579.6,277.9 576.9,281.8C574.7,284.1 571.7,284.3 568.8,284.5C568.2,284.5 567.5,284.6 566.9,284.7L564.1,284.7C555.6,289.2 546.7,292.2 537.5,295.1C536.2,295.5 534.9,295.7 533.5,295.7C530.3,295.7 527.3,294.6 525.2,292.8C522.9,291 521.5,288.5 520.2,286.1C519.7,285.1 519.1,284.1 518.5,283.2C517.8,282.3 516.6,281.9 514.9,281.9C514.3,281.9 513.7,281.9 513.2,282C512.7,282 512.2,282.1 511.7,282.1C510.9,282.1 509.8,282 509.3,281.2L508.4,279.7C506.4,276.3 504.4,273 502.4,269.5C501.9,268.7 501.9,267.7 502.2,267C502.5,266.3 503.1,265.9 503.9,265.7C507.7,264.9 511,264.2 514.5,263.9C518.1,263.6 520.8,264.5 522.9,266.9C524.5,268.7 525.7,270.8 526.9,272.8C529.1,276.5 528.7,277.6 532.2,280.8C532.3,280.9 534.2,282.3 536.4,282.5C539.7,282.7 545.3,280.5 548.8,278.8C551,277.5 554,275.3 554,272.2C553.6,265.4 548.5,260.5 544.3,257.5C537.7,254.1 532.4,249.9 529,245.6C527.4,243.4 526.6,240.7 525.9,238.2C525.7,237.6 525.6,237 525.4,236.4C525.3,236 524.9,235.9 524.6,235.9C524.3,235.9 523.9,236 523.7,236.2C522,237.7 523,240.8 523.7,242.9C523.8,243.2 524.1,244.1 524.1,244.1C524.6,245.7 524.9,246.9 523.9,247.8C522.4,249 520.4,249.6 517.6,249.6C516.4,249.6 515.2,249.5 514,249.4C513.3,249.3 512.7,249.3 512.1,249.3C508.7,249.1 505.4,248.5 502.3,247.8C498.7,247.1 494.9,246.3 491,246.3C490.1,246.3 489.3,246.3 488.5,246.4C486.5,246.5 484.2,246.9 481.8,247.2C478.7,247.7 475.4,248.2 472.5,248.2C467.6,248.2 464.5,246.7 463.1,243.6C460,235.8 461.6,226.5 462.9,219.7C462.9,219 462,218.7 461.6,218.6C461.4,218.5 461.3,218.5 461.2,218.5C460.8,218.5 460.4,218.7 460.2,219.2C459.3,222.5 458.8,226 458.3,229.5C457.7,233.8 457,238.3 455.6,242.5C453.5,248.9 448.2,257 441,260.6C435.4,263.5 429,265 420.1,265.6C408.1,265.8 393.3,267.6 384.6,280C384,281.1 383.9,281.4 383.7,282.3C383.6,282.7 383.6,283.1 383.8,283.3C384.1,283.7 384.7,283.6 385.1,283.2C393.3,274 404.5,269.3 418.4,269.3L420.7,269.3C431.9,269.3 445.9,267.8 454.5,256.1C456.6,253.7 459.8,248.4 459.8,248.4L460,248.1L464.9,251.8L464.8,252C464.8,252.1 462.7,257.4 461.4,259.8C460.1,262.4 456.5,268.8 452.4,271.1C451.4,271.6 450.2,272.3 448.9,273C446.5,274.2 443.6,275.8 440.7,277.4C438.3,278.8 435.3,279.5 432.2,279.5C430.4,279.5 428.6,279.3 426.8,278.8C423.5,278.2 419.3,277.4 415.4,277.4C412.2,277.4 409.7,277.9 407.5,278.9C405.8,280 404.1,281.5 402.5,283C401.5,284 400.4,284.9 399.4,285.8C397,287.7 392,291 386.8,290.7C385.7,290.6 384.6,290.3 383.6,290.1C382.4,289.8 381.2,289.5 380.1,289.5C378.8,289.5 377.9,289.9 377.1,290.8C375.7,292.1 374.7,293.8 373.8,295.5C372.3,298 370.8,300.6 368,301.9C366.4,302.8 364.6,303.2 362.5,303.2C360.3,303.2 358,302.7 355.9,302.2C354.2,301.8 352.7,301.5 351.1,301.4L350.7,301.4L350.8,300.8C350.9,300.1 351.1,299.5 351.2,298.8C352.1,294.4 353.1,289.9 356,286.5L356.1,286.4L356.2,286.4C358.1,286.2 360.1,285.8 361.7,284.4C363.7,282.6 365.3,280.3 366.8,277.8L366.9,277.7C367.8,277.1 368.8,276.6 369.7,276C373.5,273.8 377.4,271.5 379.8,267.7C380.6,265.9 381.5,263.8 382.3,261.8C383.6,258.4 384.8,255.5 385.8,254.4C386.4,253.8 387,253.5 387.9,253.4C388.3,253.4 388.9,253.3 389.8,253.3C391.5,253.2 393.9,253.1 396.1,252.8C397.5,252.6 404.9,250 408.6,246.6C409.6,245.6 410.1,243.9 409.6,242.4C409.5,241.9 409.1,241 408.6,239.9C407.5,237.2 405.8,233 405.1,229.6C404.8,228.1 404.6,224.4 404.5,220.6C404.4,218.2 404.3,215.8 404.1,213.6C404,212.5 403.6,212.5 403.4,212.5C403.3,212.5 403.1,212.5 402.9,212.6C398.1,213.8 393.1,215.1 387.8,215.1C386.1,215.1 384.6,215 383,214.7C374.1,213.6 363.4,207.7 359.5,197.3C356.5,189.4 356.8,177.2 363.3,170.1C368.2,164.1 374.1,159.2 379.9,154.4C381,153.5 382.2,152.5 383.3,151.6C384.5,150.6 385,149.9 384.9,148.9C384.7,147.3 383.4,146 382.1,145.6C380.7,145.2 379.1,145.2 377.8,145.2L375,145.2C372.9,145.2 370.7,145.1 368.5,144.2C368.2,144.1 367.9,144 367.6,143.9C360.9,140.8 354.8,133.3 353.9,126C353.7,122.5 354.3,119.4 356.1,116.6C360.9,119.2 365.1,123.4 370.6,124.9C372.7,125.4 374.8,125.7 377,126.2C377.3,126.3 377.9,126.3 378.3,126.4L378.9,126.5C382.3,127.3 391.5,129.6 395.6,134.1C399.7,138.6 400.1,146.9 396.5,151.8C393.4,156 388.8,159.9 384,163.9C381,166.4 378,169 375.3,171.7C369.6,177.4 367.5,184.7 369.5,191.9C371.6,198.3 378,203.1 385,203.6L385.7,203.6C395.1,203.6 402.4,199.3 410.1,194.8C410.8,194.4 411.6,193.9 412.2,193.5C413.5,192.7 416.2,190.6 418.3,189C424.5,184.1 431.9,178.4 438.8,176.8C443.4,175.7 444.2,175.7 449,175.2C452.4,174.9 455.6,174.5 458.5,173.5C464.9,171.3 470.5,166.5 476,161.5C483,155.8 489.8,153.4 499.3,153.4C503.4,153.4 504,152.9 509,148.2C510.1,147.2 511.4,146 513,144.5C518.4,139.5 525.3,137.4 532,135.3C535.4,134.2 538.9,133.2 542.2,131.7C546.4,130.3 550.3,127.8 554,125.4C556.2,124 558.5,122.5 560.8,121.3C564.2,119.8 568.3,119 572.5,119C575.8,119 579,119.5 581.7,120.5C585.9,122 587.7,122.8 593.5,126.8L622.8,151.1L623.2,151.5C623.7,152 624.4,152.6 624.9,153.2C625.8,154.1 642.1,173.1 648.9,184.2C651.1,187.9 652.9,193.6 653.1,196.3C654.4,213.4 659.6,228.8 664.4,241.8C664.6,242.3 665.6,243.2 666.7,244.2C668,245.3 669.4,246.6 670.3,247.9C671.6,249.7 672.8,251.7 673.9,253.6C676.8,258.5 679.9,263.6 685.1,266.6C685.1,266.6 687.5,267.8 689.5,268.8C690.2,269.3 690.3,269.8 690.2,270.4M583.5,163C582,160 580.5,158.1 579,157.4C578.6,157.2 578.1,157.1 577.6,157.1C576.6,157.1 575.6,157.5 575.3,158.1C574,160.2 575.2,161.7 576.5,163.5C577.1,164.4 577.8,165.3 578.4,166.5C580.2,170.1 581.1,174 582.6,181.8C582.7,182.5 583.2,182.6 583.3,182.6C583.7,182.6 584,182.2 584.2,181.7C584.3,181.6 587.3,170.7 583.5,163M632.8,254.9C631.4,254.2 629.9,254.7 629.9,254.7C625.3,255.9 623,260.7 622.7,261.2C622.7,261.2 622,262.5 622.4,263.2C622.8,263.8 623.5,264.1 625.5,264.2C627.5,264.3 631.2,263.8 632.2,262.8C633.2,261.9 633.5,259.6 633.5,259.6C633.5,259.2 634.2,255.6 632.8,254.9M646.6,222.8C646.1,220.5 644.1,216.7 642.3,214.8C640.5,212.9 639.9,211.9 639.3,210.9C638.7,209.9 639.2,210.2 637,207.5C635.1,205.2 633.4,205.4 632.9,205.4C632.9,205.4 630.9,205.3 629.4,207.5C628.8,208.3 627.4,211.7 627.4,211.7C626.7,213.4 626.1,213.9 625.5,216.4C624.9,218.8 625.1,219.8 625.4,221.1C625.6,222.4 626.3,222.5 626.8,222.2C627.3,221.9 627.3,221.6 628.9,219.5C630.3,217.7 632.1,216.6 632.8,216.6C635.6,216.3 640.4,222.6 641.4,224.8C642.3,226.8 642.5,231.6 642.5,231.6C642.5,231.8 642.4,233.6 643.9,233.6C645.2,233.6 645.7,232.6 645.9,232.2C646.1,231.8 646.6,230.9 646.9,229.1C647.1,227.1 647.2,225.1 646.6,222.8M352.2,280.5C352.8,281 353.6,281.6 354.9,281.6C355.6,281.6 356.4,281.4 357.1,281C361.2,279 365.4,271.4 365.5,271C365.9,269.8 364.5,268.7 362.8,267.3L362.6,267.1C361.8,266.5 360.4,266.6 359.5,267.2C358.8,267.6 358.2,268.1 357.5,268.5C355.4,269.9 353.2,271.3 350.9,273.3C350.1,274 349.6,275.3 349.5,276.3C349.4,277.1 349.6,277.8 349.9,278.2C350.2,278.4 351.8,280.2 352.2,280.5" style="fill:rgb(139,143,145);fill-rule:nonzero;"/>
    </g>
</svg>
