<?xml version="1.0" encoding="UTF-8" standalone="no"?>
<!DOCTYPE svg PUBLIC "-//W3C//DTD SVG 1.1//EN" "http://www.w3.org/Graphics/SVG/1.1/DTD/svg11.dtd">
<svg width="100%" height="100%" viewBox="0 0 1000 1000" version="1.1" xmlns="http://www.w3.org/2000/svg" xmlns:xlink="http://www.w3.org/1999/xlink" xml:space="preserve" xmlns:serif="http://www.serif.com/" style="fill-rule:evenodd;clip-rule:evenodd;stroke-linejoin:round;stroke-miterlimit:2;">
    <g transform="matrix(5.15158,0,0,5.15158,-1364.37,310.37)">
        <g>
            <circle cx="362.16" cy="36.81" r="36.81" style="fill:rgb(252,215,0);"/>
            <g transform="matrix(1,0,0,1,-282.5,-450.8)">
                <path d="M740.84,512.26C740.84,512.09 740.67,512.09 740.67,511.91C740.678,511.669 740.619,511.43 740.5,511.22C740.468,510.626 740.35,510.04 740.15,509.48C739.739,508.557 738.888,507.902 737.89,507.74C737.883,507.417 737.758,507.108 737.54,506.87C736.924,506.087 736.155,505.437 735.28,504.96C735.11,504.79 734.93,504.61 734.76,504.61L734.59,504.44C734.134,504.114 733.59,503.933 733.03,503.92C731.994,503.949 731.03,504.464 730.43,505.31C730.234,504.931 730.115,504.516 730.08,504.09C729.902,503.644 729.784,503.177 729.73,502.7L729.73,502.53C729.423,501.244 728.416,500.237 727.13,499.93C726.61,499.93 726.13,499.76 725.74,499.76C725.272,499.753 724.806,499.696 724.35,499.59C724.361,499.456 724.422,499.331 724.52,499.24C724.708,498.936 724.827,498.595 724.87,498.24C725.344,496.786 725.464,495.24 725.22,493.73C725.57,493.73 726.09,493.9 726.61,493.9C728.096,493.863 729.564,493.568 730.95,493.03C733.999,491.636 735.96,488.573 735.95,485.22L735.95,485C735.6,481.87 733.87,478.92 730.57,476C731.487,475.818 732.367,475.48 733.17,475C735.6,473.44 736.64,470.49 735.95,467.19L735.95,467.02C735.827,465.96 734.936,465.142 733.87,465.11C733.357,465.099 732.859,465.285 732.48,465.63L731.79,466.32C731.146,466.679 730.441,466.913 729.71,467.01C729.19,467.18 728.49,467.36 727.8,467.53C724.8,468.53 722.94,470.13 722.24,472.22C721.72,473.44 722.07,475 722.76,476.56L722.76,476.73C723.672,478.105 724.784,479.335 726.06,480.38C727.62,481.94 729.19,483.38 729.53,485.07C729.53,485.42 729.7,485.94 728.66,486.81C728.168,487.027 727.638,487.146 727.1,487.16C726.14,487.096 725.199,486.862 724.32,486.47C723.1,485.78 721.72,484.91 720.5,484.04C718.46,482.555 716.243,481.329 713.9,480.39C712.79,479.938 711.622,479.645 710.43,479.52C709.202,479.355 708.021,478.939 706.96,478.3L706.79,478.13C706.344,477.899 705.933,477.607 705.57,477.26C704.342,476.239 702.925,475.471 701.4,475C700.836,474.816 700.252,474.699 699.66,474.65C698.97,474.48 698.66,474.48 698.44,474.3C698.09,474.13 697.92,473.95 697.57,473.78C696.481,472.927 695.32,472.171 694.1,471.52C692.052,470.568 689.897,469.87 687.68,469.44C687.51,469.44 687.33,469.09 686.99,468.75C686.572,468.243 686.107,467.778 685.6,467.36C683.894,465.775 681.676,464.852 679.35,464.76L678.66,464.76C677.236,465.036 675.915,465.696 674.84,466.67C672.93,468.41 670.84,469.8 668.76,471.36C665.416,473.618 662.331,476.237 659.56,479.17C656.56,482.3 655.56,486.11 654.56,489.41C654.362,489.908 654.243,490.435 654.21,490.97C654.04,491.84 653.69,492.88 653.52,493.75C652.3,498.44 651.26,502.95 646.92,505.75C646.264,506.235 645.889,507.015 645.92,507.83C646.064,508.646 646.577,509.352 647.31,509.74C647.846,509.956 648.424,510.045 649,510C648.986,510.463 649.176,510.909 649.52,511.22C649.996,511.778 650.696,512.097 651.43,512.09C654.43,512.09 656.64,510.35 658.37,508.62C659.123,509.284 660.025,509.758 661,510L661.69,510C662.673,509.77 663.688,509.712 664.69,509.83C665.56,510.18 666.43,510.52 667.47,510.83C668.16,511 668.86,511.35 669.55,511.52L669.9,511.69L670.25,511.69C671.753,511.55 673.074,510.624 673.72,509.26L673.72,509C673.72,508.83 673.89,508.65 673.89,508.48L674.06,508.83C674.212,509.756 674.552,510.641 675.06,511.43C675.617,512.095 676.453,512.465 677.32,512.43L678.32,512.43L678.49,512.6C678.976,513.127 679.569,513.543 680.23,513.82C681.015,514.13 681.829,514.361 682.66,514.51C683.682,514.717 684.686,515.008 685.66,515.38L685.83,515.38C686.562,515.635 687.32,515.81 688.09,515.9C689.103,515.891 690.083,515.538 690.87,514.9C691.746,514.195 692.359,513.216 692.61,512.12C692.8,512.144 692.991,512.082 693.13,511.95C694.52,511.43 695.73,508.95 695.73,508.95C695.9,508.78 695.9,508.6 696.08,508.43C696.406,507.974 696.587,507.43 696.6,506.87C696.533,505.625 695.576,504.597 694.34,504.44L690.87,504.44C690.57,504.412 690.268,504.471 690,504.61C689.83,504.44 689.65,503.92 689.31,503.74L691.57,503.74C693.083,503.662 694.589,503.489 696.08,503.22C697.348,503.073 698.624,503.016 699.9,503.05L700.25,503.05C700.835,503.028 701.42,503.085 701.99,503.22C702.51,503.22 703.21,503.39 703.9,503.39L704.59,503.39C705.239,503.358 705.882,503.24 706.5,503.04C706.5,503.39 706.67,503.73 706.67,504.26L706.84,504.61C707.212,506.712 708.398,508.585 710.14,509.82L710.49,509.99C711.591,510.747 712.832,511.278 714.14,511.55L716,511.55C718.321,511.103 720.725,511.671 722.6,513.11L723.29,513.8C723.831,514.239 724.403,514.64 725,515C725.498,515.198 726.025,515.317 726.56,515.35C727.286,515.35 728,515.172 728.64,514.83C728.64,515 728.81,515 728.81,515.18C729.161,515.741 729.57,516.264 730.03,516.74C730.925,517.567 732.112,518.006 733.33,517.96L735.59,517.96C735.94,517.96 736.11,517.96 736.11,517.79C736.472,518.027 736.897,518.149 737.33,518.14L737.85,518.14L739.93,517.45C740.507,517.195 740.992,516.769 741.32,516.23C741.67,513.8 741.32,512.93 740.8,512.23L740.84,512.26ZM674.69,501.84L674.52,501.67C674.52,501.5 674.35,501.5 674.35,501.32C674.092,500.93 673.861,500.522 673.66,500.1C674.35,500.1 674.88,500.27 675.57,500.27L674.69,501.84ZM643.44,504.62L642.44,504.1C641.473,503.369 640.698,502.415 640.18,501.32L639.18,499.76C638.819,499.311 638.409,498.901 637.96,498.54L637.79,498.37C636.377,494.806 635.442,491.07 635.01,487.26C634.838,485.843 634.364,484.479 633.62,483.26C631.617,480.276 629.412,477.433 627.02,474.75L626.33,474.06L618.52,467.64L618.35,467.47C617.309,466.642 616.136,465.996 614.88,465.56C612.672,464.832 610.279,464.892 608.11,465.73L607.94,465.73C607.243,466.033 606.598,466.445 606.03,466.95C605.199,467.583 604.255,468.055 603.25,468.34L602.9,468.34C602.131,468.734 601.314,469.026 600.47,469.21C598.366,469.667 596.401,470.62 594.74,471.99L593.74,472.99C593.39,473.34 592.87,473.68 592.74,473.86L592.39,473.86C589.714,473.737 587.094,474.672 585.1,476.46C583.941,477.615 582.587,478.556 581.1,479.24C580.43,479.469 579.728,479.588 579.02,479.59C578.077,479.663 577.145,479.837 576.24,480.11C573.98,480.63 571.9,482.37 570.16,483.58C569.731,483.958 569.265,484.293 568.77,484.58C568.6,484.75 568.42,484.75 568.25,484.93C566.34,485.93 564.78,487.01 562.69,487.01L562.52,487.01C561.476,486.859 560.569,486.209 560.09,485.27C559.739,484.019 560.127,482.672 561.09,481.8C561.762,481.073 562.521,480.431 563.35,479.89C564.633,478.867 565.797,477.703 566.82,476.42C568.355,474.323 568.208,471.412 566.47,469.48C565.25,468.09 563,467.4 561.26,466.88L560.57,466.88C560.38,466.904 560.189,466.842 560.05,466.71C559.7,466.71 559.36,466.54 559.05,466.54C558.351,466.343 557.7,466.003 557.14,465.54L555.58,464.54L554.19,463.85L553.32,465.24C552.589,466.307 552.279,467.608 552.45,468.89L552.45,469C552.93,471.667 554.682,473.939 557.14,475.08C559.57,476.08 557.31,475.08 557.31,475.25C557.808,475.448 558.335,475.567 558.87,475.6C557.526,476.683 556.303,477.906 555.22,479.25C552.96,481.68 552.96,485.5 553.83,488.1C555.112,491.277 558.061,493.489 561.47,493.83C561.99,493.83 562.47,494 563.03,494C563.906,493.969 564.777,493.851 565.63,493.65C565.63,494.87 565.8,495.73 565.8,496.25C566.028,497.324 566.363,498.373 566.8,499.38C566.203,499.75 565.561,500.042 564.89,500.25C564.37,500.25 563.89,500.42 563.5,500.42L562.81,500.42C562.227,500.467 561.677,500.711 561.25,501.11C560.643,501.892 560.173,502.771 559.86,503.71C559.716,504.184 559.542,504.648 559.34,505.1C559.17,505.27 558.99,505.62 558.82,505.79C558.507,505.299 558.091,504.883 557.6,504.57C556.734,503.852 555.466,503.852 554.6,504.57C554.43,504.74 554.25,504.74 554.25,504.92L554,504.92C553.48,505.27 552.78,505.79 552.09,506.31C551.605,506.694 551.292,507.256 551.22,507.87C551.03,507.846 550.839,507.908 550.7,508.04C549.489,508.634 548.599,509.732 548.27,511.04C548.27,511.56 548.1,512.26 548.1,512.6L547.93,512.77C547.151,513.662 547.151,515.008 547.93,515.9C548.969,516.584 550.161,517.003 551.4,517.12L552.09,517.12C552.222,517.103 552.345,517.043 552.44,516.95L553,516.95C553.35,516.95 553.69,517.12 554,517.12C554.677,517.32 555.375,517.438 556.08,517.47C556.864,517.484 557.64,517.305 558.34,516.95C559.348,516.421 560.145,515.563 560.6,514.52C560.77,514.35 560.77,514 560.95,513.83L561.12,513.83C561.507,513.985 561.926,514.043 562.34,514C564.006,513.998 565.614,513.377 566.85,512.26C567.2,511.91 567.54,511.74 567.72,511.39C568.07,511.04 568.41,510.87 568.59,510.52C568.977,510.365 569.396,510.307 569.81,510.35C570.686,510.381 571.557,510.499 572.41,510.7C574.043,511.065 575.751,510.882 577.27,510.18C577.985,509.811 578.679,509.404 579.35,508.96L579.52,508.96C579.832,508.826 580.125,508.652 580.39,508.44C581.78,507.75 582.82,506.01 583.52,504.79C583.897,504.136 584.189,503.437 584.39,502.71L584.74,502.71C585.675,502.679 586.606,502.562 587.52,502.36C588.029,502.227 588.554,502.17 589.08,502.19L589.6,502.19C590.47,502.19 591.68,502.36 592.6,502.36C593.29,502.36 593.82,502.53 594.86,502.53L596.42,502.53C597.309,502.554 598.192,502.372 599,502C599.17,502.17 599.52,502.69 599.69,502.87L599.52,502.87C598.883,502.914 598.274,503.155 597.78,503.56C597.012,503.232 596.156,503.172 595.35,503.39C594.327,503.388 593.312,503.564 592.35,503.91C591.618,504.039 590.981,504.486 590.61,505.13C590.229,505.852 590.295,506.733 590.78,507.39C591.3,508.26 591.78,509.13 592.34,510.17L592.51,510.52C592.98,511.194 593.77,511.573 594.59,511.52L595.11,511.52C595.11,511.613 595.187,511.69 595.28,511.69C595.688,512.561 596.282,513.333 597.02,513.95C597.956,514.708 599.116,515.137 600.32,515.17C600.846,515.199 601.373,515.142 601.88,515C604.257,514.315 606.578,513.446 608.82,512.4L609.82,512.4C611.038,512.446 612.225,512.007 613.12,511.18L613.29,511.01L613.29,510.84C613.64,510.32 614.16,509.62 614.51,509.1L614.51,509.27C615.058,510.688 616.461,511.602 617.98,511.53C619.37,511.487 620.734,511.146 621.98,510.53C622.15,510.53 622.33,510.36 622.5,510.36L622.67,510.36C623.9,509.936 625.227,509.877 626.49,510.19L626.84,510.19C628.314,510.012 629.705,509.407 630.84,508.45C632.764,510.517 635.487,511.659 638.31,511.58L639.31,511.58C640.238,511.384 640.942,510.612 641.05,509.67L641.05,509.15C641.24,509.174 641.431,509.112 641.57,508.98C642.497,508.782 643.199,508.011 643.31,507.07C644.53,505.85 644.18,504.99 643.31,504.64L643.44,504.62ZM617.44,499.62C617.345,499.713 617.222,499.773 617.09,499.79C616.527,500.33 616.006,500.912 615.53,501.53C615.265,501.085 615.034,500.62 614.84,500.14C615.621,500.015 616.382,499.783 617.1,499.45C617.45,499.62 617.45,499.45 617.45,499.62L617.44,499.62Z" style="fill:rgb(252,215,0);fill-rule:nonzero;"/>
            </g>
            <g transform="matrix(1,0,0,1,-282.5,-450.8)">
                <path d="M551.77,509.14C551.112,509.355 550.595,509.872 550.38,510.53C550.21,512.44 550.21,512.61 549.69,513.31C549.521,513.508 549.521,513.802 549.69,514C550.417,514.309 551.174,514.54 551.95,514.69C552.12,514.69 552.3,514.17 552.64,512.95C552.81,512.26 553.16,511.39 553.33,510.69C553.319,510.556 553.258,510.431 553.16,510.34C552.81,509.99 552.29,509.12 551.77,509.12L551.77,509.14ZM554.03,509.14C554.195,509.354 554.449,509.483 554.72,509.49C554.91,509.514 555.101,509.452 555.24,509.32C556.24,508.8 557.32,506.89 557.5,506.72C557.67,506.37 557.33,506.03 556.81,505.72C556.548,505.541 556.202,505.541 555.94,505.72C555.77,505.89 555.59,505.89 555.42,506.07C554.9,506.42 554.42,506.76 553.68,507.29C553.462,507.528 553.337,507.837 553.33,508.16C553.306,508.35 553.368,508.541 553.5,508.68C553.632,508.819 553.85,509.2 554.02,509.2L554.03,509.14ZM642.57,506.14C642.191,505.908 641.78,505.732 641.35,505.62C640.039,504.774 638.997,503.57 638.35,502.15C637.995,501.669 637.702,501.145 637.48,500.59C637.24,500.216 636.947,499.88 636.61,499.59C636.26,499.42 636.09,499.07 635.92,498.9C634.391,495.051 633.382,491.016 632.92,486.9C632.799,485.8 632.459,484.736 631.92,483.77C630.18,480.77 625.84,475.96 625.67,475.61L624.98,474.92L617.34,468.5C616.349,467.83 615.302,467.248 614.21,466.76C613.417,466.546 612.601,466.429 611.78,466.41C610.714,466.398 609.655,466.574 608.65,466.93C608.049,467.225 607.467,467.559 606.91,467.93C605.941,468.587 604.888,469.112 603.78,469.49C602.941,469.857 602.071,470.148 601.18,470.36C599.35,470.778 597.639,471.609 596.18,472.79L595.18,473.79C593.79,475.01 593.79,475.18 592.58,475.18C590.37,475.122 588.211,475.86 586.5,477.26C585.214,478.669 583.604,479.744 581.81,480.39C581.025,480.664 580.208,480.838 579.38,480.91C578.16,481.08 577.99,481.08 576.78,481.26C574.87,481.61 572.96,483.17 571.4,484.39C570.88,484.74 570.18,485.39 569.84,485.61C569.67,485.78 569.49,485.78 569.32,485.96C567.24,487.18 565.32,488.22 562.9,488.22L562.73,488.22C560.883,488.101 559.29,486.854 558.73,485.09C558.203,483.149 558.806,481.068 560.29,479.71C560.98,479.02 561.85,478.32 562.55,477.63C563.731,476.675 564.834,475.629 565.85,474.5C566.839,473.077 566.77,471.158 565.68,469.81C564.68,468.59 562.21,468.07 561.34,467.9L560.82,467.9C560.3,467.73 559.82,467.73 559.08,467.55C557.69,467.2 556.48,465.99 555.26,465.29C554.744,465.986 554.554,466.873 554.74,467.72C554.91,469.63 556.65,471.54 558.39,472.41C558.483,472.41 558.56,472.487 558.56,472.58C559.12,472.78 559.706,472.898 560.3,472.93L561,472.93C561.342,472.908 561.684,472.966 562,473.1C562.35,473.27 562.69,473.45 562.69,473.97C562.725,474.249 562.586,474.523 562.34,474.66C561.99,474.83 561.82,475.18 561.47,475.35C559.859,476.558 558.401,477.958 557.13,479.52C555.39,481.43 555.39,484.52 556.13,486.64C557.186,489.205 559.613,490.957 562.38,491.15C562.73,491.15 563.25,491.32 563.6,491.32C564.957,491.26 566.301,491.028 567.6,490.63L567.77,490.63C567.77,490.63 567.94,490.63 567.94,490.98C567.918,491.621 567.975,492.263 568.11,492.89C568.11,493.89 568.28,494.8 568.28,495.32C568.45,496.19 568.97,497.23 569.15,498.1C569.269,498.31 569.328,498.549 569.32,498.79C569.458,499.163 569.311,499.585 568.97,499.79C567.991,500.534 566.867,501.066 565.67,501.35C565.15,501.35 564.45,501.52 564.11,501.52L563.59,501.52C563.42,501.52 563.24,501.69 563.07,501.69C562.681,502.277 562.387,502.921 562.2,503.6C562.043,504.149 561.811,504.674 561.51,505.16C560.814,506.09 559.927,506.86 558.91,507.42C558.74,507.59 558.39,507.77 558.22,507.94C557.855,508.592 557.386,509.18 556.83,509.68C556.451,510.025 555.953,510.211 555.44,510.2C554.754,511.175 554.333,512.313 554.22,513.5C554.244,513.69 554.182,513.881 554.05,514.02L554.05,514.19L554.22,514.19C554.57,514.19 555.09,514.36 555.44,514.36C556.008,514.503 556.595,514.56 557.18,514.53C557.663,514.518 558.138,514.398 558.57,514.18C559.26,513.778 559.806,513.169 560.13,512.44C560.361,511.994 560.653,511.583 561,511.22C561.238,511.002 561.547,510.877 561.87,510.87C562.17,510.842 562.472,510.901 562.74,511.04C563.09,511.04 563.26,511.21 563.61,511.21C564.793,511.079 565.926,510.66 566.91,509.99C567.26,509.82 567.43,509.47 567.78,509.3C568.144,508.918 568.554,508.582 569,508.3C569.646,507.987 570.368,507.866 571.08,507.95C572.089,507.967 573.094,508.085 574.08,508.3C574.529,508.442 575,508.499 575.47,508.47C576.254,508.484 577.03,508.305 577.73,507.95C578.445,507.581 579.139,507.174 579.81,506.73C580.122,506.596 580.415,506.422 580.68,506.21C581.734,505.435 582.571,504.402 583.11,503.21C583.46,502.52 583.98,501.13 583.98,501.13L582.76,500.13L582.76,500.3C582.76,500.3 581.89,501.69 581.37,502.38C579.11,505.51 575.47,505.85 572.52,505.85L571.83,505.85C568.535,505.69 565.34,507.033 563.15,509.5C562.98,509.67 562.8,509.67 562.8,509.5L562.8,509.15C562.776,508.96 562.838,508.769 562.97,508.63C565.23,505.33 569.22,504.98 572.35,504.81C574.283,504.763 576.182,504.289 577.91,503.42C579.691,502.35 581.043,500.69 581.73,498.73C582.06,497.595 582.291,496.434 582.42,495.26C582.59,494.39 582.77,493.35 582.94,492.48C582.94,492.387 583.017,492.31 583.11,492.31L583.28,492.31C583.468,492.32 583.62,492.472 583.63,492.66C583.108,494.711 583.108,496.859 583.63,498.91C583.98,499.78 584.85,500.13 586.06,500.13C586.879,500.087 587.692,499.97 588.49,499.78C589.06,499.645 589.645,499.588 590.23,499.61L590.92,499.61C591.929,499.627 592.934,499.745 593.92,499.96C594.773,500.161 595.644,500.279 596.52,500.31L597.91,500.31C598.53,500.325 599.14,500.143 599.65,499.79C600,499.62 599.82,499.27 599.65,498.79L599.65,498.62C599.48,498.1 599.3,497.23 599.65,496.88L599.82,496.88C599.913,496.88 599.99,496.957 599.99,497.05C599.99,497.22 600.16,497.4 600.16,497.57C600.268,498.275 600.569,498.936 601.03,499.48C602.093,500.829 603.465,501.903 605.03,502.61C606.397,503.458 607.343,504.847 607.63,506.43C607.63,507.3 606.76,507.82 606.24,508.17C605.224,508.736 604.099,509.077 602.94,509.17C602.42,509.17 601.94,508.82 601.94,508.65C601.323,508.073 600.847,507.361 600.55,506.57L599.55,505.01C599,504.348 598.142,504.018 597.29,504.14C596.341,504.159 595.402,504.335 594.51,504.66C594.34,504.66 594.16,504.83 593.99,505.01C593.82,505.19 593.99,505.53 593.99,505.7L595.55,508.3L595.72,508.65C595.89,508.82 596.07,508.82 596.41,508.82L597.28,508.82C597.61,508.785 597.936,508.916 598.15,509.17C598.32,509.34 598.5,509.69 598.67,509.86C598.977,510.549 599.455,511.148 600.06,511.6C600.698,512.11 601.506,512.357 602.32,512.29C602.662,512.312 603.004,512.254 603.32,512.12C605.728,511.45 608.055,510.518 610.26,509.34L611.48,509.34C612.235,509.381 612.979,509.134 613.56,508.65C614.259,507.646 614.897,506.601 615.47,505.52C615.992,504.668 615.992,503.592 615.47,502.74C614.55,501.386 613.792,499.93 613.21,498.4C613.04,498.4 612.86,498.23 612.69,498.23C612.32,498.011 611.9,497.89 611.47,497.88C610.95,497.88 610.6,498.05 610.6,498.4L613.2,503.4C613.438,503.823 613.499,504.323 613.37,504.79C612.934,505.8 612.348,506.737 611.63,507.57C611.537,507.57 611.46,507.647 611.46,507.74C611.46,507.833 611.29,507.74 611.46,507.39C611.705,506.245 611.879,505.086 611.98,503.92C611.28,502.36 610.468,500.853 609.55,499.41C609.145,498.916 608.904,498.307 608.86,497.67C608.875,497.391 609.101,497.165 609.38,497.15C609.73,496.98 610.07,496.98 610.38,496.8C611.25,496.63 612.29,496.45 612.64,495.93C613.773,494.273 614.487,492.364 614.72,490.37C614.737,490.238 614.797,490.115 614.89,490.02C614.983,490.02 615.06,490.097 615.06,490.19C615.378,492.373 614.883,494.598 613.67,496.44C613.67,496.61 613.5,496.79 613.5,496.96C613.517,497.092 613.577,497.215 613.67,497.31C614.19,497.66 615.93,497.48 617.32,496.79C618.256,496.77 619.188,496.653 620.1,496.44C620.45,496.44 620.62,496.27 620.97,496.27C621.063,496.27 621.14,496.347 621.14,496.44C620.416,497.369 619.886,498.433 619.58,499.57L618.89,500.26C617.911,500.867 617.268,501.895 617.15,503.04L617.15,503.05C617.15,503.237 617.303,503.39 617.49,503.39L617.5,503.39C617.67,503.39 617.85,503.39 617.85,503.22C618.02,503.22 618.2,503.05 618.37,503.05C618.54,503.05 618.54,503.22 618.54,503.4L617.54,504.79C617.275,505.339 617.275,505.981 617.54,506.53C617.71,506.88 617.54,507.05 617.71,507.4C618.019,508.066 618.719,508.468 619.45,508.4C620.645,508.295 621.817,508.002 622.92,507.53C623.09,507.53 623.27,507.36 623.44,507.36C624.935,506.784 626.567,506.662 628.13,507.01C629.606,506.782 630.957,506.046 631.95,504.93C632.562,505.008 633.121,505.32 633.51,505.8C635.125,507.52 637.402,508.467 639.76,508.4L640.28,508.4C640.63,508.4 640.63,508.23 640.63,508.05C640.63,507.87 640.46,507.7 640.28,507.53L638.89,506.84C637.648,506.295 636.655,505.302 636.11,504.06C635.73,502.899 635.206,501.79 634.55,500.76C634.38,500.59 634.38,500.41 634.2,500.24C634.03,499.89 633.85,499.72 633.68,499.37C635.24,499.89 636.11,501.11 637.15,503.02C638.126,504.727 639.881,505.85 641.84,506.02L642.71,506.02C642.803,505.925 642.863,505.802 642.88,505.67C642.71,506.19 642.71,506.02 642.71,506.02L642.57,506.14ZM614.8,483.27C614.8,483.366 614.721,483.445 614.625,483.445C614.529,483.445 614.45,483.366 614.45,483.27C614.273,481.902 613.938,480.56 613.45,479.27C613.28,478.92 613.1,478.75 612.93,478.4C612.58,477.88 612.24,477.53 612.58,477.01C612.745,476.796 612.999,476.667 613.27,476.66L613.62,476.66C614.151,476.997 614.575,477.48 614.84,478.05C615.324,479.753 615.324,481.557 614.84,483.26L614.8,483.27ZM627.8,503.76C627.79,504.082 627.666,504.391 627.45,504.63C626.895,504.847 626.306,504.965 625.71,504.98C625.414,504.96 625.122,504.903 624.84,504.81C624.67,504.64 624.84,504.29 624.84,504.29C625.192,503.459 625.89,502.823 626.75,502.55C626.969,502.451 627.221,502.451 627.44,502.55C627.79,502.72 627.79,503.55 627.79,503.77L627.8,503.76ZM631.27,495.6C631.25,495.896 631.193,496.188 631.1,496.47C631.1,496.64 630.93,496.82 630.58,496.82C630.23,496.82 630.23,496.3 630.23,496.3C630.24,495.702 630.12,495.108 629.88,494.56C629.53,494.04 628.32,492.3 627.62,492.48C627.238,492.629 626.895,492.865 626.62,493.17C626.27,493.69 626.27,493.86 626.1,493.86C625.93,493.86 625.75,493.86 625.75,493.51C625.658,493.109 625.658,492.691 625.75,492.29C625.891,491.87 626.065,491.462 626.27,491.07C626.41,490.72 626.584,490.385 626.79,490.07C626.98,489.768 627.304,489.575 627.66,489.55C628.053,489.569 628.419,489.759 628.66,490.07C629.18,490.76 629.18,490.76 629.18,490.94C629.453,491.288 629.743,491.622 630.05,491.94C630.58,492.52 630.928,493.244 631.05,494.02C631.192,494.527 631.249,495.054 631.22,495.58L631.27,495.6ZM600.91,506L601.43,507C601.78,507.69 601.95,508.22 602.3,508.22L602.65,508.22C603.474,508.165 604.262,507.861 604.91,507.35C605.26,507 605.08,506.83 605.08,506.48C605.08,506.31 604.91,506.31 604.91,506.13C604.722,505.826 604.603,505.485 604.56,505.13C604.39,504.44 604.21,503.91 603.56,504.13C602.567,504.276 601.563,504.333 600.56,504.3C600.373,504.299 600.19,504.358 600.04,504.47C599.87,504.82 600.21,504.99 600.56,505.34C600.73,505.66 600.91,505.84 600.91,506ZM739.28,513C739.141,512.799 739.08,512.553 739.11,512.31C739.11,511.96 738.94,511.79 738.94,511.44C738.93,511.01 738.809,510.59 738.59,510.22C738.328,509.798 737.867,509.537 737.37,509.53C737.18,509.506 736.989,509.568 736.85,509.7C736.16,510.05 735.63,510.39 735.85,511.26C736.2,512.48 736.37,513.34 736.72,514.39C736.72,514.56 736.89,515.08 737.07,515.08L739.15,514.39C739.243,514.39 739.32,514.313 739.32,514.22C739.84,513.87 739.67,513.53 739.32,513L739.28,513ZM736.28,508C735.78,507.444 735.192,506.975 734.54,506.61C734.28,506.48 734.047,506.304 733.85,506.09L733.68,506.09C733.541,505.958 733.35,505.896 733.16,505.92C732.562,506.006 732.042,506.38 731.77,506.92C732.032,507.638 732.449,508.29 732.99,508.83L733.16,509C733.399,509.446 733.875,509.715 734.38,509.69C734.829,509.64 735.253,509.459 735.6,509.17C735.77,508.82 736.47,508.3 736.29,507.95L736.28,508ZM687.67,504.87L684.67,504.87C684.32,504.87 683.98,506.26 683.98,506.95C684.15,507.82 684.98,507.95 685.72,508.17C686.006,508.244 686.297,508.3 686.59,508.34C686.998,508.389 687.396,508.182 687.59,507.82C687.939,506.989 688.171,506.114 688.28,505.22L688.28,505C688.07,504.881 687.831,504.822 687.59,504.83L687.67,504.87ZM734.55,510.95C733.359,510.831 732.308,510.11 731.77,509.04C731.6,508.69 731.25,508.52 731.08,508.17C730.716,507.788 730.306,507.452 729.86,507.17C729.51,506.82 728.99,506.48 728.99,506.17C728.768,505.606 728.594,505.024 728.47,504.43C728.377,504.017 728.26,503.61 728.12,503.21L728.12,503.04C728.042,502.367 727.616,501.782 727,501.5C726.586,501.528 726.171,501.47 725.78,501.33C724.78,501.33 723.52,501.16 723,500.33C722.569,499.705 722.569,498.875 723,498.25C723.17,497.9 723.17,497.73 723.35,497.38C723.747,496.083 723.806,494.706 723.52,493.38C723.52,493.21 723.35,493.03 723.35,492.86C723.18,492.34 723,491.64 723.18,491.47C723.36,491.3 723.35,491.3 723.7,491.3C723.941,491.292 724.18,491.351 724.39,491.47C724.56,491.47 724.74,491.47 724.74,491.64C725.413,491.855 726.114,491.972 726.82,491.99C728.063,491.929 729.291,491.697 730.47,491.3C732.55,490.3 734.64,488 734.47,485.22C734.12,482.44 732.39,479.66 729.09,476.71L728.92,476.54C728.4,476.19 727.92,475.67 727.92,475.32C727.92,474.97 728.92,474.63 729.66,474.45C729.83,474.45 730.01,474.45 730.01,474.28L730.18,474.28C731.024,474.096 731.841,473.804 732.61,473.41C735.04,471.85 734.87,468.9 734.69,467.33L734.69,467.16C734.69,466.99 734.52,466.64 734.34,466.64L734.17,466.64L734,466.81C733.755,467.092 733.46,467.326 733.13,467.5C732.334,467.969 731.448,468.265 730.53,468.37C730.01,468.54 729.31,468.54 728.79,468.72C726.36,469.59 724.97,470.8 724.45,472.37C724.132,473.3 724.261,474.327 724.8,475.15C725.706,476.332 726.71,477.436 727.8,478.45C729.54,480.19 731.27,481.75 731.8,484.18C731.97,485.579 731.283,486.95 730.06,487.65C729.26,488.082 728.369,488.319 727.46,488.34C726.194,488.32 724.948,488.023 723.81,487.47C722.417,486.763 721.079,485.951 719.81,485.04C717.887,483.616 715.786,482.449 713.56,481.57C712.568,481.12 711.512,480.827 710.43,480.7C708.902,480.443 707.432,479.914 706.09,479.14C705.74,478.79 705.22,478.62 704.87,478.27C703.858,477.302 702.592,476.639 701.22,476.36C700.7,476.19 700.22,476.19 699.83,476.01C699.094,475.939 698.383,475.703 697.75,475.32C697.42,475.146 697.125,474.912 696.88,474.63C695.878,473.877 694.833,473.182 693.75,472.55C691.794,471.707 689.757,471.067 687.67,470.64C687.018,470.44 686.462,470.005 686.11,469.42L685.11,468.42C683.37,467.03 681.81,466.16 679.9,466.16L679.38,466.16C678.335,466.334 677.366,466.819 676.6,467.55C674.69,469.29 672.43,470.85 670.35,472.41C667.116,474.604 664.102,477.106 661.35,479.88C658.75,482.66 657.7,486.13 656.84,489.43C656.642,489.928 656.523,490.455 656.49,490.99C656.32,491.86 655.97,492.9 655.8,493.77C654.58,498.63 653.37,503.67 648.33,506.77C648.216,506.836 648.145,506.958 648.145,507.09C648.145,507.288 648.303,507.452 648.5,507.46C650.039,507.841 651.667,507.298 652.67,506.07C653.716,504.485 654.876,502.978 656.14,501.56C656.235,501.467 656.358,501.407 656.49,501.39C656.66,501.39 656.66,501.56 656.66,501.74C656.498,502.403 656.151,503.007 655.66,503.48C655.264,504.022 654.929,504.605 654.66,505.22C653.972,506.663 652.942,507.916 651.66,508.87C651.565,508.963 651.442,509.023 651.31,509.04L651.14,509.21C651.14,509.56 651.31,509.73 651.83,509.73C654.61,509.73 656.52,507.82 658.43,505.91C658.525,505.817 658.648,505.757 658.78,505.74L659.13,505.74C659.3,505.74 659.48,506.09 659.82,506.26C660.405,506.828 661.119,507.246 661.9,507.48C662.82,507.342 663.75,507.285 664.68,507.31L665.37,507.31C666.37,507.66 667.45,508 668.37,508.31C669.06,508.48 669.76,508.83 670.45,509C671.32,509 672.01,508.13 672.53,507.44C672.703,506.934 672.703,506.386 672.53,505.88C672.49,505.587 672.434,505.296 672.36,505.01C672.53,504.84 672.71,505.01 673.05,505.01L673.74,505.01C673.74,505.01 674.26,504.66 674.09,504.32C673.862,503.524 673.526,502.764 673.09,502.06C672.694,501.518 672.359,500.935 672.09,500.32C671.734,499.466 671.202,498.696 670.53,498.06C669.832,497.379 669.298,496.548 668.97,495.63L668.97,495.28C668.97,495.11 669.32,495.28 669.32,495.28C669.67,495.45 670.01,495.8 670.32,495.97C671.265,496.932 672.471,497.597 673.79,497.88C675.05,498.11 676.335,498.167 677.61,498.05C677.96,498.05 678.13,497.7 678.13,497.36C677.534,496.198 677.068,494.974 676.74,493.71C676.152,491.917 676.031,490.003 676.39,488.15C676.39,487.98 676.56,487.98 676.74,487.98C676.92,487.98 677.09,488.33 677.09,488.5L677.09,488.67C677.26,491.27 677.44,493.88 679,495.96C679.388,496.553 679.926,497.033 680.56,497.35C681.006,497.581 681.417,497.873 681.78,498.22C682.089,498.68 682.153,499.264 681.95,499.78L680.04,502.78C679.572,503.4 679.232,504.107 679.04,504.86C678.954,505.551 678.954,506.249 679.04,506.94L679.04,507.11C678.947,507.11 678.87,507.033 678.87,506.94C678.045,505.911 677.845,504.509 678.35,503.29C678.7,502.6 680.26,500.29 680.61,499.64C680.78,499.47 680.96,499.12 680.78,498.95C680.247,498.617 679.657,498.383 679.04,498.26C678.69,498.26 678.52,498.61 678.35,498.78C678.35,498.873 678.273,498.95 678.18,498.95L675.75,503.29L675.75,503.46C675.528,503.888 675.467,504.381 675.58,504.85C675.75,505.54 675.93,506.24 676.1,506.76C676.076,506.95 676.138,507.141 676.27,507.28C676.364,507.958 676.599,508.609 676.96,509.19C677.198,509.408 677.507,509.533 677.83,509.54L679.22,509.54C679.578,509.668 679.884,509.911 680.09,510.23C680.335,510.512 680.63,510.746 680.96,510.92C681.65,511.09 682.52,511.44 683.22,511.61C684.22,511.96 685.3,512.13 686.35,512.48C686.91,512.68 687.496,512.798 688.09,512.83C688.69,512.863 689.271,512.606 689.65,512.14C690.374,511.608 690.823,510.778 690.87,509.88C691.04,509.01 691.39,509.01 691.87,509.01C692.113,509.04 692.359,508.979 692.56,508.84C693.242,508.285 693.778,507.571 694.12,506.76C694.303,506.57 694.425,506.33 694.47,506.07C694.602,505.931 694.664,505.74 694.64,505.55C694.64,505.03 694.29,505.03 694.12,505.03L690.65,505.03C689.65,505.03 689.09,506.03 688.74,506.94L688.22,507.94C687.888,508.482 687.296,508.813 686.66,508.81C686.49,508.81 685.97,508.64 685.79,508.64C684.4,508.29 683.01,507.95 682.32,506.56C682.219,506.147 682.28,505.71 682.49,505.34C683.328,504.328 684.258,503.398 685.27,502.56C686.745,502.129 688.031,501.213 688.92,499.96C689.09,499.79 689.09,499.44 689.27,499.27C689.44,498.92 689.44,498.58 689.96,498.27C690.13,498.1 690.31,498.27 690.48,498.44C690.534,499.151 690.414,499.865 690.13,500.52C690.13,500.69 689.96,500.87 689.96,501.04L689.96,501.21L691,501.21C692.406,501.209 693.807,501.034 695.17,500.69C696.548,500.431 697.941,500.258 699.34,500.17L699.86,500.17C700.501,500.14 701.144,500.197 701.77,500.34C702.29,500.34 702.99,500.51 703.51,500.51L704.2,500.51C705.737,500.658 707.184,499.716 707.67,498.25C708.02,497.25 708.02,495.25 707.5,492.52L707.5,492.35C707.5,492.18 707.5,492.18 707.67,492C707.84,491.82 708.02,492 708.02,492.17C708.64,494.028 709.049,495.95 709.24,497.9C709.499,499.537 710.154,501.085 711.15,502.41C712.459,504.383 714.683,505.563 717.05,505.54C717.57,505.54 718.27,505.37 718.79,505.37L719.66,505.37C722.708,505.386 725.587,506.794 727.47,509.19L727.47,509.36C727.375,509.453 727.252,509.513 727.12,509.53L726.77,509.36C725.03,507.97 723.3,506.58 721.04,506.36C720.69,506.36 720.17,506.19 719.82,506.19C719.179,506.16 718.536,506.217 717.91,506.36C717.22,506.36 716.69,506.53 716.17,506.53C715.465,506.498 714.767,506.38 714.09,506.18C711.49,505.31 709.4,502.36 708.71,500.45C708.615,500.357 708.492,500.297 708.36,500.28L708.19,500.28C707.84,500.45 707.84,500.63 707.84,500.8C707.899,501.502 708.016,502.197 708.19,502.88C708.54,504.27 708.71,506.01 710.79,507.39C711.76,508.15 712.887,508.683 714.09,508.95L715.31,508.95C715.994,508.808 716.692,508.751 717.39,508.78C719.591,508.779 721.731,509.511 723.47,510.86C723.8,511.034 724.095,511.268 724.34,511.55C724.703,511.897 725.114,512.189 725.56,512.42C725.876,512.554 726.218,512.612 726.56,512.59C727.129,512.634 727.691,512.446 728.12,512.07C728.321,511.931 728.567,511.87 728.81,511.9C729.5,511.9 729.81,512.42 730.37,513.12C730.72,513.47 730.89,513.99 731.37,514.34C731.951,514.824 732.695,515.071 733.45,515.03L736,515.03C735.668,513.6 735.203,512.203 734.61,510.86L734.55,510.95ZM665.28,504.87C665.066,505.124 664.74,505.255 664.41,505.22C664.117,505.18 663.826,505.124 663.54,505.05C663.02,504.7 662.85,504.18 662.67,503.31C662.646,503.12 662.708,502.929 662.84,502.79L663.19,502.79C663.814,502.829 664.389,503.149 664.75,503.66C665.1,503.49 665.62,504.18 665.27,504.88L665.28,504.87ZM666.15,493.93C665.96,494.113 665.72,494.235 665.46,494.28C665.29,494.11 664.94,493.93 664.94,493.59C664.77,493.24 664.59,493.07 664.25,493.07C663.927,493.077 663.618,493.202 663.38,493.42C663.21,493.59 662.69,493.94 662.51,494.11C661.82,494.8 660.95,495.5 660.77,496.37C660.77,496.72 660.77,496.72 660.6,496.89C660.593,497.213 660.468,497.522 660.25,497.76C660.08,497.93 660.25,497.76 660.08,497.76C659.91,497.76 659.91,497.76 659.73,497.59C659.56,497.59 659.56,497.42 659.56,497.24C659.352,495.728 659.944,494.212 661.12,493.24C661.799,492.587 662.437,491.892 663.03,491.16C663.38,490.81 663.55,490.47 663.9,490.16C664.07,489.99 664.42,490.16 665.12,490.85C665.631,491.632 666.095,492.443 666.51,493.28C666.312,493.459 666.187,493.705 666.16,493.97L666.15,493.93ZM679.15,475.7L678.28,476.57C677.143,477.538 676.135,478.647 675.28,479.87C674.925,480.351 674.632,480.875 674.41,481.43L674.24,481.6L674,481.6C673.898,480.787 673.955,479.961 674.17,479.17C674.951,477.263 676.281,475.631 677.99,474.48C678.191,474.341 678.437,474.28 678.68,474.31C678.951,474.317 679.205,474.446 679.37,474.66C679.38,475.001 679.322,475.341 679.2,475.66L679.15,475.7Z" style="fill:rgb(234,28,45);fill-rule:nonzero;"/>
            </g>
        </g>
    </g>
</svg>
