<?xml version="1.0" encoding="UTF-8" standalone="no"?>
<!DOCTYPE svg PUBLIC "-//W3C//DTD SVG 1.1//EN" "http://www.w3.org/Graphics/SVG/1.1/DTD/svg11.dtd">
<svg width="100%" height="100%" viewBox="0 0 1000 1000" version="1.1" xmlns="http://www.w3.org/2000/svg" xmlns:xlink="http://www.w3.org/1999/xlink" xml:space="preserve" xmlns:serif="http://www.serif.com/" style="fill-rule:evenodd;clip-rule:evenodd;stroke-linejoin:round;stroke-miterlimit:2;">
    <g transform="matrix(7.47042,0,0,7.47042,-242.702,-258.155)">
        <path d="M63.72,151.491C62.984,151.452 62.262,151.707 61.714,152.199C61.24,152.631 60.973,153.246 60.978,153.887C60.93,154.406 61.097,154.922 61.44,155.314C62.223,155.882 63.077,156.344 63.98,156.688C65.072,157.095 66.048,157.763 66.823,158.634C67.39,159.522 67.658,160.569 67.588,161.621C67.706,163.51 66.969,165.356 65.582,166.644C64.06,167.883 62.13,168.512 60.171,168.407C59.211,168.402 58.254,168.304 57.313,168.116C56.522,167.976 55.741,167.784 54.976,167.54L54.168,167.222L54.831,164.364C56.52,164.696 58.233,164.889 59.954,164.94C60.909,165.013 61.863,164.787 62.683,164.292C63.31,163.74 63.633,162.916 63.548,162.085C63.579,161.603 63.393,161.131 63.043,160.799C62.275,160.258 61.447,159.808 60.575,159.458C59.501,159.031 58.542,158.358 57.775,157.494C57.169,156.626 56.874,155.578 56.938,154.522C56.881,152.798 57.54,151.124 58.757,149.901C60.055,148.656 61.809,147.998 63.606,148.084C64.579,148.089 65.55,148.182 66.506,148.36C67.291,148.489 68.067,148.668 68.83,148.894L69.638,149.182L68.917,152.01C67.2,151.704 65.461,151.53 63.717,151.491M66.673,168.057L75.506,148.43L82.376,148.43L81.77,168.057L77.786,168.057L77.901,164.65L72.185,164.65L70.656,168.057L66.673,168.057ZM77.848,151.897L73.692,161.19L78.048,161.19L78.448,151.897L77.848,151.897ZM87.941,161.391C87.777,162.038 87.69,162.702 87.68,163.37C87.63,163.857 87.86,164.333 88.272,164.597C88.927,164.877 89.64,164.996 90.35,164.942C91.173,165.004 91.986,164.716 92.587,164.15C93.213,163.348 93.62,162.397 93.77,161.391L96.77,148.434L100.754,148.434L97.754,161.391C97.428,163.418 96.474,165.292 95.027,166.747C93.623,167.904 91.836,168.496 90.019,168.408C85.824,168.408 83.726,166.926 83.726,163.961C83.736,162.884 83.861,161.811 84.101,160.761L86.959,148.436L90.943,148.436L87.941,161.391ZM110.239,148.434C113.664,148.434 115.376,149.848 115.377,152.677C115.421,153.763 115.14,154.838 114.569,155.763C113.932,156.665 113.104,157.416 112.145,157.963C112.774,158.288 113.296,158.789 113.645,159.405C113.914,160.024 114.042,160.695 114.02,161.369C114.068,163.179 113.337,164.925 112.014,166.161C110.426,167.518 108.369,168.2 106.285,168.061L98.894,168.061L103.426,148.434L110.239,148.434ZM108.045,159.834L104.786,159.834L103.66,164.653L107.06,164.653C107.852,164.686 108.618,164.357 109.14,163.76C109.676,163.113 109.953,162.29 109.918,161.451C109.918,160.371 109.293,159.835 108.042,159.835M109.601,151.835L106.628,151.835L105.528,156.513L108.501,156.513C109.256,156.527 109.981,156.216 110.492,155.661C111.039,155.07 111.33,154.286 111.3,153.481C111.308,153.42 111.312,153.358 111.312,153.297C111.312,152.485 110.643,151.817 109.832,151.817C109.754,151.817 109.677,151.823 109.6,151.835M114.575,168.057L119.075,148.43L130.592,148.43L129.784,151.894L122.285,151.894L121.218,156.512L127.164,156.512L126.356,159.976L120.438,159.976L119.375,164.597L126.909,164.597L126.129,168.061L114.575,168.057ZM138.329,148.434C139.967,148.299 141.6,148.766 142.919,149.747C143.986,150.848 144.524,152.36 144.391,153.888C144.45,155.553 144.018,157.199 143.15,158.62C142.411,159.817 141.308,160.748 140.004,161.277L141.59,168.06L137.608,168.06L136.308,161.826L133.567,161.826L132.123,168.06L128.139,168.06L132.671,148.433L138.329,148.434ZM139.383,157.178C139.976,156.388 140.295,155.425 140.292,154.437C140.368,153.718 140.195,152.993 139.802,152.386C139.339,151.971 138.721,151.771 138.102,151.837L135.875,151.837L134.344,158.419L136.914,158.419C137.893,158.449 138.823,157.981 139.382,157.177" style="fill-rule:nonzero;"/>
        <path d="M55.687,34.557L89.056,34.557L89.056,56.803L100.179,56.803L100.179,45.68L111.3,45.68L111.3,34.557L144.67,34.557L144.67,67.926L133.547,67.926L133.547,79.049L122.424,79.049L122.424,90.172L133.547,90.172L133.547,101.297L144.67,101.297L144.67,134.665L111.3,134.665L111.3,123.54L100.178,123.54L100.178,112.417L89.055,112.417L89.055,134.663L55.687,134.663L55.687,34.557Z" style="fill:rgb(0,231,1);"/>
    </g>
</svg>
