<?xml version="1.0" encoding="UTF-8" standalone="no"?>
<!DOCTYPE svg PUBLIC "-//W3C//DTD SVG 1.1//EN" "http://www.w3.org/Graphics/SVG/1.1/DTD/svg11.dtd">
<svg width="100%" height="100%" viewBox="0 0 1000 1000" version="1.1" xmlns="http://www.w3.org/2000/svg" xmlns:xlink="http://www.w3.org/1999/xlink" xml:space="preserve" xmlns:serif="http://www.serif.com/" style="fill-rule:evenodd;clip-rule:evenodd;stroke-linejoin:round;stroke-miterlimit:2;">
    <g id="path2" transform="matrix(128.573,0,0,128.573,-2.57146,122.747)">
        <path d="M3.814,0.022L1.686,4.632L2.131,5.846L2.338,5.846L3.622,2.954C3.738,2.72 3.833,2.477 3.906,2.226C3.98,2.474 4.074,2.715 4.186,2.947L5.477,5.846L5.685,5.846L6.128,4.632L4.001,0.022L3.814,0.022ZM1.37,0.07L0.02,0.07L1.55,4.259L2.27,2.689L1.37,0.07ZM5.533,2.674L6.263,4.259L7.798,0.07L6.435,0.07L5.533,2.674Z" style="fill:rgb(18,16,11);fill-rule:nonzero;"/>
    </g>
</svg>
