<?xml version="1.0" encoding="UTF-8" standalone="no"?>
<!DOCTYPE svg PUBLIC "-//W3C//DTD SVG 1.1//EN" "http://www.w3.org/Graphics/SVG/1.1/DTD/svg11.dtd">
<svg width="100%" height="100%" viewBox="0 0 4007 1998" version="1.1" xmlns="http://www.w3.org/2000/svg" xmlns:xlink="http://www.w3.org/1999/xlink" xml:space="preserve" xmlns:serif="http://www.serif.com/" style="fill-rule:evenodd;clip-rule:evenodd;stroke-linejoin:round;stroke-miterlimit:2;">
    <g transform="matrix(1,0,0,1,-0.00767583,-0.000126961)">
        <path d="M1572,1997.36C1518.8,1997.61 1499.48,1943.52 1485.34,1903.91C1477.5,1881.99 1468.62,1857.11 1457.99,1847.91C1415.23,1810.72 1384.75,1788.02 1322.51,1786.17C1269.92,1784.61 1196.73,1788.39 1119.35,1792.4C1022.8,1797.4 923.01,1802.56 850.35,1797.91C767.07,1792.57 617.27,1770.91 477.64,1744.04C222.64,1694.96 205.36,1670.67 196.07,1657.62C168.53,1618.97 204.07,1562.62 274.66,1457.84C291.42,1432.99 313.02,1400.96 323.26,1382.14C297.88,1359.83 264.59,1331.95 229.72,1302.74C68.72,1167.82 13.39,1117.23 3.64,1083.74C-6,1050.82 4.59,967.13 23.14,833C27.79,799.39 32.27,767.07 35.55,739.86C41.77,688.39 77.55,611.35 112.14,536.74C132.47,492.94 151.69,451.53 161.76,421.85C169.06,400.33 171.9,373.61 174.65,347.77C179.22,304.89 183.97,260.5 210.39,230.67C231.76,206.54 259.81,207.51 284.46,208.33C327.18,209.8 391.69,211.94 506.54,105.61C554.27,61.41 583.12,42.27 649.93,22.89C720.92,2.3 798.78,-12.8 887,15.76C955.15,37.84 1002.2,63.84 1086.23,113.9C1171.05,164.44 1363.23,289.64 1422.31,337.06C1458.62,366.15 1439.98,414.51 1423.57,457.14C1417.22,473.66 1405.38,504.41 1407.3,513.74C1417.3,554.24 1439.3,601.74 1472.65,654.74C1519.18,728.74 1598.87,835.85 1663.92,896.31C1719.92,948.41 1794.64,1012.24 1875.7,1043.81C1940.43,1069.03 2014.15,1088.4 2077.97,1096.96C2142.64,1105.63 2400.42,1084.27 2514.67,1066.96C2533.36,1059.15 2578.46,996.33 2602.79,962.42C2649.61,897.19 2671.55,868.18 2700.66,864.64C2861.33,845.15 3047.75,826.54 3187.1,816.07C3259.73,810.62 3368.1,830.52 3433.95,861.39C3552.58,916.96 3777.07,1032.63 3979.79,1142.63C4033.5,1171.76 3995.92,1254.22 3959.63,1333.84L3956.06,1341.69C3945.76,1364.33 3931.79,1397.07 3917.01,1431.69C3830.19,1635.17 3807.28,1678.85 3780.61,1691.69C3775.86,1694.01 3771.79,1696.3 3767.96,1698.46C3732.46,1718.46 3706.15,1725.68 3618.59,1706.2C3598.1,1701.65 3567.24,1693.69 3531.5,1684.48C3457.8,1665.48 3341.6,1635.48 3283.69,1628.99C3284.58,1642.82 3286.76,1661.16 3288.54,1675.99C3294.67,1727.3 3302.29,1791.1 3291.06,1844.33C3275.83,1916.5 3199.75,1951.92 3150.61,1954.05L3138.77,1954.56C2860.26,1966.56 2831.17,1967.88 1573.51,1997.27L1572.01,1997.27M1290.07,1714C1302.34,1713.94 1313.97,1714 1324.88,1714.37C1410.53,1716.9 1457.45,1751.85 1505.71,1793.81C1530.46,1815.34 1542.71,1849.55 1553.43,1879.74C1558.76,1894.66 1567.49,1919.12 1574.01,1925.74C2829.74,1896.13 2858.81,1894.86 3136.68,1882.74L3148.5,1882.22C3164.1,1881.54 3211.92,1867.57 3219.65,1830.81C3228.44,1789.13 3221.56,1731.81 3216.03,1685.74C3209.21,1628.88 3205.1,1594.55 3223.96,1572.14C3232.04,1562.46 3243.75,1556.52 3256.33,1555.73C3305.95,1552.59 3419.01,1580.43 3551.17,1614.49C3586.29,1623.55 3616.63,1631.36 3635.93,1635.66C3705.44,1651.11 3715.15,1645.66 3732.7,1635.79C3736.5,1633.66 3740.45,1631.44 3744.82,1629.2C3764.53,1604.07 3819.5,1475.06 3849.48,1404.7C3864.42,1369.63 3878.54,1336.5 3889.16,1313.08L3892.76,1305.14C3905.13,1277.99 3929.46,1224.54 3932.96,1201.09C3734.22,1093.47 3516.96,981.64 3401.56,927.58C3346.36,901.7 3252.04,884.34 3191.28,888.9C3054.85,899.12 2872.88,917.21 2714.78,936.23C2703.48,946.53 2679.78,979.57 2662.06,1004.23C2604.98,1083.65 2567.39,1132.29 2525.85,1138.64C2419.11,1154.94 2146.2,1179.43 2067.57,1168.94C1998.29,1159.64 1918.57,1138.71 1848.7,1111.51C1756.33,1075.51 1674.84,1006.18 1614.12,949.77C1534,875.23 1448.72,753.91 1411,693.91C1373,633.5 1348.62,580.44 1336.58,531.73C1328.88,500.73 1342.45,465.39 1355.58,431.21C1360.33,418.88 1367.75,399.58 1369.73,389.04C1310.22,343.35 1136.35,229.24 1048.83,177.1C967.83,128.84 925.83,105.6 864.42,85.7C798.69,64.38 739.1,73.38 669.9,93.42C615.9,109.04 596.03,122.25 555.74,159.52C418.91,286.07 329.76,283 282.05,281.4C275.63,281.18 267.23,280.89 262.98,281.34C253.25,295.05 249.82,327.14 246.75,355.62C243.68,384.1 240.26,416.29 230.33,445.51C219,478.89 198.93,522 177.74,567.65C147,633.84 112.13,708.79 107.29,748.8C103.94,776.39 99.39,809.15 94.67,843.21C84.57,915.9 67.8,1036.6 72.58,1062.72C87.86,1090 205.33,1188.43 275.84,1247.5C318.91,1283.6 359.58,1317.69 387.03,1342.68C419.4,1372.12 392.73,1411.68 334.36,1498.11C311.85,1531.46 272.52,1589.76 261.55,1617.61C337.91,1650.02 692.27,1715.92 854.91,1726.33C923.48,1730.7 1021.14,1725.62 1115.7,1720.71C1179.15,1717.41 1239.82,1714.25 1290.07,1714" style="fill-rule:nonzero;"/>
    </g>
</svg>
