<?xml version="1.0" encoding="UTF-8" standalone="no"?>
<!DOCTYPE svg PUBLIC "-//W3C//DTD SVG 1.1//EN" "http://www.w3.org/Graphics/SVG/1.1/DTD/svg11.dtd">
<svg width="100%" height="100%" viewBox="0 0 4452 2574" version="1.1" xmlns="http://www.w3.org/2000/svg" xmlns:xlink="http://www.w3.org/1999/xlink" xml:space="preserve" xmlns:serif="http://www.serif.com/" style="fill-rule:evenodd;clip-rule:evenodd;stroke-linejoin:round;stroke-miterlimit:2;">
    <g transform="matrix(1,0,0,1,-0.00460548,-0.00296085)">
        <path d="M1567.39,2573.18C1519.63,2577.6 1456.79,2548.78 1376.68,2485.98C1328.68,2448.39 1260.87,2395.3 1180.46,2332.38C842.17,2067.64 276,1624.58 44.3,1438.82C26.47,1424.52 -2.92,1395.19 0.24,1359.37C1.29,1347.37 7.08,1325.18 33.95,1310.48C180.33,1230.48 613.67,1041.29 669.11,1033.2C729.66,1023.76 796.95,1108.3 935.43,1302.09C950.12,1322.65 964.43,1342.63 977.87,1361.16C988.05,1375.16 997.12,1388.6 1005.8,1401.51C1030.9,1438.85 1050.72,1468.37 1085.31,1490.15C1130.45,1518.6 1223.7,1536.6 1279.12,1534.99C1318.04,1533.93 1350.59,1517.11 1382.29,1500.93C1389.29,1497.35 1396.18,1493.86 1402.87,1490.62C1412.71,1485.86 1422.55,1481.39 1432.1,1477.05C1454.74,1466.79 1485.77,1452.72 1491.39,1443.48C1515.3,1404.38 1548.78,1308.57 1544.3,1261.37C1540.3,1219.03 1498.48,1157.18 1461.56,1102.6C1438.05,1067.83 1415.85,1034.98 1400.99,1004.65C1391.65,985.57 1376.63,962.22 1362.12,939.65C1326.74,884.65 1298.8,841.14 1309.69,803.65C1313.53,790.43 1323.98,772.16 1351.9,760.24C1395.65,741.59 1472.5,743.98 1513.18,765.24C1558.27,788.82 1595.81,837.36 1632.12,884.24C1640.12,894.53 1648.02,904.79 1655.95,914.67C1675.87,939.44 1681.13,968.81 1685.34,992.41C1687.34,1003.73 1690.76,1022.67 1694.72,1025.08C1714.9,1037.31 1804.52,1046.66 1847.42,1043.62C1851.69,1040.02 1856.75,1028.52 1858.5,1020.34C1840.74,993.46 1804.96,947.23 1767.27,898.56C1599.14,681.45 1560.64,621 1589.21,577.5C1608.03,548.84 1641.94,541.05 2066.1,497.41C2235.45,480 2427.38,460.25 2558.93,440.1C2922,384.47 3279.84,302.44 3582,229.54C3757.88,187.1 3999.54,110.08 4143.92,64.08C4171.61,55.26 4196.05,47.46 4216.15,41.14C4227.61,37.55 4239.73,33.29 4252.09,28.99C4320.09,5.26 4390.48,-19.34 4433.38,23.1C4481.55,70.81 4423.82,151.55 4377.38,216.42L4374.05,221.1C4338.3,271.17 4272.39,347.84 4208.64,422.01C4169.38,467.68 4128.77,514.93 4097.2,553.72C4076.12,579.62 4050.84,612.23 4024.13,646.72C3924.23,775.72 3877.25,833.72 3846.62,848.3C3804.52,868.3 3427.38,947.94 3382.32,946.22C3337.89,944.46 3313.18,911.73 3293.32,885.41C3285.32,874.87 3277.84,864.89 3269.32,856.54C3255.93,843.37 3227.71,821.79 3189.32,825.2L3189.17,825.2C3153.07,828.55 3112.43,878.11 3073.17,926.04C3021.01,989.69 2967.04,1055.47 2891.17,1063.68L2890.05,1063.78C2848.78,1067.61 2783.68,1038.1 2681.87,989.25C2639.87,969.08 2576.62,938.74 2559.07,936.62C2466.67,942.41 2393.83,992.36 2358.07,1072.73C2350.44,1089.86 2345.15,1117.21 2339.54,1146.2C2329.22,1199.4 2317.54,1259.71 2283.93,1305.77C2256.4,1343.45 2210.41,1358.97 2169.82,1372.64C2141.72,1382.1 2112.66,1391.9 2098.02,1406.64C2082.27,1422.51 2074.02,1452 2065.3,1483.21C2053.3,1525.95 2039.81,1574.41 2001.88,1611.98C1946.61,1666.74 1853.45,1719.55 1771.25,1766.15C1742.59,1782.39 1715.5,1797.77 1691.79,1812.15C1582.54,1878.52 1539.02,1916.39 1505.53,1974.26C1473.73,2029.17 1535.34,2193.81 1576.11,2302.76C1627.66,2440.57 1661.73,2531.62 1600.48,2563.56C1590.19,2568.9 1578.96,2572.16 1567.41,2573.15M93.62,1372.31C94.42,1373.01 95.23,1373.7 96.05,1374.31C327.32,1559.74 893.27,2002.61 1231.4,2267.23C1311.81,2330.17 1379.7,2383.28 1427.66,2420.88C1493.17,2472.24 1532.11,2487.24 1550.34,2490.35C1545.62,2457.24 1518.94,2385.92 1498.66,2331.73C1444.27,2186.33 1382.61,2021.54 1433.96,1932.83C1479.85,1853.57 1542.33,1806.2 1648.85,1741.49C1673.63,1726.43 1701.24,1710.79 1730.45,1694.22C1808.17,1650.22 1896.23,1600.22 1943.67,1553.22C1966.07,1531.04 1975.59,1496.99 1985.67,1460.9C1996.88,1420.9 2008.42,1379.52 2039.35,1348.37C2067.76,1319.75 2107.95,1306.21 2143.41,1294.26C2173.75,1284.05 2205.11,1273.47 2217.13,1256.97C2239.87,1225.84 2249.69,1175.15 2258.37,1130.42C2264.91,1096.69 2271.07,1064.84 2282.54,1039.09C2331.38,929.27 2430.2,861.41 2555.03,854C2585.59,852.07 2631.8,873.48 2717.63,914.66C2770.57,940.08 2859.18,982.6 2882.48,981.42C2924.55,976.88 2967.61,924.37 3009.24,873.59C3059.29,812.59 3111.06,749.38 3181.57,742.85L3182.03,742.85C3234.29,738.22 3287.24,758.17 3327.33,797.61C3340.15,810.22 3350.33,823.69 3359.33,835.61C3367.7,846.71 3380.33,863.45 3385.65,863.61C3425.23,863.7 3775.65,789.11 3811.42,773.54C3831.26,760.81 3908.05,661.68 3958.83,596.1C3985.9,561.18 4011.42,528.2 4033.14,501.52C4065.43,461.86 4106.4,414.2 4146.02,368.11C4208.57,295.35 4273.25,220.11 4306.82,173.11L4310.2,168.39C4321.8,152.16 4352.75,108.9 4364.3,82.87C4341.92,85.24 4302.64,98.96 4279.37,107.07C4266.16,111.68 4253.21,116.2 4240.97,120.07C4220.97,126.34 4196.64,134.07 4169.06,142.88C4023.61,189.25 3780.2,266.82 3601.41,309.94C3297.58,383.26 2937.6,465.77 2571.48,521.84C2437.9,542.33 2244.87,562.18 2074.58,579.7C1924.76,595.11 1743.93,613.7 1673.14,627.28C1701.83,679 1784.63,786 1832.62,848C1877.7,906.21 1916.62,956.49 1934.2,985.4C1953.88,1017.71 1929.63,1067.3 1926.8,1072.84C1910.73,1104.38 1885.8,1123.18 1856.71,1125.84L1855.82,1125.93C1818.36,1128.93 1698.91,1124.3 1651.82,1095.81C1616,1074 1609,1035.28 1604,1007C1601,990.45 1598.25,974.82 1591.57,966.51C1583.29,956.23 1575.05,945.51 1566.77,934.86C1535.91,894.95 1503.98,853.69 1474.91,838.5C1457.91,829.58 1417.03,828.35 1394.66,832.94C1403,850.28 1420.27,877.18 1431.66,894.94C1447.46,919.5 1463.76,944.94 1475.23,968.3C1487.56,993.46 1508.23,1023.98 1530.04,1056.3C1574.57,1122.15 1620.61,1190.3 1626.6,1253.59C1633.6,1326.92 1588.9,1442.51 1561.95,1486.59C1543.06,1517.52 1505.77,1534.43 1466.25,1552.36C1457.25,1556.42 1448.05,1560.6 1438.82,1565.06C1432.65,1568.06 1426.34,1571.28 1419.82,1574.57C1383.7,1593.01 1338.82,1615.95 1281.51,1617.63C1211.51,1619.68 1102.51,1598.72 1041.2,1560.11C991.82,1529 965.27,1489.49 937.2,1447.64C929.05,1435.54 920.56,1422.9 911.04,1409.8C897.42,1391.1 883.04,1370.93 868.16,1350.16C813.87,1274.16 714.16,1134.58 676.9,1116.03C621.9,1131.58 259.9,1285.03 93.62,1372.32M1623.76,600.19L1623.92,600.19L1623.76,600.19Z" style="fill-rule:nonzero;"/>
    </g>
</svg>
