<?xml version="1.0" encoding="UTF-8" standalone="no"?>
<!DOCTYPE svg PUBLIC "-//W3C//DTD SVG 1.1//EN" "http://www.w3.org/Graphics/SVG/1.1/DTD/svg11.dtd">
<svg width="100%" height="100%" viewBox="0 0 3525 2282" version="1.1" xmlns="http://www.w3.org/2000/svg" xmlns:xlink="http://www.w3.org/1999/xlink" xml:space="preserve" xmlns:serif="http://www.serif.com/" style="fill-rule:evenodd;clip-rule:evenodd;stroke-linejoin:round;stroke-miterlimit:2;">
    <g transform="matrix(1,0,0,1,-10.3793,-0.0041442)">
        <path d="M3043.85,2281.82C2746.07,2281.6 2214.15,2278.15 1663.97,2274.57C974.14,2270.1 271.06,2265.57 87.68,2268.12C40.49,2268.76 22.94,2243.52 16.23,2228.43C6.7,2206.92 9.04,2178.53 21.59,2163.78C52.5,2127.48 78.34,2099.27 99.13,2076.58C158.42,2011.89 170.95,1996.76 170.59,1955.82C170.39,1933.61 154.71,1898.26 138.09,1860.82C109.94,1797.38 78.09,1725.55 87.26,1651.39C126.68,1334.08 283.81,341.94 329.38,69.58C331.23,58.49 337.69,42.32 357.84,28.2C388.23,6.92 444.73,-5.24 478.7,2.2C524.62,12.2 585.09,82.11 680.15,195.55L707.25,227.85C766.88,298.54 863.72,390.64 892.25,416.2C948.32,466.42 1005.79,498.36 1078.69,519.75C1113,529.8 1185,562.45 1212.27,614C1243.13,672.44 1236.6,753.69 1230.27,832.29C1226.02,885.34 1221.59,940.2 1232.58,967.35C1251.51,1014.22 1441.27,1147.2 1555.03,1226.92C1684.88,1317.92 1731.65,1351.92 1745.55,1375.92C1761.32,1403.17 1760.68,1434.76 1743.77,1462.57C1716.95,1506.63 1657.56,1531.57 1617.5,1529.77C1522.94,1525.02 1307.34,1495.99 1117.92,1470.48C1004.04,1455.15 896.72,1440.71 839.44,1434.86C798.22,1430.67 738.25,1431.86 703.84,1444.48C640.71,1467.58 599.93,1530.07 560.27,1600.48C624.85,1616.87 792.45,1635.76 897.87,1636.77C924.03,1637.02 956.02,1637.4 991.42,1637.77C1100.61,1639.04 1236.85,1640.63 1338.89,1640.24C1411.08,1639.96 1511.41,1640.45 1627.89,1641.01C1941.12,1642.52 2333.79,1644.4 2490.89,1633.34C2516.53,1631.53 2550.22,1597.62 2557.59,1566.16C2568.83,1518.24 2562.17,1426.88 2534.38,1367.34C2509.53,1314.1 2448.33,1253.34 2370.78,1204.96C2333.65,1181.78 2275.5,1161.96 2219.33,1142.9C2156.4,1121.51 2091.44,1099.42 2047.76,1069.97C1982.27,1025.81 1928.33,949.7 1903.39,866.34C1882.07,795.08 1873.27,688.61 1912.39,603.24C1925.07,575.63 1938.78,544.24 1953.04,511.65C1997.49,410 2047.88,294.65 2091.93,235.49C2123.24,193.39 2216.21,124.1 2282.12,141.75C2349.22,159.75 2402.34,207.75 2444.51,288.75C2472.14,341.75 2512.68,406.75 2555.66,475.55C2570.01,498.55 2584.54,521.79 2598.86,545.05C2676.32,670.94 3364.68,1790.23 3451.86,1955.05C3462.34,1974.86 3475.27,1995.63 3487.77,2015.73C3519.89,2067.29 3541.1,2101.37 3533.22,2131.9C3530.03,2144.46 3521.84,2155.19 3510.56,2161.57C3396.33,2226.64 3296.41,2280.45 3227.8,2281.24C3186.15,2281.7 3123.43,2281.88 3043.87,2281.83M281.59,2195C583.31,2194.95 1128.09,2198.08 1664.87,2201.15C2331.25,2204.97 3030.04,2208.98 3227.22,2206.63C3277.49,2206.02 3379.06,2150.31 3454.41,2107.51C3447.02,2092.8 3433.5,2071.05 3423.64,2055.2C3410.48,2034.03 3396.87,2012.2 3385.19,1990.05C3299.19,1827.34 2612.98,710.27 2535.74,584.62C2521.54,561.51 2507.09,538.39 2492.85,515.53C2449.19,445.53 2407.97,379.53 2379.1,323.97C2346.22,260.8 2308.82,225.45 2261.39,212.71C2241.71,207.39 2176.2,243.21 2150.03,278.37C2111.13,330.64 2062.5,441.79 2019.62,539.8C2005.14,572.91 1991.24,604.67 1978.38,632.69C1947.78,699.35 1956.38,788.11 1973.13,843.88C1993.13,910.88 2037.61,974.03 2089.13,1008.7C2124.94,1032.81 2185.34,1053.29 2243.83,1073.14C2303.92,1093.51 2366.11,1114.61 2410.34,1142.14C2453.04,1168.76 2557.25,1240.93 2601.34,1335.22C2637.22,1411.97 2643.86,1521.08 2629.52,1582.22C2616.22,1638.92 2559.05,1702.59 2495.21,1707.04C2335.32,1718.18 1941.1,1716.04 1626.64,1714.24C1510.36,1713.59 1410.16,1713.03 1338.28,1713.24C1235.68,1713.55 1099.12,1711.85 989.67,1710.49C954.34,1710.05 922.39,1709.65 896.27,1709.38C836.47,1708.76 742.73,1701.53 663.07,1691.38C501.07,1670.75 490.43,1651.76 481.92,1636.51C474.874,1623.91 474.874,1608.5 481.92,1595.9C531.82,1505.5 583.45,1411.99 680.87,1376.27C729.07,1358.59 800.87,1357.84 847.73,1362.58C906.13,1368.48 1009.03,1382.25 1128.48,1398.23C1316.48,1423.41 1530.59,1452.07 1622.16,1456.6C1639.36,1457.71 1671.57,1442.22 1682.16,1424.85C1685.69,1419.04 1684.74,1416.76 1682.86,1413.54C1671.27,1398.02 1583.6,1336.54 1513.27,1287.13C1325.46,1155.31 1191.05,1057.58 1166.19,996.02C1148.81,952.97 1153.7,892.2 1158.88,827.86C1164.1,762.91 1170.03,689.31 1148.98,649.41C1135.71,624.27 1086.38,598.01 1057.38,589.48C974.18,564.98 908.55,528.48 844.52,471.02C822.51,451.43 719.62,355 652.89,275.78L625.67,243.32C571.05,178.05 488.67,79.62 461.9,72.66C446.44,69.29 410.15,78.12 397.7,86.2C350.79,367.45 195.94,1345.39 156.93,1659.49C150.25,1713.4 177.82,1775.49 202.17,1830.23C222.8,1876.7 240.64,1916.85 241,1954.31C241.62,2025.95 211,2059.31 150.09,2125.79C132.68,2144.79 111.64,2167.7 87.17,2195.94L87.3,2195.94C128.37,2195.33 195.12,2195.04 281.59,2195.03" style="fill-rule:nonzero;"/>
    </g>
</svg>
