<?xml version="1.0" encoding="UTF-8" standalone="no"?>
<!DOCTYPE svg PUBLIC "-//W3C//DTD SVG 1.1//EN" "http://www.w3.org/Graphics/SVG/1.1/DTD/svg11.dtd">
<svg width="100%" height="100%" viewBox="0 0 3806 2790" version="1.1" xmlns="http://www.w3.org/2000/svg" xmlns:xlink="http://www.w3.org/1999/xlink" xml:space="preserve" xmlns:serif="http://www.serif.com/" style="fill-rule:evenodd;clip-rule:evenodd;stroke-linejoin:round;stroke-miterlimit:2;">
    <g transform="matrix(1,0,0,1,-0.0990469,-0.0190156)">
        <path d="M3798.63,617.39C3795.12,622.03 3790.17,625.79 3783.63,629.04C3736.45,652.7 3408.59,790.8 3029,950.69C2597.66,1132.37 2108.77,1338.3 1920.39,1423.16C1878.53,1442.03 1815.66,1493.68 1760.21,1539.27C1726.58,1566.91 1694.82,1593.01 1668.84,1611.01C1559.77,1686.58 1330.84,1858.94 1202.01,1957.59C1198.19,1965.75 1195.07,1990.2 1192.76,2008.29C1186.65,2056.13 1179.05,2115.57 1144.53,2161.29C1144.26,2161.65 1143.97,2162.02 1143.68,2162.39C1108.14,2208.61 1052.91,2254.82 994.43,2303.74C937.61,2351.26 878.87,2400.39 839.43,2449.27C802.94,2494.64 764.19,2577.85 733.16,2644.74C683.45,2751.96 662.87,2796.31 619.95,2788.68C604.62,2785.92 565.76,2767.35 375.35,2671.68C256.03,2611.75 75.7,2521.16 49.44,2514.68C3.61,2505.24 10.53,2453.37 17.84,2398.47C22.48,2363.78 28.24,2320.59 23.92,2288.04C21.65,2270.97 18.74,2252.89 15.75,2234.33C3.98,2161.2 -9.37,2078.33 9.61,2015.25C22.24,1973.25 33.84,1932.98 44.61,1895.74C85.34,1754.47 106,1685.28 132.61,1655.74C190.1,1591.55 679.38,1366 781,1336.5C796.09,1332.13 811.45,1333.9 824.3,1341.5C850.44,1356.93 857.45,1389.36 864.23,1420.71C866.3,1430.21 869.54,1445.28 872.46,1452.31C878.46,1452.88 892.96,1450.19 901.16,1448.66C918.16,1445.5 935.64,1442.23 952.7,1446.66C970.77,1451.33 981.82,1463.92 989.12,1474.48C1001.26,1467.82 1017.6,1460.97 1035.54,1468.27C1047.71,1473.3 1056.8,1483.81 1060.02,1496.58C1074.59,1551.58 1121.02,1688.41 1143.74,1746.58C1146.88,1754.58 1149.08,1765.13 1152.74,1783.12C1153.43,1786.56 1154.3,1790.83 1155.24,1795.34C1170.73,1784.66 1187.93,1772.15 1196.89,1765.12C1249.61,1723.78 1365.84,1635.45 1469.97,1561.58C1496.28,1542.91 1527.36,1521.58 1558.31,1500.36C1608.62,1465.85 1664.78,1427.36 1690.71,1406.36C1687.23,1400.36 1682.09,1392.73 1678.54,1387.47C1661.82,1362.76 1642.87,1334.78 1655.54,1304.92C1681.26,1244.37 1930.88,1122.24 1933.4,1121.01C2005.01,1086.14 2076.4,1056.51 2128.5,1034.89C2145.56,1027.81 2162.94,1020.61 2175.9,1014.98C2165.57,986.28 2143.8,934.93 2125.44,891.64C2035.83,680.28 2016.44,629.58 2063.86,608.45C2093.24,595.35 2133.34,577.21 2181.58,555.45C2366.06,472.11 2674.81,332.61 2953.31,216.79C3129.77,143.43 3297.61,82.16 3408.67,41.62C3453,25.43 3488.03,12.62 3512.67,3.1C3549.59,-11.19 3568.54,26.03 3594.78,77.52C3612.84,112.98 3636.23,162.71 3662.44,221.32C3698.79,302.68 3736.44,392.06 3763.12,460.38C3800.4,555.83 3814.79,596.02 3798.63,617.38M1143.47,1913.27C1146.78,1908.88 1150.66,1904.95 1155.03,1901.61C1266.03,1816.61 1507.46,1634.03 1626.86,1551.32C1650.36,1535.03 1680.98,1509.87 1713.39,1483.22C1775.3,1432.34 1839.33,1379.72 1890.17,1356.81C2079.38,1271.57 2568.72,1065.47 3000.46,883.61C3324.84,747 3633.14,617.14 3726.87,575.08C3699.03,484.08 3560.46,162.87 3513.58,80.66C3491.71,88.84 3465.04,98.57 3433.76,109.98C3323.32,150.31 3156.41,211.24 2981.46,283.98C2704,399.36 2395.87,538.57 2211.79,621.74C2174.4,638.63 2141.88,653.33 2115.43,665.19C2126.76,706.52 2167.43,802.43 2193.16,863.19C2253.83,1006.28 2259.95,1025.04 2252.78,1045.64C2246.06,1065 2237.57,1068.54 2156.61,1102.14C2105.35,1123.41 2035.16,1152.53 1965.61,1186.43C1848.79,1243.32 1754.61,1303.9 1728.06,1328.79C1731.34,1334.44 1736.26,1341.7 1739.65,1346.7C1756.15,1371.1 1786.98,1416.53 1751.18,1450.58C1728.62,1472.05 1666.18,1514.9 1599.99,1560.27C1569.37,1581.27 1538.65,1602.35 1512.62,1620.83C1409.56,1693.94 1294.54,1781.34 1242.37,1822.25C1241.65,1822.81 1170.43,1878.48 1145.07,1884.12C1134.57,1886.47 1123.55,1884.48 1114.53,1878.61C1095.38,1866.33 1089.78,1842.44 1080.72,1797.74C1078.91,1788.74 1076.41,1776.44 1075.2,1772.97C1055.46,1722.38 1019.68,1618.22 999.3,1551.1C990.98,1554.1 981.7,1555.69 971.66,1553.71C949.66,1549.41 938.48,1531.59 931.8,1520.94C931.19,1519.94 930.43,1518.75 929.68,1517.61C925.45,1518.23 919.18,1519.39 914.52,1520.28C889.37,1524.95 854.95,1531.38 826.61,1510.36C805,1494.36 798.61,1464.8 792.44,1436.23C790.9,1429.12 788.72,1419.03 786.44,1411.23C648.86,1457.46 222.69,1664.84 187.25,1704.14C171.1,1722.14 142.53,1820.55 115.15,1915.55C104.33,1953.04 92.65,1993.55 79.93,2035.86C65.78,2082.97 77.72,2157.14 88.24,2222.59C91.34,2241.85 94.35,2260.59 96.7,2278.26C102.28,2320.35 95.82,2368.82 90.62,2407.77C88.8,2421.41 86.51,2438.56 85.77,2450.25C129.63,2467.4 227.03,2515.45 408.67,2606.69C490.09,2647.6 580.5,2693 618.94,2710.54C631.61,2689.45 651.2,2647.21 666.34,2614.54C700.75,2540.34 739.91,2456.16 782.09,2403.86C826.09,2349.4 887.64,2297.92 947.15,2248.14C1002.43,2201.89 1054.67,2158.2 1085.29,2118.37C1107.88,2088.28 1114.76,2039 1119.82,1999.47C1124.42,1963.36 1128.24,1933.47 1143.49,1913.32" style="fill-rule:nonzero;"/>
    </g>
</svg>
