<?xml version="1.0" encoding="UTF-8" standalone="no"?>
<!DOCTYPE svg PUBLIC "-//W3C//DTD SVG 1.1//EN" "http://www.w3.org/Graphics/SVG/1.1/DTD/svg11.dtd">
<svg width="100%" height="100%" viewBox="0 0 4059 1240" version="1.1" xmlns="http://www.w3.org/2000/svg" xmlns:xlink="http://www.w3.org/1999/xlink" xml:space="preserve" xmlns:serif="http://www.serif.com/" style="fill-rule:evenodd;clip-rule:evenodd;stroke-linejoin:round;stroke-miterlimit:2;">
    <g transform="matrix(1,0,0,1,-38.3341,-0.000530079)">
        <path d="M824.19,1239.63C787.96,1239.79 755.26,1239.89 726.45,1239.93C672.7,1240 617.28,1207.18 594.68,1161.93C581.32,1135.21 579.86,1098.32 578.32,1059.26C576.67,1017.26 574.79,969.74 557.5,944.54C518.92,888.37 473.21,872.74 420.29,854.65C401.24,848.12 381.54,841.38 361.45,832.51C350.74,827.77 340.15,823.18 329.65,818.64C220.08,771.21 116.59,726.41 64.65,589.24C26.65,488.94 29.65,405.45 74.65,310.05C111.43,232.11 187.53,152.54 278.22,97.2C362.59,45.72 479.72,9.28 569.65,6.51C680,3.11 1188.44,-2.23 1316.65,1C1355.65,2 1398.06,24.64 1433.13,63.2C1474.67,108.85 1497.13,166.14 1493.38,216.44C1483.57,346.09 1335.13,474.93 1225.01,485.57C1095.39,498.07 960.64,498 818,498C765.5,498 711.4,498 655.26,498.58C625.95,498.88 579.56,510.25 571.87,540.29C562.15,578.29 583.87,620.81 610.27,636.77C636.27,652.49 668.49,673.95 705.86,698.77C825.57,778.4 1006.48,898.77 1123.79,917.22C1264.54,939.37 1422.79,942.22 1500.21,933.63C1531.32,930.18 1578.62,902.85 1583.46,888.78C1592.32,863.1 1591.87,821.19 1591.46,784.22C1591.05,744.22 1590.69,709.58 1600.03,684.15C1617.87,635.44 1660.59,572.78 1705.82,506.45C1717.31,489.61 1729.04,472.45 1740.62,455.07C1831.25,319.41 1910.29,202 1959.74,139.07C1998.42,90 2107.69,53 2162.5,52C2217.87,50.76 2291.81,70.6 2343.11,99.69C2453.82,162.49 2660.38,283.98 2879.11,412.61C3152.92,573.61 3436.04,740.17 3577.98,819.27C3580.54,820.69 3589.8,819.91 3599.13,813.27C3607.13,807.62 3609.88,801.41 3609.55,799.5C3598.89,740.5 3538.15,572.76 3496.99,488.35C3487.22,479.64 3446.26,468.81 3421.56,462.27C3377.23,450.55 3338.96,440.41 3318.56,419.11C3287.96,387.19 3206.76,302.46 3268.07,176.11C3304.98,100.11 3382.49,21.21 3542.38,77.5C3607.1,100.31 3664.54,119.21 3720.06,137.5C3790.06,160.56 3862.48,184.4 3949.97,216.15C3991.67,231.29 3991.89,285.58 3974.85,493.01C3970.71,543.51 3966.78,591.29 3966.8,618.89C3974.8,623.89 3998.51,627.89 4011.68,630.04C4043.89,635.42 4092.57,643.52 4092.93,687.78C4093.15,714.39 4094.1,742.3 4095.04,769.28C4098.59,871.58 4101.91,968.18 4070.11,1034.76C4034.68,1108.88 3936.69,1213.38 3829.73,1213.86C3817.63,1213.73 3804.37,1213.94 3790.81,1213.99C3505.57,1215.23 2953.31,1220.62 2370.18,1226.31C1770.91,1232.16 1153.23,1238.18 824.27,1239.6M571.81,75.92C494.2,78.3 388.5,111.39 314.81,156.38C236.46,204.19 168.7,274.38 137.96,339.51C106.96,405.28 93.74,468.76 130.11,564.77C171.56,674.45 253.64,710 357.55,755C368.2,759.61 378.97,764.27 389.86,769.08C407.13,776.73 424.56,782.7 443.03,789C499.53,808.32 563.56,830.22 615.18,905.39C643.82,947.09 646.1,1005.24 648.12,1056.56C649.25,1085.19 650.52,1117.64 657.23,1131.04C667.94,1152.49 699.61,1170.57 726.37,1170.53C1016.56,1170.14 1704.37,1163.44 2369.42,1156.94C2980.29,1150.94 3557.06,1145.34 3829.22,1144.49L3829.34,1144.49C3900.92,1144.18 3979.77,1061.86 4006.93,1005.04C4031.43,953.74 4028.23,861.22 4025.15,771.75C4024.37,749.1 4023.55,725.82 4023.15,702.9C4016.23,701.29 4006.96,699.75 3999.99,698.59C3961.63,692.2 3897.4,681.5 3896.84,622.04C3896.54,591.71 3900.51,543.39 3905.12,487.44C3910.61,420.52 3919.53,312.1 3913.75,277.07C3832.62,247.83 3764.22,225.3 3697.99,203.48C3642.14,185 3584.35,166 3519,143C3426,110.26 3368,129.8 3330.9,206.32C3297.46,275.21 3322,322 3369,371.17C3377.09,378.65 3416.13,388.98 3439.46,395.17C3494.61,409.77 3542.25,422.38 3558.91,456.32C3602.91,545.96 3666.47,722.23 3678.22,787.2C3683.69,817.41 3668.88,849.08 3639.59,869.83C3609.14,891.39 3571.59,895.29 3543.75,879.83C3401.09,800.33 3117.61,633.59 2843.45,472.36C2625.01,343.86 2418.66,222.51 2308.45,159.99C2267.62,136.84 2206.96,120.99 2163.75,121.41C2122.21,122.19 2036.59,154.2 2014.75,181.94C1962.93,247.84 1868.06,389.87 1798.75,493.57C1787.04,511.1 1775.2,528.48 1763.58,545.51C1720.85,608.18 1680.49,667.36 1665.58,708.01C1660.58,721.59 1660.93,754.54 1661.22,783.61C1661.66,826.17 1662.16,874.42 1649.41,911.37C1631.41,963.74 1548.92,998.17 1507.83,1002.74C1425.83,1011.81 1259.53,1008.99 1112.71,985.89C980.41,965 799.28,844.51 667,756.53C630.31,732.13 598.64,711.05 574,696.11C518.63,662.61 488,586.66 504.22,523.19C520.61,459.19 591.54,429.83 654.56,429.19C710.96,428.57 765.32,428.6 818.09,428.61C958.94,428.61 1092.09,428.66 1218.3,416.49C1290.37,409.49 1416.23,310.73 1423.76,211.27C1426.09,180.5 1409.46,140.67 1381.37,109.81C1359.74,86.02 1334.26,70.95 1314.91,70.46C1187.55,67.23 681.69,72.58 571.85,75.95" style="fill-rule:nonzero;"/>
    </g>
</svg>
