<?xml version="1.0" encoding="UTF-8" standalone="no"?>
<!DOCTYPE svg PUBLIC "-//W3C//DTD SVG 1.1//EN" "http://www.w3.org/Graphics/SVG/1.1/DTD/svg11.dtd">
<svg width="100%" height="100%" viewBox="0 0 3137 3518" version="1.1" xmlns="http://www.w3.org/2000/svg" xmlns:xlink="http://www.w3.org/1999/xlink" xml:space="preserve" xmlns:serif="http://www.serif.com/" style="fill-rule:evenodd;clip-rule:evenodd;stroke-linejoin:round;stroke-miterlimit:2;">
    <g transform="matrix(1,0,0,1,-64.6181,0.0299971)">
        <path d="M3169.08,2343.74C3167.64,2345.59 3166.15,2347.43 3164.58,2349.21C3130.04,2388.55 3050.05,2478.08 2957.45,2581.76C2776.04,2784.86 2527.58,3063.03 2463.05,3140.47C2447.69,3158.87 2427.5,3168.76 2404.63,3169.09C2339.75,3170.01 2269.24,3090.21 2207.04,3019.78C2196.77,3008.18 2187.04,2997.17 2178.04,2987.41C2106.46,2909.55 2008.56,2815.75 1962.78,2793.83C1888.68,2758.36 1861.18,2775.32 1844.26,2796.98L1843.81,2797.56C1827.04,2819.33 1814.52,2852.62 1866.86,2917.56C1889.44,2945.56 1944.22,2982.27 1997.21,3017.77C2067.48,3064.86 2140.13,3113.55 2171.97,3162.38C2220.28,3236.38 2247.03,3346.64 2178.14,3434.87C2177.7,3435.44 2177.23,3436.01 2176.77,3436.6C2101.34,3531.11 1963.65,3537.78 1890.93,3480.6C1827.41,3430.6 1731.49,3355.41 1616.02,3264.85C1137,2889.1 335.28,2260.28 92,2058.92C57.76,2030.64 58,1973.92 79.65,1938.76C98.65,1907.94 155.3,1870.76 199.76,1869.19C249.01,1867.49 315.76,1873.58 382.84,1885.92C460.29,1900.17 549.02,1918.16 622.14,1951.43C686.67,1980.82 743.75,2024.43 798.93,2066.5C808.35,2073.69 817.72,2080.85 827.13,2087.91C869.55,2119.84 931.26,2170.45 996.62,2224.02C1084.35,2296.02 1175.07,2370.36 1221.92,2401.72C1242.3,2415.36 1275.73,2421.85 1299.66,2416.82C1320.31,2412.47 1348.18,2392.35 1363.05,2370.93C1377.5,2350.19 1389.82,2319.75 1384.78,2298.49C1376.15,2262.07 1337.86,2190.49 1309.92,2138.28C1301.24,2122.03 1293.08,2106.78 1286.22,2093.46C1280.87,2083.06 1273.53,2070.97 1265.74,2058.17C1234.9,2007.43 1196.49,1944.24 1222.31,1887.03C1322.4,1665.34 1545.04,1195.56 1633.09,1020.38C1658.98,968.79 1712.55,901.13 1759.76,841.38C1792.48,800 1837.07,743.59 1843.57,725.44C1841.15,671.22 1810.19,566.86 1780.22,465.85C1751.22,368.31 1723.94,276.17 1719.02,219.68C1713.3,153.56 1758,77.26 1802.89,39C1850.44,-1.47 1920.16,-5.35 1969.54,4.55C2023.39,15.32 2080.47,55.19 2134.33,95.1C2180.77,129.49 2239.68,182.53 2309.46,252.73C2375.29,318.9 2492.05,445.82 2532.57,495.22C2551.41,518.22 2559.57,546.87 2554.37,571.85C2550.3,591.34 2536.25,606.34 2521.37,622.18C2513.88,630.18 2498.21,646.84 2497.43,653.44C2506.1,732.78 2577.97,979.31 2608.25,1061.84C2614.81,1079.75 2636.76,1097.84 2661.66,1105.75C2690.83,1115.1 2753.96,1121.5 2804.66,1126.63C2834.18,1129.63 2862.09,1132.45 2881.95,1135.63C2945.06,1145.71 2996.02,1209.29 3012.05,1251.23C3021.39,1275.66 3015.85,1325.13 2997.64,1460.3C2982.3,1574.3 2959.1,1746.61 2975.64,1794.36C3006.64,1883.85 3121.96,2053.04 3171.21,2125.29C3204.07,2173.51 3218.42,2280.5 3169.03,2343.72M1788.59,2753.51C1834.41,2694.85 1903.29,2686.97 1993.33,2730.1C2068.46,2766.1 2203.75,2910.93 2230.1,2939.59C2239.35,2949.65 2249.4,2961.02 2259.99,2973C2298.85,3017 2371.21,3098.9 2403.62,3098.44C2404.89,3098.44 2406.12,3098.44 2408.77,3095.22C2474.08,3016.85 2712.87,2749.51 2904.77,2534.7C2997.26,2431.14 3077.15,2341.7 3111.49,2302.59C3139.63,2270.16 3132.49,2193.91 3112.87,2165.09C3028.87,2041.87 2938.99,1904.22 2908.93,1817.53C2888.44,1758.43 2903.77,1628.3 2927.68,1450.9C2937.05,1381.22 2948.68,1294.73 2945.61,1275.23C2934.99,1248.95 2902.07,1210.42 2870.85,1205.44C2852.98,1202.58 2826.08,1199.84 2797.59,1196.96C2740.77,1191.21 2676.36,1184.68 2640.14,1173.09C2603.92,1161.5 2558.89,1132.52 2541.92,1086.17C2513.72,1009.23 2437.07,751.43 2427.2,660.55C2423.2,623.6 2450.2,594.84 2469.86,573.85C2475.02,568.36 2482.46,560.3 2485.28,556.18C2485.13,552.7 2482.78,546 2477.93,540.06C2439.21,492.85 2322.77,366.35 2259.37,302.58C2192.08,234.89 2135.87,184.19 2092.28,151.9C2057.21,125.9 1998.52,82.44 1955.68,73.85C1914.68,65.65 1871.68,73.27 1848.68,92.85C1818,119 1786.09,175 1789.42,213.54C1793.71,262.89 1821.29,355.85 1847.96,445.72C1881.2,557.72 1912.6,663.57 1914.33,726.21C1915.14,756.03 1889.33,791.43 1815.19,885.21C1770,942.31 1718.9,1006.99 1696.19,1052.13C1608.46,1226.71 1386.48,1695.04 1286.7,1916.13C1276.2,1939.4 1305.04,1986.85 1326.1,2021.51C1334.56,2035.41 1342.54,2048.51 1349.03,2061.17C1355.73,2074.17 1363.71,2089.09 1372.22,2104.99C1405.28,2166.81 1442.77,2236.86 1453.52,2282.22C1467.05,2339.32 1432.05,2395.5 1420.99,2411.36C1399.78,2441.66 1358.57,2476.65 1314.21,2485.99C1271.67,2494.99 1218.77,2484.69 1182.6,2460.46C1132.91,2427.23 1040.83,2351.73 951.79,2278.69C887.02,2225.6 825.87,2175.45 784.62,2144.41C775.1,2137.24 765.577,2130 756.05,2122.69C703.98,2082.95 650.12,2041.86 592.83,2015.77C527.05,1985.77 443.34,1968.93 370.05,1955.46C307.75,1944.01 246.57,1938.31 202.18,1939.85C183.28,1940.49 146.96,1964.42 139.78,1975.85C134.4,1984.59 134.4,2000.85 137.48,2004.96C379.59,2205.31 1180.87,2833.75 1659.63,3209.23C1775.16,3299.82 1871.1,3375.08 1934.63,3425.04C1979.42,3460.28 2072.79,3453.62 2121.55,3392.52C2121.83,3392.17 2122.14,3391.8 2122.43,3391.43C2181.86,3315.34 2124.88,3219.52 2112.8,3200.99C2088.8,3164.25 2019.26,3117.61 1957.89,3076.49C1897.89,3036.27 1841.19,2998.27 1811.89,2961.93C1749.51,2884.59 1741.42,2814.79 1787.83,2754.5L1788.59,2753.51ZM2946.06,1276.42C2946.06,1276.44 2946.06,1276.47 2946.06,1276.49C2946.06,1276.47 2946.06,1276.44 2946.06,1276.42M109.74,1957.28L109.82,1957.17L109.74,1957.28Z" style="fill-rule:nonzero;"/>
    </g>
</svg>
