<?xml version="1.0" encoding="UTF-8" standalone="no"?>
<!DOCTYPE svg PUBLIC "-//W3C//DTD SVG 1.1//EN" "http://www.w3.org/Graphics/SVG/1.1/DTD/svg11.dtd">
<svg width="100%" height="100%" viewBox="0 0 4256 2306" version="1.1" xmlns="http://www.w3.org/2000/svg" xmlns:xlink="http://www.w3.org/1999/xlink" xml:space="preserve" xmlns:serif="http://www.serif.com/" style="fill-rule:evenodd;clip-rule:evenodd;stroke-linejoin:round;stroke-miterlimit:2;">
    <g transform="matrix(1,0,0,1,0.0263695,-0.0025624)">
        <path d="M112,2305C83,2306 64.2,2301 50.86,2289.57C26.63,2268.86 -1,2240.52 0,2205.24C0.4,2192.24 4.3,2125.75 43.54,2093.68C126.42,2026.08 206.59,1955.26 284.17,1886.68C335.9,1841.01 389.38,1793.74 443.06,1747.98C450.99,1740.98 459.51,1723.43 434.8,1659.34L432.94,1654.56C420.03,1621.22 402.31,1575.45 412.41,1537.04C482.73,1270.04 592.72,1002.31 699.75,741.71L730.13,667.71C742.65,637.14 758.25,599.07 796.71,574.03C825.71,555.18 864.02,535.62 904.6,514.92C944.35,494.66 985.45,473.7 1012.26,455.68C1038.7,437.93 1048.46,408.41 1047.83,396.54C1045.73,358.79 1060.91,321.83 1090.61,292.54C1120.53,263.13 1364.47,215.79 1366.78,215.46C1469.08,201.1 1559.11,191.08 1722.17,172.95L1840.09,159.81C1909.74,152.01 2057.09,158.99 2120.46,170.04C2201.77,184.18 2310.46,206.9 2406.11,226.87C2499.37,246.35 2604.71,268.35 2623.93,268.99C2766.21,268.88 2880,267.64 3000.21,266.31C3094.98,265.31 3191.08,264.23 3303,263.74C3335.27,263.26 3382.52,255.91 3407.88,247.33C3511.5,212.33 3612.72,170.07 3710.55,129.19C3814.92,85.59 3922.74,40.55 4034.15,4C4068.15,-7.16 4138.28,4.76 4161.63,43.38C4193.63,96.38 4222.73,164.07 4250.54,250.16C4266.36,299.23 4239.31,348.16 4181.61,375.01C4152.92,388.35 4122.03,401.8 4089.32,416.07C3998.14,455.83 3894.7,500.91 3851.18,540.22C3815.35,572.6 3762.79,625.4 3707.18,681.22C3626.04,762.69 3534.18,854.96 3455.79,923.32C3381.9,987.78 3311.49,1040.54 3207.86,1088.65C3118.55,1130.12 3012.77,1174.49 2919.37,1213.65C2894.56,1224.08 2870.37,1234.18 2847.5,1243.88C2828.81,1251.78 2808.45,1251 2791.59,1241.69C2778.72,1234.59 2762.64,1219.69 2756.48,1188.69C2603.06,1188.34 2441.08,1193.16 2283.79,1197.83C2100.28,1203.31 1926.38,1208.46 1775.56,1205.42C1747.03,1204.85 1719.56,1193.29 1695.33,1183.07C1689.11,1180.43 1682.94,1177.85 1676.98,1175.55C1665.78,1171.26 1651.98,1170.55 1644.61,1171.47C1640.52,1177.17 1636.01,1183.41 1631.21,1190.06C1601.6,1231.06 1540.03,1316.17 1536.32,1347.06C1535.13,1369.06 1564.49,1487.15 1583.84,1564.98C1605.35,1651.39 1625.57,1732.75 1630.84,1774.98C1637.6,1829.08 1635.01,1911.1 1614.04,1972.59C1596.84,2023 1575.58,2067.48 1560.04,2099.91C1554.13,2112.27 1548.89,2123.21 1544.82,2132.53C1529.07,2168.59 1495.03,2205.19 1491.19,2209.26C1457,2245.5 1394.95,2247.79 1348.87,2243.36C1285.79,2237.23 1236.57,2229.15 1188.93,2221.36C1146.46,2214.36 1102.5,2207.15 1047.46,2201.08C1007.24,2196.63 892.03,2193.47 856.9,2198.08C593.8,2232.42 390.9,2263.98 155.05,2300.61C140.799,2302.92 126.424,2304.39 112,2305M101,2224.9C107.45,2225.15 120.22,2224.63 140.64,2221.48C377.37,2184.86 581.12,2153.31 845.64,2118.95C891.46,2112.95 1015.7,2117.32 1057.26,2121.95C1114.62,2128.34 1159.78,2135.81 1203.39,2143.03C1251.83,2151.03 1297.53,2158.6 1357.85,2164.5C1401.25,2168.72 1425.38,2161.76 1430.44,2156.36C1441.2,2144.95 1461.15,2120.24 1468.9,2102.44C1473.28,2092.44 1478.9,2080.63 1485.22,2067.31C1500.71,2034.87 1519.98,1994.46 1535.66,1948.31C1549.85,1906.55 1555.36,1838.02 1548.66,1785.31C1543.89,1747.73 1523.16,1664.84 1503.02,1584.43C1465.82,1435.8 1449.8,1367.3 1453.32,1337.78C1459,1290.07 1506.32,1221.3 1562.99,1142.78C1569.17,1134.22 1574.87,1126.32 1579.77,1119.4C1605.29,1081.4 1669.67,1084.68 1707.53,1099.27C1714.32,1101.9 1721.3,1104.84 1728.38,1107.83C1745.66,1115.14 1765.23,1123.42 1777.58,1123.69C1926.58,1126.81 2099.7,1121.81 2282.29,1116.52C2445.1,1111.82 2612.85,1106.96 2771.84,1107.78C2784.41,1107.84 2824.6,1112.12 2834.79,1162.2C2852.38,1154.81 2870.56,1147.2 2889.16,1139.38C2982.02,1100.45 3087.16,1056.38 3175.27,1015.49C3270.05,971.49 3335.11,922.66 3403.68,862.82C3479.93,796.27 3570.78,704.97 3651.03,624.31C3710.09,565.13 3761,513.94 3798.58,480C3852.4,431.36 3957.9,385.39 4059.89,341C4092.19,326.94 4122.69,313.64 4150.52,300.73C4151.59,300.2 4177.22,288.18 4174.1,278.55C4148.51,199.73 4122.28,138.31 4093.96,90.99C4086.31,85.81 4064.43,81.14 4056.24,82.99C3948.51,118.4 3842.41,162.76 3739.69,205.71C3640.69,247.1 3538.31,289.92 3432.14,325.82C3399,337 3343.08,345.9 3302.08,346.53C3190.08,347.11 3094.31,348.24 2999.82,349.35C2879.43,350.76 2765.43,352.12 2622.69,352.35L2621.82,352.35C2597.15,351.87 2521.19,336.35 2388.72,308.81C2293.81,289.09 2185.96,266.68 2106.1,252.88C2049.2,243.02 1912.1,236.6 1849.88,243.62L1732.09,256.82C1570.09,274.95 1480.62,284.96 1379.67,299.21C1349.96,303.39 1181.45,342.81 1148.02,356.52C1140.15,365.27 1132.37,377.93 1133.2,393.24C1135.28,432.24 1113.59,490.24 1061.08,525.49C1030.13,546.27 986.82,568.37 944.93,589.73C908.14,608.51 870.09,627.92 844.93,644.33C829.29,654.5 821.19,672.19 809.72,700.1L779.28,774.1C673.09,1031.81 564,1296.63 494.81,1558.13C491.19,1571.85 506.08,1610.48 512.44,1626.96L514.33,1631.87C528.4,1668.53 561.27,1754.18 500.33,1808.33C446.6,1854.1 393.45,1901 342.05,1946.4C264,2015.31 183.32,2086.55 99.33,2155C94.2,2159.53 85.96,2182.23 84.86,2206.66C85.86,2208.73 89.42,2214.23 101.04,2224.87" style="fill-rule:nonzero;"/>
    </g>
</svg>
