<?xml version="1.0" encoding="UTF-8" standalone="no"?>
<!DOCTYPE svg PUBLIC "-//W3C//DTD SVG 1.1//EN" "http://www.w3.org/Graphics/SVG/1.1/DTD/svg11.dtd">
<svg width="100%" height="100%" viewBox="0 0 3745 2262" version="1.1" xmlns="http://www.w3.org/2000/svg" xmlns:xlink="http://www.w3.org/1999/xlink" xml:space="preserve" xmlns:serif="http://www.serif.com/" style="fill-rule:evenodd;clip-rule:evenodd;stroke-linejoin:round;stroke-miterlimit:2;">
    <g transform="matrix(1,0,0,1,-0.000256462,0.000575786)">
        <path d="M2939.61,2253.81C2915.56,2259.89 2887.84,2262.47 2855.88,2261.81C2448.49,2252.76 1378.88,2249.32 759.36,2249.21C648.47,2249.21 524.46,2203.49 419.08,2123.84C282.65,2020.73 165.35,1807.67 216.72,1615.84C220.87,1600.36 226.43,1583.09 232.32,1564.84C246.67,1520.26 268.32,1452.91 258.97,1428.18C251.49,1408.49 228.19,1395.7 201.19,1380.88C184.67,1371.8 167.55,1362.41 151.59,1350.08C143.98,1344.21 132.02,1338.08 119.37,1331.59C80.72,1311.76 27.81,1284.59 7.06,1219.74C-23.59,1123.92 53.5,1059.14 86.44,1031.48C167.88,963.04 336.16,870.76 498.86,781.48L540.86,758.43C609.86,720.52 696.6,670.85 797.1,613.43C1117.28,430.1 1555.82,179.13 1818.11,83.08C2009.54,12.97 2235.63,11.84 2435.11,10.88C2491.53,10.6 2544.81,10.34 2592.94,8.42C2611.58,7.66 2630.7,6.83 2650.09,5.96C2814.17,-1.27 3000.09,-9.48 3127.54,31.11C3258.54,72.8 3353.32,183.18 3436.95,280.58C3564.8,429.47 3674.83,609.36 3731.29,761.8C3760.66,841.12 3737.2,1156.72 3684.55,1259.1C3670.79,1285.85 3654.3,1301.53 3634.17,1307.03L3633.06,1307.31C3525.81,1334.42 3030.75,1160.31 2902.62,1100.4C2815.78,1059.82 2746.8,958.51 2717,876.11C2691.22,804.98 2696.37,715.49 2731.15,630.61C2777.41,517.61 2913.4,332.34 2928.76,311.61C2960.3,268.99 2963.38,237.67 2937.88,218.61C2898.08,188.79 2740.15,290.38 2664.25,339.22L2647.57,349.95C2614.48,371.17 2592.74,410.27 2569.68,451.66C2555.33,477.44 2540.49,504.11 2521.93,528.19C2508.7,545.34 2496.98,568.27 2484.59,592.53C2442.49,675 2384.83,788 2209,744.85C2147.19,729.72 2093.59,641.85 2087,573.4C2083.13,533.14 2103.12,486.58 2122.45,441.54C2134.54,413.35 2148.27,381.4 2148.17,366.19C2148.02,347.24 2140.03,311.7 2119.17,297.02C2105.7,287.54 2085.85,287.23 2060.17,296.29C1951.49,334.29 1816.66,396.41 1659.39,480.9C1602.46,511.51 1569.33,640 1571.54,715C1573.64,786.31 1615.24,913.07 1675.69,949.37C1719.14,975.47 1938.24,1058.96 2150.12,1139.71C2422.12,1243.36 2730.47,1360.84 2829.75,1416.62C2896.95,1454.36 2986.21,1525.05 3029.81,1647.52C3047.02,1695.85 3052.67,1767.8 3059.81,1858.85C3062.05,1887.4 3064.43,1917.85 3067.37,1949.85C3079.31,2080.41 3064.61,2160.09 3019.68,2208.22C2998.98,2230.39 2972.78,2245.42 2939.58,2253.83M1925.36,126.37C1897.55,133.333 1870.11,141.735 1843.17,151.54C1586.69,245.45 1151.17,494.66 833.26,676.63C732.49,734.3 645.47,784.1 576,822.3L534,845.36C381.83,928.85 209.33,1023.45 133.4,1087.26C88.6,1124.9 63.4,1156.48 76.56,1197.48C88.09,1233.48 119.49,1249.63 152.7,1266.68C168.44,1274.75 183.29,1282.37 196.2,1292.34C207.69,1301.2 221.61,1308.84 236.34,1316.93C270.95,1335.93 310.18,1357.45 327.2,1402.27C345.67,1450.88 322.34,1523.27 301.78,1587.14C296.18,1604.55 290.89,1620.98 287.2,1634.7C238.86,1815.26 369.43,1994.84 463.1,2065.64C554.72,2134.89 665.5,2176.25 759.45,2176.27C1379.31,2176.36 2449.6,2179.82 2857.58,2188.88C2911.4,2190.08 2945.99,2180.38 2966.49,2158.47C2995.61,2127.25 3004.62,2063.08 2994.87,1956.47C2991.87,1924.11 2989.49,1893.37 2987.22,1864.47C2980.49,1778.8 2975.17,1711.1 2961.22,1671.87C2925.22,1570.67 2850.48,1511.74 2794.15,1480.09C2699.57,1426.97 2393.93,1310.49 2124.26,1207.73C1889.77,1118.37 1687.26,1041.21 1638.26,1011.78C1551.37,959.61 1501.42,807.09 1498.79,717.06C1496.05,624.72 1534.29,465.39 1625.01,416.63C1785.61,330.34 1923.95,266.68 2036.21,227.43C2097.32,206 2137.99,221 2161.21,237.35C2208.04,270.35 2220.91,333.49 2221.14,365.6C2221.37,396.09 2205.9,432.1 2189.53,470.25C2175.29,503.41 2157.53,544.69 2159.66,566.36C2164,611.49 2202.6,668.15 2226.45,673.99C2346.23,703.34 2378.66,639.79 2419.73,559.32C2433.09,533.15 2446.89,506.08 2464.27,483.56C2479.51,463.82 2492.4,440.65 2506.07,416.12C2532.46,368.69 2559.77,319.64 2608.26,288.49L2624.87,277.84C2754.45,194.47 2901.3,100.01 2981.66,160.17C3041.15,204.72 3043.35,279.35 2987.43,354.91C2933.73,427.5 2833.53,573.06 2798.68,658.19C2771.09,725.53 2766.22,797.69 2785.6,851.19C2809.51,917.24 2866,1002.71 2933.55,1034.27C3092.08,1108.37 3538.97,1251.27 3612.66,1237.15C3657.16,1195.86 3688.18,855.05 3663,787.02C3609.39,642.27 3504.23,470.65 3381.71,328.02C3304.3,238 3216.67,136 3105.39,100.58C2990.39,63.93 2811.28,71.82 2653.29,78.8C2633.78,79.66 2614.58,80.51 2595.81,81.26C2546.43,83.26 2492.53,83.49 2435.46,83.78C2270.66,84.59 2087.09,85.49 1925.36,126.37M109.88,1059.37L110.03,1059.37L109.88,1059.37Z" style="fill-rule:nonzero;"/>
    </g>
</svg>
