<?xml version="1.0" encoding="UTF-8" standalone="no"?>
<!DOCTYPE svg PUBLIC "-//W3C//DTD SVG 1.1//EN" "http://www.w3.org/Graphics/SVG/1.1/DTD/svg11.dtd">
<svg width="100%" height="100%" viewBox="0 0 3771 2445" version="1.1" xmlns="http://www.w3.org/2000/svg" xmlns:xlink="http://www.w3.org/1999/xlink" xml:space="preserve" xmlns:serif="http://www.serif.com/" style="fill-rule:evenodd;clip-rule:evenodd;stroke-linejoin:round;stroke-miterlimit:2;">
    <g transform="matrix(1,0,0,1,-153.817,0.00333762)">
        <path d="M288.47,2444C279.152,2444.28 269.825,2443.86 260.57,2442.74C251.761,2441.55 243.225,2438.84 235.34,2434.74C228.275,2431.29 221.45,2427.37 214.91,2423C200.918,2413.52 188.755,2401.59 179.01,2387.78C174.129,2380.76 169.933,2373.3 166.48,2365.48C162.099,2355.91 158.854,2345.86 156.81,2335.53C154.972,2325.59 153.991,2315.51 153.88,2305.41C153.604,2298.11 154.236,2290.8 155.76,2283.66C157.248,2276.69 159.302,2269.86 161.9,2263.22C164.592,2256.49 167.893,2250.02 171.76,2243.89C175.095,2238.55 178.728,2233.41 182.64,2228.48C186.242,2223.85 190.081,2219.4 194.14,2215.16C197.716,2211.51 201.499,2208.08 205.47,2204.87C210.65,2200.66 214.04,2198.66 241.17,2185.21C255.8,2177.95 278.17,2166.98 306.71,2153.01L472.24,2071.67C510.06,2053.06 545.87,2035.43 571.59,2022.83C618.31,1999.93 632.14,1993.4 645.46,1987.39C658.78,1981.38 671.69,1975.91 684.37,1970.49C697.37,1964.94 709.66,1959.67 722.09,1954.62C734.94,1949.45 747.86,1944.54 759.61,1940.34C771.54,1936.1 782.31,1932.61 792.73,1929.47C804.32,1926.01 814.37,1923.3 823.49,1921.25C833.13,1919.04 842.09,1917.47 849.23,1916.25C857.565,1914.81 865.981,1913.87 874.43,1913.45C884.92,1912.82 900.92,1912.32 916.49,1911.99L929.24,1911.77C939.39,1911.6 949.02,1911.45 957.4,1911.08C966.604,1910.72 975.781,1909.86 984.89,1908.49C992.54,1907.32 1001.03,1905.66 1008.82,1903.8C1015.69,1902.18 1020.94,1900.66 1025.82,1899.15C1030.7,1897.64 1034.99,1896.24 1039.82,1894.65L1041.43,1894.12C1047.43,1892.12 1054.11,1890.05 1060.43,1888.2C1067,1886.19 1073.68,1884.54 1080.43,1883.26C1086.94,1882.13 1093.54,1881.63 1100.15,1881.75C1106.35,1881.78 1112.55,1882.24 1118.69,1883.11C1124.85,1884.02 1130.92,1885.47 1136.82,1887.46C1142.65,1889.38 1148.33,1891.73 1153.82,1894.46C1159.45,1897.32 1164.9,1900.49 1170.17,1903.97C1174.95,1907.1 1179.57,1910.48 1184,1914.1C1188.45,1917.66 1193.25,1921.86 1198.11,1926.62C1202.67,1931.09 1207.25,1936.03 1211.87,1941.2L1224.03,1954.74C1227.03,1958.16 1230.25,1961.39 1233.66,1964.41C1236.87,1967.04 1240.26,1969.45 1243.81,1971.61C1246.73,1973.41 1249.76,1975.03 1252.87,1976.47C1255.69,1977.75 1258.56,1978.92 1261.08,1979.78C1262.2,1980.21 1263.38,1980.48 1264.58,1980.58C1268.27,1980.99 1273.06,1981.11 1278.3,1981.2C1284.1,1981.28 1290.3,1981.2 1295.53,1980.98C1298.45,1980.91 1301.35,1980.53 1304.18,1979.82C1307.13,1979.02 1311.74,1977.24 1325.61,1971.54C1340.71,1965.33 1365.54,1955.01 1382.06,1948.03C1398.12,1941.23 1406.06,1937.7 1413.74,1934.17C1419.68,1931.4 1427.25,1927.81 1433.06,1924.51C1436.62,1922.6 1439.98,1920.32 1443.06,1917.7C1445.31,1915.59 1447.36,1913.28 1449.19,1910.8C1450.13,1909.66 1451,1908.47 1451.77,1907.21C1452.27,1905.88 1452.67,1904.53 1452.97,1903.14C1453.69,1900.05 1454.35,1896.45 1454.97,1891.86C1455.39,1888.62 1455.81,1884.86 1456.24,1881.02L1457.24,1872.08C1458.15,1864.25 1459.24,1856.58 1460.57,1849.49C1462.12,1841.13 1464.44,1832.94 1467.49,1825.01C1470.91,1816.29 1475.05,1807.86 1479.86,1799.82C1484.69,1791.74 1490.23,1784.11 1496.4,1777C1502.55,1770.05 1509.24,1763.6 1516.4,1757.7C1521.01,1753.85 1526.07,1749.9 1531.04,1746.03L1543.31,1736.33C1547.5,1732.97 1551.46,1729.79 1555.31,1726.88C1561.59,1722.12 1568.13,1717.72 1574.91,1713.7C1581.03,1710.1 1587.75,1706.6 1594.85,1703.32C1601.7,1700.12 1608.75,1697.36 1615.95,1695.06C1623.75,1692.55 1631.72,1690.62 1639.8,1689.29C1648.14,1687.94 1656.59,1687.35 1665.04,1687.53C1673.39,1687.74 1681.71,1688.46 1689.97,1689.68C1696.97,1690.68 1704.18,1692.1 1712.57,1694.05C1717.57,1695.26 1722.65,1696.55 1727.66,1697.84L1733.06,1699.22C1738.21,1700.63 1743.44,1701.76 1748.71,1702.6C1754.07,1703.29 1759.48,1703.59 1764.88,1703.5C1771.63,1703.57 1778.37,1703.17 1785.07,1702.33C1791.44,1701.41 1797.73,1699.94 1803.85,1697.95C1809.29,1696.23 1814.57,1694.07 1819.64,1691.47C1824.49,1688.91 1829.17,1686.04 1833.64,1682.87C1838.77,1679.29 1843.55,1675.62 1847.81,1671.99C1852.07,1668.36 1856.33,1664.34 1860.42,1660.12C1864.1,1656.32 1867.32,1652.7 1869.6,1649.82C1871.45,1647.42 1873.14,1644.91 1874.68,1642.3C1876.91,1638.69 1880.06,1633.64 1882.53,1628.85C1884.43,1625.14 1886.08,1621.3 1887.47,1617.37C1888.53,1614.72 1889.34,1611.97 1889.89,1609.17C1890.7,1604.49 1891.19,1599.76 1891.35,1595.01C1891.65,1588.58 1891.58,1581.24 1891.41,1574.34C1891.24,1567.44 1890.86,1560.8 1890.28,1554.34C1889.96,1550.63 1889.58,1547.03 1889.28,1543.83C1888.98,1540.63 1888.62,1537.83 1888.44,1535.54C1887.98,1530.19 1887.13,1520.24 1891.84,1509.29C1894.72,1502.79 1898.79,1496.88 1903.84,1491.88C1907.13,1488.56 1910.66,1485.49 1914.42,1482.71C1918.6,1479.45 1923.05,1476.56 1927.72,1474.06C1930.19,1472.76 1933.02,1471.39 1936.41,1469.79C1938.78,1468.67 1941.48,1467.39 1944.58,1465.86C1951.3,1462.5 1959.77,1457.95 1968.49,1453.15C1977.21,1448.35 1986.11,1443.33 1994.91,1437.87C2001.48,1433.81 2008.02,1429.5 2014.59,1425.17L2022.11,1420.26C2031.53,1414.08 2041.17,1408 2050.58,1402.07C2060.52,1395.79 2069.26,1390.28 2078.46,1384.31C2087.95,1378.17 2097.97,1371.53 2108.74,1364.38L2109.98,1363.54C2120.55,1356.54 2131.81,1349.03 2143.36,1341.46L2151.81,1335.94C2160.9,1330 2170.19,1323.94 2179.75,1317.42C2185.75,1313.27 2191.98,1308.92 2198.14,1304.62C2204.88,1299.87 2211.57,1295.18 2217.99,1290.81C2230.46,1282.32 2242.26,1274.81 2254.09,1267.71C2265.6,1260.83 2276.94,1254.55 2287.75,1249.04C2298.09,1243.75 2308.63,1238.87 2318.24,1234.86C2326.47,1231.44 2333.68,1228.8 2341.6,1226.32C2350.75,1223.41 2360.15,1221.32 2369.67,1220.07C2383.52,1218.19 2400.95,1217.07 2410.14,1216.64C2417.06,1216.26 2423.75,1216.01 2429.93,1215.79C2435.4,1215.58 2440.41,1215.4 2444.79,1215.15C2452.84,1214.71 2458.19,1214.08 2465.25,1213.06C2472.31,1212.04 2480.37,1210.79 2488.07,1209.16C2494.27,1207.92 2500.38,1206.25 2506.35,1204.16C2509.3,1203.14 2512.13,1201.78 2514.76,1200.09C2515.24,1199.65 2515.64,1199.13 2515.94,1198.56C2515.05,1197.64 2513.94,1196.56 2512.56,1195.27C2510.56,1193.44 2508.34,1191.51 2506.18,1189.63C2503.06,1186.91 2500,1184.25 2497.42,1181.81C2490.31,1175.1 2485.28,1168.89 2481.47,1162.17C2477.11,1154.53 2474.39,1146.07 2473.47,1137.33C2472.46,1128.35 2473.41,1119.25 2476.23,1110.66C2478.84,1102.71 2483.04,1095.09 2489.45,1086.73C2495.12,1079.37 2497.68,1076.02 2606.52,974.41C2706.23,881.32 2909.98,691.93 3032.88,578.79C3152,469 3188,437.7 3219.32,412.51C3249.32,388.43 3274.49,370.32 3349.32,316.51L3360.26,308.64C3423.13,263.4 3518.63,194.64 3591.16,142.34L3650.23,99.78C3718.54,50.56 3718.65,50.46 3724.39,45.63C3732.09,39.15 3746.39,27.16 3758.14,18.98C3772.34,9.19 3784.42,3.98 3798.56,1.58C3811.14,-0.531 3823.98,-0.531 3836.56,1.58C3848.48,3.65 3859.89,8.022 3870.14,14.45C3879.78,20.465 3888.39,27.987 3895.64,36.73C3903.79,46.26 3910.64,56.833 3916,68.17C3921.26,79.62 3924.12,92.024 3924.41,104.62C3924.72,115.32 3923.41,125.7 3921.21,138.96C3919.21,150.96 3916.09,167.21 3912.96,183.69L3902.1,240.22C3898.1,260.58 3893.53,284.13 3888.92,307.32C3884.22,330.82 3879.49,353.96 3875.05,373.32C3870.74,391.89 3866.47,407.93 3860.76,426.97C3854.81,446.73 3848.53,465.6 3842.09,483.11C3835.34,501.46 3827.66,520.37 3819.84,537.78C3812.84,553.48 3806.1,567.06 3796.63,584.63C3786.74,603.01 3775.77,622.19 3765.74,638.63C3754.96,656.37 3743.74,673.45 3731.46,690.83C3719.29,708.03 3706,725.57 3694.05,740.24C3683.2,753.55 3672.42,765.8 3659.1,779.92C3647.48,792.23 3636.03,803.79 3624.1,815.29C3611.21,827.69 3597.93,839.84 3584.64,851.41C3571.81,862.57 3557.52,874.41 3539.7,888.78C3523.48,901.84 3505.32,916.1 3487.47,929.99C3471.35,942.56 3452.56,957.06 3435.55,969.27C3418.86,981.2 3403.71,991.1 3389.17,999.55C3375.87,1007.27 3362.25,1014.29 3346.33,1021.65C3331.74,1028.36 3317.81,1034.2 3303.67,1039.48C3288.05,1045.36 3272.99,1050.28 3257.67,1054.48C3241.38,1059.04 3224.85,1062.66 3208.14,1065.32C3192.12,1067.67 3175.99,1069.11 3159.81,1069.63C3138.4,1070.52 3119.47,1070.63 3100.22,1070.01C3078.39,1069.27 3055.11,1067.48 3029.14,1065.39C3005.28,1063.48 2981.78,1061.56 2957.14,1059.22L2929.7,1056.55C2914.63,1055.06 2900.21,1053.64 2888.39,1052.66C2871.93,1051.28 2860.15,1050.76 2848.99,1050.91C2835.99,1051.08 2829.17,1052.04 2826.29,1052.59C2822.53,1053.32 2819.93,1054.43 2813.91,1057.05C2807.89,1059.67 2800.54,1062.83 2794.82,1065.88C2790.68,1068.09 2787.66,1070.15 2774.66,1079.69L2721.36,1119.02C2710.44,1127.08 2704.36,1131.47 2699.45,1135.6C2695.46,1138.85 2691.77,1142.46 2688.45,1146.39C2684.62,1150.92 2681.13,1155.73 2677.99,1160.76C2675.08,1165.5 2672.61,1170.5 2670.62,1175.69C2668.42,1181.64 2666.53,1187.71 2664.98,1193.86C2663.49,1199.6 2662.34,1204.6 2661.43,1209.65C2660.92,1212.42 2660.5,1215.25 2660.07,1218C2659.61,1221 2659.15,1223.94 2658.67,1226.7C2657.51,1233.72 2655.74,1240.62 2653.38,1247.33C2650.61,1255.11 2647.13,1262.62 2642.99,1269.77C2638.79,1277.04 2634.16,1284.06 2629.11,1290.77C2624.48,1297.17 2619.2,1303.08 2613.35,1308.39C2608.1,1312.87 2602.36,1316.74 2596.25,1319.95C2590.23,1323.43 2583.91,1326.36 2577.36,1328.7C2569.66,1331.37 2562.24,1332.6 2553.53,1333.7L2546.39,1334.51C2540.98,1335.1 2534.51,1335.8 2526.57,1336.92C2517.79,1338.17 2503.42,1340.45 2484.7,1344.32C2468.48,1347.66 2450.38,1351.93 2433.7,1356.32C2417.6,1360.61 2402.81,1365.06 2388.47,1369.96C2373.69,1374.96 2360.39,1380.19 2346.63,1386.21C2331.86,1392.69 2316.45,1400.21 2300.83,1408.53C2285.52,1416.68 2269.42,1425.94 2255.45,1434.62C2242.91,1442.42 2231.99,1449.83 2221,1457.91C2212.15,1464.46 2203.05,1471.6 2193.18,1479.72C2184.18,1487.09 2177.86,1492.64 2171.23,1498.94C2163.03,1506.8 2155.06,1515.13 2147.64,1523.64C2140.48,1531.86 2132.55,1541.7 2123.38,1553.64C2115.1,1564.48 2109.38,1572.32 2104.5,1579.77C2098.75,1588.47 2093.38,1597.5 2087.98,1606.68L2086.89,1608.52C2081.26,1618.09 2075.48,1627.87 2068.39,1638.61C2060.39,1650.74 2051.18,1663.35 2042.5,1674.14C2034.17,1684.52 2025.28,1694.43 2015.87,1703.84C2007.12,1712.62 1997.55,1721.61 1986.56,1731.33C1974.95,1741.63 1963.63,1751.05 1953.87,1758.55C1941.87,1767.72 1931.28,1774.78 1922.5,1780.46C1909.28,1789.02 1898.08,1795.75 1887.26,1801.66C1874.14,1808.87 1860.6,1815.3 1846.72,1820.91C1836.54,1825.02 1826.14,1828.61 1815.72,1832.19L1806.65,1835.32C1794.26,1839.66 1782,1844.22 1771.23,1848.53C1760.61,1852.76 1751.5,1856.71 1743.37,1860.42C1735.24,1864.13 1728.05,1867.6 1721.59,1870.83C1715.5,1873.72 1709.59,1877 1703.9,1880.63C1697.71,1884.63 1689.03,1890.71 1679.5,1897.84C1671.73,1903.65 1665.41,1908.59 1657.89,1915.33C1649.89,1922.46 1640.89,1931.4 1631.01,1941.16C1621.01,1951.06 1610.26,1961.82 1599.56,1973.29C1588.86,1984.76 1578.08,1997.07 1568.56,2007.96L1563.18,2014.12C1555.52,2022.92 1548.43,2031.03 1540.78,2039.58C1531.27,2050.23 1520.97,2061.5 1512.25,2070.73C1502.93,2080.59 1495.53,2087.99 1488.25,2094.73C1480.31,2102.11 1472.67,2108.57 1464.14,2115.13C1455.78,2121.55 1446.14,2128.34 1436.28,2134.77C1426.69,2141.03 1417.05,2146.77 1406.8,2152.48C1397.35,2157.69 1386.97,2162.98 1375.09,2168.7C1362.45,2174.76 1351.01,2179.87 1340.09,2184.36C1328.48,2189.13 1315.94,2193.82 1303.83,2197.91C1291.44,2202.09 1280.83,2205.25 1271.22,2207.56C1261.77,2209.9 1252.17,2211.59 1242.49,2212.62C1234.28,2213.44 1226.02,2213.77 1217.77,2213.62C1210.04,2213.52 1201.77,2213.22 1195.2,2212.78C1181.04,2212.31 1167.15,2208.71 1154.54,2202.26C1148.75,2199.53 1142.05,2196.16 1135.71,2192.52C1128.87,2188.65 1122.3,2184.31 1116.07,2179.52C1110.13,2174.87 1104.53,2169.79 1099.33,2164.33C1094.67,2159.44 1090.49,2154.55 1086.11,2149.11L1081.3,2143.11C1079.12,2140.36 1076.84,2137.5 1074.44,2134.61C1071.49,2130.89 1068.26,2127.4 1064.78,2124.17C1061.76,2121.63 1058.53,2119.37 1055.11,2117.41C1054.39,2116.94 1053.63,2116.52 1052.86,2116.14C1050.23,2115.53 1047.56,2115.12 1044.86,2114.94C1042.76,2114.77 1040.64,2114.9 1038.58,2115.33C1033.54,2116.39 1028.57,2117.8 1023.73,2119.56C1016.08,2122.19 1006.73,2125.85 998.98,2128.94L995.98,2130.16C988.56,2133.16 982.33,2135.66 975.82,2137.84C966.925,2140.78 957.836,2143.09 948.62,2144.76C939.36,2146.49 928.42,2148.06 917.77,2149.2C907.82,2150.2 899.07,2150.84 890.51,2151.2C880.29,2151.64 872.17,2151.72 864.91,2151.43C856.91,2151.11 849.74,2150.31 841.41,2149.34C833.77,2148.42 825.21,2147.34 817.56,2146.34L812.56,2145.68C807.4,2144.99 802.69,2144.34 798.41,2143.9C792.91,2143.37 787.385,2143.14 781.86,2143.22C773.52,2143.22 761.97,2143.44 753.22,2143.69C744.12,2143.94 739.35,2144.15 733.22,2144.86C726.44,2145.64 717.86,2147.03 708.44,2148.86C697.71,2150.92 687.91,2153.19 678.44,2155.77C667.597,2158.69 656.944,2162.27 646.54,2166.5C635.95,2170.8 623.54,2176.67 611.67,2182.98C601.921,2188.15 592.452,2193.83 583.3,2200C575.95,2205 568.79,2210.46 560.75,2217.17C553.54,2223.17 546.75,2229.29 540.66,2235.25C533.49,2242.25 528.05,2248.25 524.72,2251.99C521.58,2255.57 518.95,2258.81 516.25,2262.11L509.25,2270.54C506.11,2274.31 502.78,2278.27 499.79,2282.3C495.9,2287.47 492.59,2292.75 489.86,2297.24C487.4,2301.24 485.08,2305.24 482.63,2309.45L479.52,2314.73C475.52,2321.53 471.06,2329.13 465.95,2336.96C460.84,2344.79 454.9,2353.11 449.27,2360.34C444.36,2366.73 439.27,2372.72 433.44,2379.15C427.859,2385.34 421.865,2391.14 415.5,2396.52C408.065,2402.72 400.238,2408.44 392.07,2413.64C383.974,2418.84 375.504,2423.44 366.73,2427.39C358.614,2431.01 350.241,2434.01 341.68,2436.39C333.14,2438.81 324.456,2440.69 315.68,2442.02C306.661,2443.29 297.568,2443.96 288.46,2444.02M913.46,1983.43C901.23,1983.71 889.32,1984.11 881.02,1984.6C874.876,1984.87 868.757,1985.54 862.7,1986.6C856.7,1987.6 849.05,1988.91 840.77,1990.8C833.06,1992.54 824.41,1994.85 814.26,1997.88C804.84,2000.7 795.06,2003.88 784.26,2007.71C773.46,2011.54 761.26,2016.19 749.26,2021C737.26,2025.81 725.26,2031 713.12,2036.16C700.3,2041.63 687.72,2046.99 674.83,2052.76C662.2,2058.45 648.78,2064.76 602.83,2087.26C577.12,2099.83 541.28,2117.43 503.48,2136.02L337.64,2217.34C309.23,2231.24 286.88,2242.16 272.28,2249.4C266.91,2252.05 250.53,2260.16 247.67,2261.95C246.76,2262.75 244.76,2264.51 242.67,2266.6C240.25,2269.14 237.966,2271.81 235.83,2274.6C233.407,2277.63 231.157,2280.8 229.09,2284.09C227.377,2286.76 225.911,2289.59 224.71,2292.53C223.583,2295.48 222.677,2298.51 222,2301.6C221.71,2302.95 221.63,2303.41 221.69,2306.97C221.726,2312.7 222.244,2318.42 223.24,2324.07C224.211,2328.73 225.711,2333.26 227.71,2337.58C229.228,2341.06 231.077,2344.38 233.23,2347.5C235.419,2350.59 237.879,2353.47 240.58,2356.12C243.509,2359.01 246.699,2361.62 250.11,2363.92C253.991,2366.48 258.033,2368.78 262.21,2370.82C264.91,2372.15 265.15,2372.19 266.71,2372.41C272.61,2373.01 278.543,2373.21 284.47,2373.02C296.949,2373.02 309.363,2371.23 321.33,2367.69C326.911,2366.16 332.369,2364.22 337.66,2361.88C343.545,2359.21 349.227,2356.11 354.66,2352.61C360.452,2348.91 366.01,2344.86 371.3,2340.48C375.484,2336.93 379.42,2333.09 383.08,2329C386.97,2324.73 391.08,2320 395.38,2314.39C399.98,2308.45 404.79,2301.72 408.96,2295.39C413.4,2288.59 417.29,2281.98 420.76,2276.02L423.82,2270.79C426.5,2266.21 429.02,2261.9 431.68,2257.54C435.03,2252.02 439.61,2244.73 445.17,2237.32C448.8,2232.42 452.91,2227.47 456.79,2222.81L463.35,2214.88C466.47,2211.05 469.55,2207.29 473.25,2203.06C479.15,2196.33 485.88,2189.27 492.71,2182.6C499.97,2175.5 507.98,2168.28 516.48,2161.17C525.347,2153.68 534.593,2146.64 544.18,2140.09C555.22,2132.66 566.646,2125.83 578.41,2119.61C588.17,2114.41 603.14,2106.85 619.23,2100.29C632.021,2095.07 645.119,2090.63 658.45,2087C669.45,2084 680.81,2081.34 693.11,2078.94C704.27,2076.76 714.28,2075.15 722.83,2074.14C732.14,2073.07 739.38,2072.79 748.6,2072.54C757.82,2072.29 770.19,2071.98 779.09,2072C786.886,2071.9 794.681,2072.24 802.44,2073C807.35,2073.49 812.76,2074.21 818.68,2075L823.53,2075.64C830.96,2076.64 839.22,2077.64 846.53,2078.51C852.93,2079.26 858.53,2079.91 864.74,2080.16C870.95,2080.41 877.74,2080.22 884.74,2079.92C892,2079.59 899.44,2079.09 907.91,2078.18C916.73,2077.24 926.06,2075.88 933.55,2074.48C939.803,2073.35 945.971,2071.8 952.01,2069.82C957.24,2068.06 962.32,2065.97 968.41,2063.51L971.57,2062.22C980.3,2058.73 990.8,2054.64 999.35,2051.69C1007.3,2048.84 1015.45,2046.58 1023.73,2044.94C1031.2,2043.52 1038.83,2043.07 1046.42,2043.6C1053.64,2044.06 1060.81,2045.19 1067.82,2046.98C1075.02,2048.95 1081.89,2051.95 1088.21,2055.91C1095.41,2060.13 1102.23,2064.98 1108.57,2070.41C1115.15,2076.32 1121.25,2082.74 1126.81,2089.61C1129.53,2092.92 1132.05,2096.08 1134.48,2099.11L1138.94,2104.67C1142.04,2108.49 1144.94,2111.91 1148.08,2115.2C1150.72,2117.99 1153.56,2120.57 1156.58,2122.93C1160.11,2125.61 1163.81,2128.05 1167.67,2130.22C1172.27,2132.85 1177.17,2135.29 1181.34,2137.22C1183.6,2138.36 1185.94,2139.33 1188.34,2140.13C1191.08,2140.71 1193.86,2141.05 1196.66,2141.13C1202.18,2141.49 1209.08,2141.73 1215.51,2141.8C1221.2,2141.94 1226.9,2141.73 1232.57,2141.16C1239.25,2140.43 1245.88,2139.25 1252.4,2137.62C1260.05,2135.76 1268.9,2133.13 1279.4,2129.62C1290.17,2125.95 1301.34,2121.78 1311.66,2117.52C1321.4,2113.52 1331.66,2108.89 1343.17,2103.38C1353.17,2098.58 1362.59,2093.79 1371.53,2088.85C1380.47,2083.91 1388.6,2079.03 1396.8,2073.66C1405.27,2068.12 1413.46,2062.35 1420.48,2056.95C1427.32,2051.69 1433.48,2046.47 1439.86,2040.55C1446,2034.85 1452.43,2028.38 1460.72,2019.61C1469.01,2010.84 1478.88,2000.02 1487.96,1989.85C1495.39,1981.53 1502.31,1973.61 1509.77,1965.03L1515.17,1958.84C1525.11,1947.45 1536.32,1934.62 1547.57,1922.56C1558.82,1910.5 1570.24,1899.05 1580.79,1888.56C1590.58,1878.86 1600.92,1868.68 1610.04,1860.47C1619.39,1852.09 1627.27,1845.92 1636.23,1839.21C1643.82,1833.53 1654.9,1825.45 1664.51,1819.28C1672.24,1814.35 1680.25,1809.88 1688.51,1805.91C1695.51,1802.4 1703.34,1798.62 1712.25,1794.54C1721.16,1790.46 1731.33,1786.05 1743.05,1781.37C1748.05,1779.37 1753.26,1777.37 1758.69,1775.3C1753.07,1775.11 1747.46,1774.62 1741.89,1773.83C1734.05,1772.65 1726.28,1771.01 1718.62,1768.93L1713.04,1767.5C1708.45,1766.31 1703.83,1765.12 1699.32,1764.04C1693.88,1762.77 1688.51,1761.64 1682.76,1760.81C1677.43,1759.99 1672.06,1759.51 1666.67,1759.37C1662.32,1759.25 1657.97,1759.53 1653.67,1760.22C1648.89,1761.03 1644.17,1762.18 1639.56,1763.67C1634.93,1765.15 1630.4,1766.93 1626,1769C1621.36,1771.15 1616.56,1773.59 1612,1776.28C1607.42,1779 1602.99,1781.99 1598.75,1785.21C1595.4,1787.75 1591.92,1790.54 1588.24,1793.5L1575.24,1803.76C1570.88,1807.17 1566.43,1810.63 1562.38,1814C1557.86,1817.69 1553.63,1821.74 1549.74,1826.09C1546.2,1830.16 1543.03,1834.54 1540.27,1839.17C1537.46,1843.84 1535.04,1848.73 1533.04,1853.8C1531.5,1857.82 1530.35,1861.98 1529.59,1866.22C1528.59,1871.58 1527.78,1877.47 1527.07,1883.58L1526.07,1892.03C1525.58,1896.47 1525.07,1900.74 1524.6,1904.55C1523.8,1910.76 1522.69,1916.92 1521.27,1923.02C1519.85,1929.33 1517.75,1935.47 1515,1941.32C1512.26,1946.81 1508.93,1951.99 1505.08,1956.76C1500.82,1962.43 1496.04,1967.69 1490.81,1972.48C1484.17,1978.35 1476.91,1983.46 1469.15,1987.74C1461.29,1992.19 1452.49,1996.38 1444.92,1999.87C1436.76,2003.65 1428.28,2007.41 1411.15,2014.65C1394.44,2021.7 1369.31,2032.12 1354.04,2038.37C1338.77,2044.62 1331.74,2047.43 1324.54,2049.37C1317.22,2051.27 1309.72,2052.39 1302.17,2052.69C1295.56,2053.03 1287.54,2053.1 1280.17,2052.96C1271.34,2052.83 1265.05,2052.5 1259.83,2051.9C1253.59,2051.23 1247.44,2049.84 1241.51,2047.76C1236.78,2046.13 1231.6,2044.06 1226.41,2041.66C1220.69,2039.01 1215.13,2036.02 1209.76,2032.71C1203.03,2028.58 1196.6,2023.97 1190.53,2018.92C1184.67,2013.81 1179.15,2008.32 1174,2002.5C1171.36,1999.61 1168.69,1996.62 1166,1993.64L1161.39,1988.49C1157.82,1984.49 1154.39,1980.7 1150.94,1977.34C1147.94,1974.44 1144.94,1971.84 1142.22,1969.59C1139.5,1967.34 1137.07,1965.59 1134.22,1963.71C1131.38,1961.81 1128.42,1960.08 1125.37,1958.53C1122.94,1957.33 1120.42,1956.29 1117.85,1955.44C1115.73,1954.72 1113.55,1954.18 1111.34,1953.85C1108.32,1953.44 1105.28,1953.24 1102.24,1953.23C1099.69,1953.12 1097.13,1953.3 1094.62,1953.75C1090.31,1954.58 1086.06,1955.65 1081.87,1956.96C1076.15,1958.64 1070.07,1960.59 1064.65,1962.33L1063.11,1962.84C1057.91,1964.53 1053.2,1966.06 1048.11,1967.64C1042.05,1969.51 1035.46,1971.4 1026.91,1973.43C1017.41,1975.68 1006.99,1977.71 997.61,1979.12C986.146,1980.85 974.595,1981.94 963.01,1982.38C954.11,1982.77 943.84,1982.93 933.01,1983.09L920.5,1983.29L913.5,1983.44M1960,1539.72C1960.37,1543.18 1960.77,1546.96 1961.1,1550.8C1961.78,1558.57 1962.22,1566.56 1962.48,1575.09C1962.72,1583.8 1962.75,1592.98 1962.4,1601.19C1962.09,1609.35 1961.2,1617.47 1959.74,1625.5C1958.49,1632.08 1956.67,1638.53 1954.29,1644.79C1951.88,1651.45 1949.06,1657.95 1945.83,1664.25C1944,1667.79 1941.89,1671.51 1939.83,1674.94C1949.14,1666.67 1957.21,1659.05 1964.53,1651.69C1972.26,1643.96 1979.56,1635.82 1986.41,1627.3C1993.7,1618.23 2001.77,1607.12 2008.56,1596.88C2014.92,1587.25 2020.09,1578.43 2025.17,1569.81L2026.25,1567.97C2032.25,1557.76 2038.25,1547.73 2044.63,1538.09C2050.43,1529.29 2056.89,1520.35 2066.16,1508.19C2076.22,1495.04 2085.03,1484.19 2093.1,1474.85C2101.87,1464.79 2111.26,1454.94 2121.02,1445.59C2123.14,1443.59 2125.24,1441.59 2127.35,1439.7C2124.35,1441.7 2121.44,1443.55 2118.57,1445.42C2109.1,1451.54 2100.15,1457.18 2091.01,1462.96C2080.84,1469.35 2071.51,1475.24 2062.34,1481.22L2055,1486C2047.91,1490.64 2040.88,1495.27 2033.78,1499.65C2023.94,1505.73 2014.02,1511.34 2004.36,1516.65C1994.7,1521.96 1985.36,1526.96 1977.93,1530.65C1974.38,1532.41 1971.25,1533.89 1968.51,1535.18C1966.23,1536.27 1964.29,1537.18 1962.65,1538.04C1961.74,1538.53 1960.85,1539.08 1960,1539.68M2400.26,1289.77C2393.09,1290.32 2386.76,1290.95 2381.94,1291.59C2376.25,1292.32 2370.65,1293.57 2365.19,1295.32C2359.3,1297.16 2354.08,1299.07 2347.79,1301.69C2339.85,1304.96 2330.73,1309.21 2322.04,1313.62C2312.59,1318.44 2302.58,1324 2292.31,1330.11C2290.73,1331.06 2289.12,1332.02 2287.52,1333C2297.07,1328.28 2306.48,1323.89 2315.73,1319.82C2331.28,1312.98 2346.25,1307.13 2362.92,1301.42C2375.01,1297.28 2387.31,1293.42 2400.26,1289.77M2547.56,1131.58C2549.01,1132.89 2550.63,1134.28 2552.26,1135.71C2554.99,1138.08 2557.76,1140.49 2560.26,1142.79C2565.97,1147.93 2571.21,1153.58 2575.9,1159.67C2580.66,1165.77 2584.29,1172.67 2586.63,1180.05C2588.63,1186.39 2589.51,1193.04 2589.21,1199.69C2589.51,1197.86 2589.81,1196 2590.21,1194.16C2591.42,1187.42 2592.92,1180.77 2594.94,1173.02C2597.14,1164.38 2599.81,1155.86 2602.94,1147.51C2606.46,1138.36 2610.81,1129.55 2615.94,1121.19C2620.89,1113.18 2626.44,1105.55 2632.53,1098.37C2638.4,1091.41 2644.89,1085.01 2651.93,1079.23C2657.58,1074.54 2664.42,1069.44 2676.93,1060.23L2730.22,1020.85C2743.59,1011.03 2749.86,1006.5 2758.68,1001.77C2766.43,997.63 2775.48,993.67 2782.76,990.5C2790.35,987.19 2798.22,983.76 2809.76,981.5C2819.3,979.64 2830.95,978.71 2845.35,978.5C2858.91,978.31 2872.77,978.89 2891.7,980.44C2903.84,981.44 2918.7,982.88 2934.16,984.44L2961.27,987.05C2985.56,989.33 3008.7,991.2 3032.22,993.05C3057.22,995.05 3079.64,996.73 3099.92,997.39C3117.24,997.98 3134.34,997.84 3153.79,996.98C3167.26,996.573 3180.7,995.388 3194.03,993.43C3207.95,991.194 3221.73,988.155 3235.3,984.33C3248.52,980.66 3261.55,976.39 3275.16,971.26C3287.69,966.56 3300.06,961.37 3313,955.4C3326.82,949 3338.56,942.94 3349.89,936.35C3362.46,929.04 3375.78,920.35 3390.59,909.7C3406.59,898.22 3424.66,884.26 3440.23,872.11C3457.77,858.46 3475.56,844.43 3491.51,831.59C3508.6,817.82 3522.21,806.5 3534.33,795.95C3546.72,785.15 3559.11,773.8 3571.15,762.21C3582.26,751.5 3592.91,740.73 3603.73,729.21C3615.83,716.37 3625.57,705.3 3635.32,693.34C3646.32,679.87 3658.53,663.67 3669.81,647.73C3681.29,631.48 3691.34,616.17 3701.43,599.59C3710.83,584.13 3721.14,566.09 3730.43,548.77C3739.01,532.77 3745.07,520.57 3751.43,506.53C3758.43,490.76 3765.71,472.94 3771.82,456.3C3777.82,440.1 3783.62,422.59 3789.15,404.24C3794.39,386.75 3798.33,372.02 3802.25,355.04C3806.57,336.33 3811.15,313.93 3815.69,291.17C3820.29,268.12 3824.87,244.71 3828.8,224.52L3839.61,168.29C3842.61,152.35 3845.61,136.69 3847.61,125.12C3849.38,114.48 3850,108.9 3849.86,104.55C3849.89,101.656 3849.26,98.792 3848.04,96.17C3845.57,91.168 3842.48,86.5 3838.83,82.28C3836.76,79.628 3834.26,77.342 3831.43,75.52C3829.61,74.339 3827.57,73.546 3825.43,73.19C3821.45,72.559 3817.41,72.559 3813.43,73.19C3811.59,73.49 3809.28,73.88 3802.31,78.7C3793.31,84.94 3780.15,95.96 3773.85,101.26C3765.95,107.9 3765.95,107.9 3695.36,158.72L3636.21,201.29C3563.58,253.55 3467.92,322.37 3404.95,367.63L3394.01,375.49C3320.19,428.49 3295.36,446.36 3266.79,469.28C3236.64,493.47 3201.52,524.09 3083.63,632.52C2960.56,745.61 2756.67,935 2656.89,1028C2572.55,1106.65 2551.58,1126.85 2547.56,1131.61" style="fill-rule:nonzero;"/>
    </g>
</svg>
