<?xml version="1.0" encoding="UTF-8" standalone="no"?>
<!DOCTYPE svg PUBLIC "-//W3C//DTD SVG 1.1//EN" "http://www.w3.org/Graphics/SVG/1.1/DTD/svg11.dtd">
<svg width="100%" height="100%" viewBox="0 0 3643 2651" version="1.1" xmlns="http://www.w3.org/2000/svg" xmlns:xlink="http://www.w3.org/1999/xlink" xml:space="preserve" xmlns:serif="http://www.serif.com/" style="fill-rule:evenodd;clip-rule:evenodd;stroke-linejoin:round;stroke-miterlimit:2;">
    <g transform="matrix(1,0,0,1,0.0505896,-0.449934)">
        <path d="M1706.51,2650.76L1706.51,2650.76C1296.3,2651.76 901.905,2642.01 512.64,2640.9C431.317,2640.67 371.898,2612.44 332.043,2572.33C235.099,2474.78 255.047,2304.09 364.397,2244.8C506.696,2167.63 640.557,2102.18 779.475,2021.18C860.001,1974.22 864.585,1845.99 765.28,1795.49C628.221,1725.8 543.526,1680.33 411.308,1605.44C372.731,1583.59 322.025,1525.54 307.024,1483.55C200.552,1185.56 112.47,912.096 11.672,610.193C-7.342,553.244 -2.699,498.578 21.781,452.686C45.629,407.978 88.858,371.02 150.534,349.914C229.454,322.905 264.53,309.786 349.39,282.436C388.418,269.858 431.689,274.437 472.081,292.379C528,317.218 578.015,367.868 600.654,426.226L600.659,426.24C667.25,598.102 714.691,768.793 769.977,938.526L769.979,938.532C775.463,955.376 792.372,974.074 809.416,986.762C817.055,992.448 823.999,998.184 830.295,998.049L830.304,998.049C837.949,997.887 848.838,993.626 858.422,987.804C862.145,985.542 865.674,982.986 868.595,980.073C869.909,978.764 871.709,977.865 871.95,976.227L871.951,976.222C912.083,703.626 951.209,431.169 985.743,159.111C994.443,90.145 1063.69,33.495 1113.64,11.98C1160.45,-8.184 1230.05,0.037 1274.78,21.685C1318.59,42.885 1361.36,88.791 1380.06,137.638L1380.06,137.639C1401.75,194.323 1400.07,259.399 1422.9,316.472C1450.86,386.385 1484.24,458.744 1536.31,514.303L1536.32,514.307C1574.62,555.196 1641.72,598.318 1684.33,647.796L1684.34,647.799C1715.8,684.339 1774.18,753.817 1749.68,838.332L1749.68,838.335C1726.1,919.635 1670.22,1079.23 1634.68,1248.08L1634.68,1248.09C1628.78,1276.11 1645.08,1312.02 1666.79,1326.5L1666.8,1326.5C1698.08,1347.35 1757.88,1343.1 1797.88,1331.44C1887.94,1305.17 1980.62,1270.33 2061.96,1216.94C2131.34,1171.39 2188.83,1114.11 2244.76,1052.78C2286.95,1006.52 2324.59,953.139 2351.3,895.682L2351.3,895.677C2433.85,718.144 2499.5,535.803 2572.88,352.341C2597.78,290.106 2642.57,212.266 2696.59,180.187C2730.23,160.213 2796.58,131.935 2834.45,131.79C2967.26,131.159 3041.6,130.25 3176.12,132.686L3176.13,132.687C3198.55,133.101 3230.77,144.54 3259.49,162.182C3288.26,179.862 3313.01,203.476 3323.4,223.263C3394,357.545 3455.88,464.7 3530.65,593.085L3530.65,593.087C3543.6,615.33 3551.78,651.658 3550.49,688.62C3549.17,726.602 3537.77,764.513 3516.76,789.057C3357.44,975.303 3239.92,1121.39 3074.95,1305.4L3074.94,1305.41C3051.68,1331.34 3033.51,1369.42 3029.37,1405.89C3027.09,1426.04 3028.89,1445.77 3039.05,1461.32L3039.05,1461.33C3230.28,1754.07 3388.14,2027.81 3606.43,2325.03C3697.95,2449.64 3605.41,2635.72 3452.74,2636.53L3452.74,2636.53C2860.79,2639.57 2305.63,2649.34 1706.51,2650.76ZM1706.33,2573.76C2305.37,2572.34 2860.47,2562.57 3452.34,2559.53C3544.7,2559.04 3599.74,2446 3544.37,2370.61C3325.18,2072.17 3166.6,1797.37 2974.59,1503.44C2955.01,1473.47 2948.46,1436.03 2952.86,1397.21C2958.76,1345.25 2984.48,1290.94 3017.61,1254C3182.16,1070.47 3299.34,924.757 3458.26,739.003L3458.26,739C3469.2,726.209 3472.85,705.736 3473.54,685.942C3474.26,665.135 3471.4,644.354 3464.11,631.833C3388.76,502.439 3326.4,394.434 3255.24,259.097L3255.23,259.079C3249.62,248.386 3234.72,237.335 3219.18,227.79C3203.59,218.209 3186.88,209.9 3174.71,209.673C3040.89,207.25 2966.94,208.161 2834.81,208.79L2834.75,208.79C2807.35,208.874 2760.26,231.934 2735.91,246.393C2694.44,271.018 2663.49,333.166 2644.38,380.939C2570.46,565.716 2504.27,749.333 2421.12,928.14C2391.13,992.662 2349.03,1052.72 2301.66,1104.66C2241.35,1170.79 2179.02,1232.19 2104.22,1281.3L2104.22,1281.31C2016.44,1338.93 1916.63,1377.01 1819.44,1405.36L1819.44,1405.36C1759.69,1422.78 1670.81,1421.71 1624.09,1390.57C1580.24,1361.34 1547.42,1288.79 1559.34,1232.22C1595.36,1061.09 1651.82,899.288 1675.72,816.888C1682.67,792.94 1676.43,771.468 1666.98,753.296C1654.86,730.023 1637.4,711.302 1625.99,698.044C1584.06,649.362 1517.82,607.185 1480.12,566.954C1421.55,504.453 1382.86,423.714 1351.4,345.068C1328.43,287.641 1329.97,222.198 1308.14,165.161C1296.22,134.008 1269.17,104.515 1241.24,90.995C1214.22,77.921 1172.37,70.522 1144.1,82.699C1113.65,95.814 1067.44,126.708 1062.14,168.749L1062.13,168.778C1027.53,441.371 988.337,714.334 948.13,987.433C944.945,1009.08 931.213,1029.55 911.014,1045.01C886.606,1063.7 853.259,1074.58 831.941,1075.03C812.455,1075.45 787.076,1066.12 763.439,1048.53C733.632,1026.34 706.351,991.824 696.761,962.368C641.909,793.967 594.932,624.584 528.865,454.071C513.391,414.185 479.042,379.726 440.823,362.749C418.452,352.812 394.626,348.757 373.01,355.724C288.71,382.894 253.866,395.935 175.466,422.766C96.252,449.873 60.918,514.552 84.708,585.807C185.33,887.184 273.248,1160.18 379.535,1457.65C389.515,1485.58 423.589,1523.91 449.252,1538.44L449.255,1538.44C580.335,1612.69 664.3,1657.76 800.18,1726.85L800.181,1726.85C958.84,1807.54 946.923,2012.66 818.266,2087.7L818.262,2087.7C678.641,2169.1 544.123,2234.93 401.103,2312.48C372.975,2327.74 355.716,2355.74 349.049,2386.88C339.089,2433.39 352.361,2487.43 392.105,2523.24C419.774,2548.17 459.947,2563.75 512.86,2563.9C901.993,2565.01 1296.26,2574.76 1706.33,2573.76L1706.33,2573.76Z"/>
    </g>
</svg>
