<?xml version="1.0" encoding="UTF-8" standalone="no"?>
<!DOCTYPE svg PUBLIC "-//W3C//DTD SVG 1.1//EN" "http://www.w3.org/Graphics/SVG/1.1/DTD/svg11.dtd">
<svg width="100%" height="100%" viewBox="0 0 4415 2855" version="1.1" xmlns="http://www.w3.org/2000/svg" xmlns:xlink="http://www.w3.org/1999/xlink" xml:space="preserve" xmlns:serif="http://www.serif.com/" style="fill-rule:evenodd;clip-rule:evenodd;stroke-linejoin:round;stroke-miterlimit:2;">
    <g transform="matrix(1,0,0,1,0.0410503,-0.0399228)">
        <path d="M778.62,2854.48C766.403,2854.38 754.365,2851.52 743.41,2846.11C717.94,2833.99 695.72,2801.69 654.53,2735.98C645.95,2722.31 638.05,2709.68 631.66,2700.4C604.49,2660.9 550.66,2618.83 498.53,2578.13C485.82,2568.2 473.09,2558.25 460.53,2548.25L449.38,2539.37C408.1,2506.49 365.38,2472.49 343.7,2438.65C318.4,2399.11 300.7,2331.23 302.53,2280.74C302.68,2276.38 303.05,2270.74 303.46,2264.19C304.27,2251.35 306.46,2217.26 304.2,2197.93C220.98,2185.63 119.53,2117.29 84.74,2080.15C53.83,2047.15 -38.04,1908.38 17.36,1837.82C67.09,1774.48 143.64,1634.96 224.68,1487.22L260.27,1422.43C315.08,1322.91 369.15,1220.76 416.87,1130.62C469.52,1031.12 515,945.21 545.49,893.07C572.21,847.37 655.1,748.18 729,748.18L730.73,748.18C792.66,749.41 851.73,802.83 899.13,845.74C942,884.48 1005,952.09 1055.57,1006.39C1081.66,1034.39 1104.18,1058.55 1119.57,1074.12C1123.24,1077.82 1128.16,1083.53 1133.82,1090.12C1137.65,1094.58 1144.2,1102.27 1150.56,1109.12C1160.56,1092.94 1172.95,1068.28 1180.69,1052.85C1190.25,1033.85 1199.27,1015.85 1207.9,1002.61C1219.72,984.61 1233.69,962.45 1249.19,938.02C1299.46,858.71 1362.01,760.02 1420.07,685.68C1424.72,679.68 1429.79,671.25 1435.16,662.26C1452.05,634.03 1475.16,595.34 1518.56,590.33C1558.08,585.91 1599.23,611.97 1639,637.25C1647.89,642.91 1656.53,648.44 1664.64,653.17C1704,676.23 1760.56,711.77 1826,753C1904.68,802.48 1993.86,858.56 2067.56,901.63C2097.5,919.13 2128.77,937.89 2160.56,956.94C2268.22,1021.54 2379.56,1088.32 2462.25,1119.94C2520.25,1142.14 2584.89,1145.02 2653.25,1148.08C2674.77,1149.08 2696.25,1150.01 2717.43,1151.57C2916.56,1166.23 3481.71,1201.05 3666.87,1206.81C3713.36,1208.28 3767.71,1200.75 3795.87,1188.96C3818.25,1179.59 3833.5,1162.76 3833.98,1157.1C3832.82,1130.22 3829.9,1096.38 3826.5,1057.2C3823.19,1018.8 3819.43,975.31 3816.88,931.63C3812.41,855.55 3785.62,784.08 3775.52,757.18C3765.58,730.63 3758.1,710.18 3751.84,693.09C3733.35,642.51 3725.69,621.58 3694.65,553.81C3655.06,467.3 3632.65,397.33 3643.03,315.81L3648.41,273.54C3657.34,202.94 3667.49,122.93 3673.99,80.05C3680.73,35.53 3723.42,2.67 3777.79,0.15C3806.38,-1.23 3859.66,9.29 3898.31,93.59C3908.02,114.77 3932.55,137.59 3963.88,154.65C3982.22,164.65 4063.38,169.47 4121.21,160.75C4136.61,158.428 4152.3,162.667 4164.44,172.43C4195.19,196.62 4202.83,250 4209.61,317.26C4210.49,325.88 4211.15,332.97 4211.87,337.33C4239.98,509.61 4300.1,957.98 4348.41,1318.25C4375.72,1521.97 4399.29,1697.91 4412.14,1787.25C4416.87,1820.09 4412.97,1874.71 4398.45,1905.64C4382.91,1938.72 4339.99,2003.18 4307.96,2048.35C4229.81,2158.47 4215.02,2163.14 4192.39,2162.35C4034.79,2157.78 3727.06,2137.9 3543.22,2126.02C3501.22,2123.33 3465.14,2121.02 3437.85,2119.28C3311.96,2111.47 3246.3,2041.78 3242.65,1912.11C3242.34,1900.53 3238.85,1882.18 3235.36,1868.5C3202.06,1866.5 3157.24,1863.89 3110.18,1861.18C3024.7,1856.18 2931.88,1850.81 2887.67,1847.96C2885.67,1852.84 2883.52,1859.55 2882.05,1864.19C2880.49,1869.03 2878.99,1873.68 2877.43,1877.94C2872.66,1891.01 2865.94,1922.1 2859.43,1952.14C2836.13,2060.08 2823.84,2120 2772.07,2117.62C2741.8,2116.44 2707.07,2115.22 2669.71,2113.9C2521.45,2108.69 2336.97,2102.17 2225.52,2092.5C2177.19,2088.3 2128.24,2057.72 2100.79,2014.59C2069.68,1965.66 2067.48,1906.49 2068.95,1875.59C2069.36,1866.78 2070.5,1856.93 2071.75,1846.59C2073.93,1828.59 2077.49,1799.13 2070.92,1790.23C2060.57,1786.36 2029.11,1787.42 2011.92,1788C1999.53,1788.44 1987.52,1788.83 1976.59,1788.6C1922.82,1787.42 1869.77,1784.41 1811.97,1760.6C1732.8,1728.04 1577.58,1596.45 1427.48,1469.18C1356.48,1408.95 1289.32,1352.04 1245.95,1319.72C1241.2,1316.18 1236.07,1311.72 1230.76,1307.15C1229.91,1306.41 1228.94,1305.59 1227.94,1304.73C1220.61,1320.34 1212.25,1342.73 1206.94,1356.84C1204.07,1364.54 1201.31,1371.94 1198.68,1378.68L1187.1,1408.21C1155.43,1488.88 1102.44,1623.91 1071.89,1728.6C1064.77,1752.98 1056.77,1777.78 1048.59,1803.09C1035.22,1844.56 1021.35,1887.44 1010.65,1931.51C999.3,1978.19 990.65,2028.19 982.2,2076.51C976.91,2106.94 971.64,2137.2 965.75,2166.73C946.75,2262.14 930.37,2367.73 915.92,2460.95C908.07,2511.52 900.67,2559.26 894.14,2596.41C891.2,2613.18 888.31,2635.14 885.27,2658.41C876.82,2722.83 870.42,2766.95 859.1,2791.91C845.46,2821.91 826.93,2841.46 803.98,2849.91C795.855,2852.92 787.256,2854.47 778.59,2854.46M86.28,1890.75C81.89,1912.2 117.65,1988.06 147.45,2019.85C175.96,2050.27 271.23,2110.21 326.63,2112.23C342.729,2112.83 357.887,2120.05 368.51,2132.16C394.42,2161.16 393.45,2211.68 389.74,2269.83C389.39,2275.4 389.06,2280.25 388.92,2283.96C387.63,2319.85 402.29,2369.15 416.23,2390.96C430.12,2412.61 470.42,2444.7 502.82,2470.48L514.14,2479.48C526.39,2489.27 538.85,2499.01 551.3,2508.73C608.57,2553.46 667.78,2599.73 702.56,2650.29C709.56,2660.41 718.13,2674.11 727.45,2688.98C740.66,2709.98 763.51,2746.46 777.02,2762.31C778.08,2760.49 779.27,2758.18 780.6,2755.31C787.34,2740.44 794.74,2684.11 799.6,2646.84C802.79,2622.62 805.8,2599.72 809.05,2581.09C815.43,2544.8 822.76,2497.47 830.54,2447.36C845.13,2353.29 861.67,2246.65 881.06,2149.36C886.8,2120.53 891.93,2090.97 897.06,2061.28C905.7,2011.48 914.64,1960 926.71,1910.45C938.2,1863.23 952.55,1818.76 966.43,1775.76C974.34,1751.28 982.1,1727.26 988.98,1703.67C1020.63,1595.16 1074.56,1457.81 1106.78,1375.73L1118.28,1346.38C1120.76,1340 1123.37,1333.03 1126.07,1325.78C1146.07,1272.06 1161.07,1235.56 1186.02,1218.34C1228.02,1189.34 1267.81,1223.98 1286.96,1240.6C1290.5,1243.7 1293.89,1246.7 1297.07,1249.08C1342.63,1283.03 1410.75,1340.77 1482.87,1401.92C1614.27,1513.33 1777.78,1651.92 1844.38,1679.36C1888.65,1697.57 1931.24,1699.9 1978.38,1700.94C1987.8,1701.13 1998.24,1700.76 2008.93,1700.36C2053.21,1698.82 2098.93,1697.26 2128.28,1724.36C2168.98,1762.09 2162.09,1819.22 2157.54,1857.05C2156.54,1865.13 2155.54,1872.8 2155.26,1879.65C2153.64,1913.91 2160.43,1946.56 2173.44,1967C2186.29,1987.19 2211.28,2003.22 2232.89,2005.09C2342.13,2014.58 2525.44,2021.09 2672.71,2026.25C2700.76,2027.25 2727.36,2028.16 2751.71,2029.07C2759.54,2004.88 2769.23,1959.97 2774.99,1933.26C2782.79,1897.26 2789.49,1866.16 2796.39,1847.35C2797.53,1844.18 2798.64,1840.71 2799.78,1837.12C2807.52,1812.83 2825.53,1755.85 2884.61,1759.86C2924.09,1762.49 3023.79,1768.29 3115.09,1773.59C3175.76,1777.11 3232.73,1780.44 3265.99,1782.47C3323.89,1785.84 3328.66,1896.85 3328.99,1909.47C3330.63,1967.83 3340.8,2025.35 3443.11,2031.71C3470.45,2033.41 3506.61,2035.76 3548.65,2038.47C3726,2050 4018.73,2068.93 4179,2074.27C4210.6,2039.05 4299.84,1911.73 4320.38,1867.99C4324.99,1858.15 4329.81,1822.23 4326.6,1799.86C4313.69,1710.08 4290.07,1533.93 4262.73,1330C4214.5,970.29 4154.47,522.6 4126.58,351.6C4125.68,346.05 4124.71,337.07 4123.58,326.12C4122.08,311.2 4118.08,271.77 4112.22,249.93C4056.58,255.17 3965.02,254.71 3922.92,231.78C3894.78,216.47 3843.92,182.95 3819.86,130.48C3807.66,103.89 3792.71,87.9 3781.65,87.58C3769.1,88.18 3761.37,92.78 3759.07,95.06C3752.71,137.39 3742.38,218.94 3734.07,284.64L3728.72,327C3720.94,387.92 3739.07,442.77 3773.02,516.93C3805.52,587.87 3814.09,611.3 3832.86,662.62C3839.05,679.62 3846.46,699.81 3856.28,726.08C3867.66,756.4 3897.87,836.97 3903.11,926.42C3905.61,968.89 3909.3,1011.73 3912.58,1049.55C3916.05,1089.75 3919.04,1124.48 3920.31,1153.4C3922.57,1206.4 3876.02,1250.12 3828.85,1269.89C3783.48,1288.89 3713.42,1295.8 3664.19,1294.34C3478.07,1288.54 2910.88,1253.62 2711.19,1238.91C2690.76,1237.4 2670.14,1236.49 2649.48,1235.56C2577.3,1232.34 2502.68,1229.01 2431.72,1201.86C2342.01,1167.53 2227.38,1098.77 2116.53,1032.26C2085.04,1013.4 2054.06,994.8 2024.4,977.48C1949.49,933.69 1859.68,877.2 1780.4,827.37C1718.3,788.29 1659.61,751.37 1621.4,729.04C1612.4,723.82 1602.86,717.73 1593,711.46C1575.36,700.23 1543.27,679.82 1529.72,677.62C1524.02,682.62 1514.72,698.13 1509.02,707.71C1502.52,718.57 1495.79,729.79 1487.81,740.04C1432.39,810.96 1371.12,907.68 1321.89,985.37C1306.14,1010.19 1291.89,1032.63 1279.89,1050.99C1273.98,1059.99 1266.04,1075.84 1257.64,1092.58C1229.9,1147.88 1209.47,1185.33 1179.86,1201.39C1135.09,1225.65 1094.92,1178.58 1068.37,1147.46C1064.37,1142.77 1060.96,1138.68 1058.37,1136.07C1042.1,1119.61 1019.18,1095.07 992.65,1066.54C943.16,1013.45 881.56,947.37 841.49,911.13C810.59,883.13 758.87,836.37 728.88,835.76C710.47,836.16 649.6,886.66 619.81,937.68C590.35,988.24 545.25,1073.4 493.07,1172C445.19,1262.42 390.93,1364.91 335.79,1465.08L300.25,1529.77C214.52,1686.09 140.37,1821.25 86.25,1890.77M3260.68,1870L3260.92,1870L3260.68,1870" style="fill-rule:nonzero;"/>
    </g>
</svg>
