<?xml version="1.0" encoding="UTF-8" standalone="no"?>
<!DOCTYPE svg PUBLIC "-//W3C//DTD SVG 1.1//EN" "http://www.w3.org/Graphics/SVG/1.1/DTD/svg11.dtd">
<svg width="100%" height="100%" viewBox="0 0 3973 2468" version="1.1" xmlns="http://www.w3.org/2000/svg" xmlns:xlink="http://www.w3.org/1999/xlink" xml:space="preserve" xmlns:serif="http://www.serif.com/" style="fill-rule:evenodd;clip-rule:evenodd;stroke-linejoin:round;stroke-miterlimit:2;">
    <g transform="matrix(1,0,0,1,0.00114686,-0.00988443)">
        <path d="M345.16,2461.91C290.72,2478.42 212.39,2452.46 136.73,2424.36L122.48,2419.11C93.8,2408.65 25,2379.25 5.08,2331.9C-10.02,2295.9 12.08,2265.16 25.3,2246.8C28.84,2241.88 34.04,2234.65 35.66,2231L34.86,2203.87C31.12,2076.2 27.92,1935.06 37.41,1873.62C59.7,1729.07 115.08,1520.73 159.47,1353.73L163.54,1338.39C212.72,1153.39 378.54,846.39 493.71,695.62C524.13,655.82 607.39,575 665,529.27C671.9,523.8 684.55,504.27 693.79,490.09C718.41,452.18 741.71,416.39 780.26,420.95C847.74,428.95 986.43,482.2 1108.75,529.21C1128.24,536.7 1146.94,543.88 1164.35,550.49C1236.54,577.89 1318.2,598.87 1397.17,619.17C1445.99,631.72 1492.11,643.55 1533.17,656.26C1572.87,668.52 1611.07,684.6 1648,700.15C1697.75,721.15 1744.74,740.88 1794,751.54C1839.52,761.39 1893.26,764.09 1950.15,766.93C2014.42,770.15 2080.88,773.48 2141.6,787.74C2198.6,801.1 2254.03,826.74 2307.66,851.55C2359.47,875.55 2408.41,898.12 2450.66,905.69C2532.36,920.35 2596.08,927.89 2671.8,890.59C2806.54,824.35 2790.1,698.88 2778.13,607.37L2776.37,593.73C2774.83,581.63 2770.69,564.28 2766.27,545.94C2750.83,481.35 2733.27,408.2 2771.12,362.31C2818.18,305.22 2922.69,243.88 3090.37,174.86C3134.74,156.6 3188.3,132.6 3240.05,109.37C3459.05,11.15 3523.56,-12.77 3560.17,5.8C3599.75,25.85 3634.26,107.8 3630.17,152.08C3629.66,157.595 3628.65,163.053 3627.17,168.39C3633.21,165.057 3639.7,162.606 3646.44,161.11C3672.59,155.61 3701.38,163.23 3731.86,171.28C3746.42,175.14 3761.48,179.11 3775.62,181.43C3908.16,203.08 3972.42,241.32 3972.12,298.36C3971.86,347.36 3934.42,403.61 3886.96,474.93C3862.5,511.71 3837.18,549.75 3816.89,587.59C3768.26,678.23 3700.43,770.59 3620.72,854.59C3544.42,935.08 3429.77,1031.72 3328.57,1100.78C3227.37,1169.84 3098.01,1204.78 3027.74,1202.53C2986.87,1201.19 2947.74,1200.45 2908.98,1199.71C2840.6,1198.38 2769.85,1197.04 2692.88,1192.37C2572.94,1185.09 2438.58,1176.95 2323.88,1153.22C2239.18,1135.66 2142.21,1102.92 2064.27,1076.61C2038.58,1067.94 2015.27,1060.07 1995.81,1053.92C1976.57,1047.82 1956.07,1039.05 1936.24,1030.54C1920.24,1023.71 1896.01,1013.32 1880.87,1009.15C1880.21,1010.75 1879.56,1012.32 1879.01,1013.68C1871.85,1031.1 1861.01,1057.44 1833.26,1066.14C1794.4,1077.84 1741.57,1056.72 1717.99,1038.37C1698.29,1023.02 1691.84,999.1 1687.15,981.62C1686.57,979.43 1685.83,976.7 1685.1,974.21C1604.63,946 1455.31,886.58 1310.66,829C1161.15,769.46 1006.49,707.89 932.66,682.76C914.12,677.29 849.77,721.16 825.5,737.76L810.85,747.76C665.1,845.67 587.7,1017.66 570.16,1075.76C566.41,1088.18 577.72,1108.57 587.71,1126.55C598.81,1146.55 610.28,1167.2 610.78,1190.68C611.86,1241.47 595.69,1282.95 575.22,1335.47L574.55,1337.18C563.94,1364.38 551.24,1399.18 537.81,1436C504.81,1526.38 467.41,1628.94 434.64,1693.43C412.9,1736.25 363.86,1726.69 337.5,1721.57C332.83,1720.66 326.21,1719.38 320.75,1718.57C305.75,1754.74 288.33,1841.8 280.75,1922.57C274.03,1993.46 276.81,2085.93 287.52,2147.4C292.52,2176 313.41,2209.78 330.23,2236.93C336.7,2247.39 342.66,2257.06 347.38,2265.61C350.53,2271.35 356.74,2278.61 362.76,2285.69C376.18,2301.48 391.4,2319.36 395.76,2343.76C404.24,2391.38 392.71,2446.17 347.82,2461.1C346.95,2461.38 346.09,2461.66 345.2,2461.93M84.2,2303.54C93.39,2312.83 116.05,2328.39 151.4,2341.27L166.1,2346.7C201.1,2359.7 279.57,2388.82 316.47,2384.29C317.586,2376.26 317.458,2368.1 316.09,2360.1C314.88,2356.67 306.6,2346.93 301.09,2340.47C292.9,2330.87 283.64,2319.97 276.55,2307.12C272.4,2299.58 267.15,2291.12 261.48,2281.96C240.96,2248.84 215.48,2207.65 207.8,2163.41C195.8,2094.35 192.8,1995.08 200.26,1916.41C206.39,1851.88 226.31,1716.41 257.92,1665.33C281.62,1626.91 327.09,1635.77 354.23,1641.07C358.78,1641.95 364.63,1643.07 369.61,1643.84C398.73,1583.09 432.45,1490.84 462.4,1408.84C476.04,1371.56 488.91,1336.37 499.85,1308.31L500.52,1306.61C519,1259.29 531.19,1228.06 530.46,1193.75C529.83,1189.43 522.46,1176.11 517.54,1167.3C501.54,1138.41 479.54,1098.85 493.42,1053.14C494.13,1050.78 567.42,814.67 767.27,680.55L781.4,670.96C835.97,633.72 903.81,587.39 959.11,606.23C1034.75,631.99 1183.34,691.17 1340.61,753.79C1491,813.59 1646.49,875.5 1722,901.27C1751.07,911.2 1758.9,940.37 1764.11,959.67C1765.39,964.38 1767.39,971.88 1768.99,975.48C1778.37,981.85 1793.44,986.8 1803.4,988.3C1804.15,986.51 1804.9,984.69 1805.54,983.15C1813.28,964.25 1827.61,929.15 1865.99,926.65C1894.88,924.77 1928.65,939.25 1967.72,956C1985.79,963.76 2004.47,971.76 2020.02,976.67C2039.92,982.96 2063.67,990.99 2089.9,999.84C2165.8,1025.46 2260.22,1057.37 2340.25,1073.96C2449.38,1096.57 2580.7,1104.54 2696.49,1111.59C2773.32,1116.28 2840.09,1117.59 2910.77,1118.93C2949.89,1119.69 2989.31,1120.46 3030.51,1121.81C3089.21,1123.75 3200.41,1091.32 3284.77,1033.81C3381.71,967.69 3491.37,875.41 3564.14,798.72C3639.08,719.72 3702.66,633.38 3748.02,548.95C3770.13,507.79 3796.53,468.16 3822.02,429.87C3852.3,384.39 3889.58,328.44 3893.49,301.61C3882.84,291.38 3841.39,272.87 3763.57,260.16C3745.75,257.26 3728.08,252.58 3712.49,248.46C3695.64,244 3672.77,237.97 3663.7,239.06C3658.15,241.97 3648.34,252.83 3646.45,258.3C3642.63,281.68 3651.64,325.04 3659.61,363.3C3672.81,426.75 3684.2,481.58 3658.55,517.78C3647.29,533.7 3630.55,543.35 3610.29,545.64C3575.16,549.64 3548.65,541.64 3531.46,521.97C3504.24,490.72 3514.38,446.79 3521.8,414.71C3523.8,406.19 3526.8,393.32 3526.62,389.02C3526.33,377.29 3522.57,357.45 3518.97,338.27C3512.35,303.22 3505.51,266.97 3510.23,239.33C3514.37,215.11 3526.36,194.44 3536.94,176.21C3543.43,165.05 3551.49,151.21 3552.14,144.29C3553.35,131.19 3538.53,93.93 3527.39,79.87C3488.3,85.29 3359.21,143.26 3271.97,182.4C3219.68,205.89 3165.56,230.18 3120.06,248.93C2929.06,327.62 2857.8,381.93 2831.69,413.69C2819.5,428.49 2836.02,497.39 2843.07,526.82C2848.07,547.38 2852.68,566.82 2854.77,583.35L2856.5,596.61C2869.1,692.61 2892.59,871.42 2706.12,963.2C2601.33,1014.76 2510,998.36 2436.54,985.2C2384.45,975.85 2331.06,951.2 2274.54,925.04C2224.41,901.88 2172.54,877.91 2123.33,866.36C2069.47,853.73 2006.59,850.59 1945.75,847.55C1888.2,844.7 1828.69,841.71 1776.88,830.55C1720.42,818.34 1667.82,796.19 1616.88,774.77C1580.08,759.28 1545.32,744.63 1509.29,733.51C1469.95,721.36 1424.71,709.74 1376.78,697.45C1295.71,676.61 1211.78,655.07 1135.52,626.12C1118.02,619.48 1099.2,612.24 1079.59,604.71C979.89,566.4 845.59,514.81 781.69,502.94C775.32,510.86 766.4,524.63 760.51,533.71C746.15,555.86 731.31,578.71 713.89,592.57C657.89,637.04 580.74,713.28 556.89,744.49C448.82,886.14 287.3,1185.15 241.41,1358.19L237.34,1373.53C193.55,1538.61 138.91,1744.53 117.34,1884.63C108.24,1943.63 113.4,2116.4 115.89,2199.55L116.73,2228.86C117.5,2256.78 101.81,2278.61 90.36,2294.55C88.47,2297.17 86.05,2300.55 84.08,2303.55M3592.08,466.61L3595.18,466.61C3595.59,460.719 3595.44,454.804 3594.75,448.94C3593.48,454.78 3592.59,460.696 3592.08,466.65" style="fill-rule:nonzero;"/>
    </g>
</svg>
