<?xml version="1.0" encoding="UTF-8" standalone="no"?>
<!DOCTYPE svg PUBLIC "-//W3C//DTD SVG 1.1//EN" "http://www.w3.org/Graphics/SVG/1.1/DTD/svg11.dtd">
<svg width="100%" height="100%" viewBox="0 0 3961 2093" version="1.1" xmlns="http://www.w3.org/2000/svg" xmlns:xlink="http://www.w3.org/1999/xlink" xml:space="preserve" xmlns:serif="http://www.serif.com/" style="fill-rule:evenodd;clip-rule:evenodd;stroke-linejoin:round;stroke-miterlimit:2;">
    <g transform="matrix(1,0,0,1,-0.00421726,2.35397e-05)">
        <path d="M2840.56,2088.48C2615.56,2084.06 2360.98,2076.36 2124.41,2069.2C1861.12,2061.26 1633.73,2054.38 1502.53,2053.65L1501.62,2053.65C1459.36,2052.81 1449.62,2007.89 1443.7,1980.97C1443.09,1978.07 1442.28,1974.43 1441.42,1970.83C1352.62,2010.16 1254.16,2048.08 1051.53,2047.66C904.15,2047.23 692.8,2029.51 561.81,1878.99C435.24,1733.61 369.29,1579.27 341.33,1362.99C333.2,1300.18 325.72,1231.82 318.49,1165.72C304,1033.93 290.39,909.45 272.7,829.28C270.88,821.14 270.88,821.14 256.13,816.78C232.37,809.78 188.13,796.78 182.03,722.78C178.19,675.95 129.87,566.3 87.24,469.57C53,391.87 20.71,318.53 4.58,265.2C-6.2,229.65 2.21,186.89 28.3,144.67C47.96,112.8 81.4,76.58 116.16,70.67C203.53,55.88 272.26,44 326.94,34.55C515.68,1.93 539.88,-2.31 584.3,0.88C639.51,4.79 695.81,92.24 820.55,306C845.92,349.5 869.92,390.61 892.23,426.82C1017.16,629.49 1248,851.24 1410.8,1000.38C1477.33,1061.38 1543.58,1133.62 1607.63,1203.49C1682.96,1285.65 1754.1,1363.22 1805.77,1399.04C1817.77,1407.41 1836.02,1405.51 1867.3,1401.5C1901.06,1397.13 1943.1,1391.74 1991.37,1405.05C2023.45,1413.91 2049.54,1439.62 2074.8,1464.51C2094,1483.45 2117.9,1507 2132.48,1507.83C2293.63,1516.77 2635.86,1530.37 2966.81,1543.53C3300.81,1556.8 3646.18,1570.53 3803.35,1579.41C3885.42,1584.03 3954.93,1673.41 3960.01,1747.14C3965.37,1824.25 3908.34,1941.62 3803.73,2004.66C3686.96,2074.99 3481.06,2087.88 3275.93,2091.34C3160.71,2093.27 3008.93,2091.79 2840.56,2088.48M1619.18,1981.48C1751.34,1984.1 1928.88,1989.48 2126.64,1995.41C2539.39,2007.87 3007.22,2022.07 3274.71,2017.54C3460.16,2014.42 3663.56,2002.94 3765.66,1941.44C3856.48,1886.74 3889.11,1791.19 3886.41,1752.18C3883.63,1711.72 3839.98,1655.31 3799.19,1653C3642.63,1644.21 3297.57,1630.44 2963.87,1617.19C2632.61,1604.03 2290.12,1590.4 2128.36,1581.43C2085.94,1579.08 2052.47,1546.1 2022.95,1517C2005.27,1499.59 1985.22,1479.86 1971.72,1476.07C1937.72,1466.67 1906.72,1470.66 1876.72,1474.56C1838.83,1479.45 1799.72,1484.49 1763.72,1459.56C1705.34,1419.08 1631.47,1338.56 1553.28,1253.24C1490.28,1184.53 1425.12,1113.48 1360.96,1054.69C1194.91,902.6 959.17,676 829.41,465.42C806.62,428.42 782.41,386.98 756.79,343.08C701.82,248.87 610.25,92 576.42,74.19C542.34,72.25 512.1,77.33 339.42,107.19C284.69,116.65 215.91,128.52 128.42,143.38C111.11,149.21 64.63,209.45 75.03,243.75C89.9,292.75 122.81,367.49 154.63,439.75C203.97,551.75 250.57,657.49 255.45,716.68C257.46,740.2 260,741 277,745.94C296.72,751.77 333.5,762.62 344.7,813.26C363.32,897.35 377.14,1023.75 391.82,1157.59C399.02,1223.33 406.48,1291.33 414.51,1353.43C447.13,1605.87 535.51,1736.3 617.51,1830.59C702.2,1927.89 840.2,1973.59 1051.75,1973.94C1253.22,1974.34 1339.35,1935.83 1430.56,1895.01C1446.38,1887.91 1462.88,1888.01 1476.98,1895.12C1503.42,1908.47 1509.98,1938.69 1515.81,1965.35C1516.75,1969.71 1517.96,1975.28 1519.2,1980.09C1548.58,1980.32 1582.09,1980.84 1619.2,1981.58M579,74.45L579.12,74.45C579.081,74.44 579.039,74.44 579,74.45" style="fill-rule:nonzero;"/>
    </g>
</svg>
