<?xml version="1.0" encoding="UTF-8" standalone="no"?>
<!DOCTYPE svg PUBLIC "-//W3C//DTD SVG 1.1//EN" "http://www.w3.org/Graphics/SVG/1.1/DTD/svg11.dtd">
<svg width="100%" height="100%" viewBox="0 0 4356 2782" version="1.1" xmlns="http://www.w3.org/2000/svg" xmlns:xlink="http://www.w3.org/1999/xlink" xml:space="preserve" xmlns:serif="http://www.serif.com/" style="fill-rule:evenodd;clip-rule:evenodd;stroke-linejoin:round;stroke-miterlimit:2;">
    <g transform="matrix(1,0,0,1,-0.00643127,-0.000899351)">
        <path d="M1800.64,2777.09C1768.78,2763.48 1749.81,2721.45 1732.57,2683.3C1722.39,2660.78 1711.88,2637.46 1699.57,2617.71C1661.57,2556.77 1602.21,2479.66 1554.57,2417.71C1539.51,2398.15 1525.57,2380.01 1513.68,2364.21C1354.63,2152.95 1207.29,1932.93 1098.8,1744.68C1008.94,1588.68 929.58,1403.58 859.6,1240.23C839.46,1193.23 819.98,1147.78 801.08,1104.92C738.28,962.6 661.9,850 528.66,703.29C435.47,600.7 320.66,478.62 236.08,392.29C215.66,371.44 188.84,345.95 160.45,318.98C83.93,246.28 32.21,196.09 11.19,161.72C-1.866,140.75 -3.602,114.581 6.57,92.07C19.68,62.64 51.86,39.23 88.52,32.41C200.72,11.49 511.92,-10.07 725.24,5.09C884.92,16.43 1085,55.79 1261.55,90.5C1337.21,105.38 1408.7,119.43 1466.32,129.03C1516.19,137.34 1570.09,147.9 1627.15,159.09C1720.08,177.33 1816.15,196.17 1897.39,205.39C2009.72,218.16 2159.47,225.52 2291.61,232.02C2349.18,234.84 2402.21,237.45 2445.29,240.21C2473.09,241.98 2507.05,242.79 2543,243.67C2618.05,245.48 2688.95,247.21 2728.31,257.5C2779.88,270.91 2808.31,324.83 2813.81,372.25C2821.1,435.65 2759.99,532.25 2741.09,560.39C2699.97,621.58 2621.25,693.79 2530.53,753.55C2434.6,816.7 2290.97,857.82 2155.66,860.85C2083.02,862.45 1935.88,837.01 1793.58,812.4L1735.08,802.34C1722.13,800.14 1708.74,797.77 1695.08,795.34C1599.48,778.49 1480.51,757.53 1415.82,773.7C1361.18,787.4 1306.04,847.89 1281.89,897.87C1257.82,947.68 1256.01,1013.97 1277.59,1055.5C1335.48,1166.93 1477.99,1425.5 1542.11,1537.22C1570.28,1586.36 1641.65,1625.77 1694.35,1635.46C1746.6,1645.06 1839.85,1612.92 1856.24,1597.46C1878.41,1576.55 1903.36,1545.33 1929.8,1512.25C1971.55,1459.95 2018.9,1400.72 2070.66,1364.25C2143.02,1313.35 2239.39,1253.56 2343.45,1242.91C2485.45,1228.39 2722.45,1225.44 2951.74,1222.58C3037.36,1221.51 3121.09,1220.47 3196.74,1218.84C3263.74,1217.37 3336.05,1215.45 3409.38,1213.49C3628.04,1207.65 3854.15,1201.58 3978.12,1207.49C4060.12,1211.34 4149.23,1271.74 4181.12,1344.99C4220.12,1434.68 4283.25,1658.2 4325.04,1806.12C4335.63,1843.63 4344.83,1876.18 4351.85,1900.25C4370.85,1965.33 4320,2008.41 4286.36,2036.91C4281.8,2040.76 4277.3,2044.59 4272.93,2048.45C4203.62,2109.93 4077.93,2174.6 3960.29,2209.32C3808.16,2254.2 3513.21,2333.21 3200.95,2416.91L3129.95,2435.91C2960.7,2481.27 2782.85,2529.91 2610.88,2576.85C2247.06,2676.24 1932.88,2762.1 1835.32,2780.34C1822.24,2782.81 1810.8,2781.34 1800.66,2777.01M91.87,124C114.54,154 173.11,209.68 221.05,255.21C250.05,282.75 277.4,308.75 298.93,330.73C384.18,417.8 499.93,540.83 593.77,644.17C733.92,798.49 814.61,917.73 881.54,1069.45C900.54,1112.57 920.18,1158.34 940.43,1205.6C1009.43,1366.71 1087.72,1549.33 1174.99,1700.79C1281.75,1886.02 1426.99,2102.84 1583.93,2311.35C1595.67,2326.94 1609.41,2344.81 1624.26,2364.07C1673.11,2427.55 1733.9,2506.54 1774.19,2571.17C1789.64,2595.91 1801.92,2623.12 1812.75,2647.11C1818.97,2660.86 1827.59,2679.97 1834.11,2690.98C1944.34,2667.86 2257.28,2582.35 2587.66,2492.09C2759.76,2445.09 2937.66,2396.46 3107.15,2351.03L3178.15,2332.03C3489.88,2248.49 3784.3,2169.59 3935.35,2125.03C4038.45,2094.6 4155.87,2034.73 4214.55,1982.69C4219.38,1978.42 4224.39,1974.16 4229.46,1969.87C4247.67,1954.42 4270.35,1935.2 4267.34,1924.96C4260.28,1900.73 4251.02,1867.96 4240.34,1830.1C4199.22,1684.47 4137.06,1464.4 4100.43,1380.15C4082.13,1338.03 4021.84,1297.63 3974.02,1295.45C3853.27,1289.76 3628.8,1295.76 3411.76,1301.57C3338.25,1303.57 3265.76,1305.47 3198.64,1306.91C3122.74,1308.53 3038.73,1309.59 2952.82,1310.67C2725.51,1313.5 2490.45,1316.43 2352.39,1330.57C2268.59,1339.12 2184.85,1391.57 2121.27,1436.31C2079.78,1465.53 2038.46,1517.24 1998.52,1567.23C1970.09,1602.83 1943.25,1636.4 1916.52,1661.58C1876.06,1699.66 1753.34,1735.81 1678.37,1722.02C1605.2,1708.51 1508.63,1655.77 1465.75,1581.02C1401.24,1468.64 1257.75,1208.32 1199.48,1096.02C1159.71,1019.47 1172.42,922.1 1202.63,859.54C1235.25,792.05 1309.17,709.67 1394.42,688.33C1477.27,667.59 1601.07,689.4 1710.3,708.66C1723.82,711.04 1737.06,713.37 1749.89,715.55L1808.56,725.66C1940.28,748.43 2089.56,774.25 2153.71,772.85C2271.58,770.19 2400.49,733.75 2482.12,680C2562.37,627.14 2633.64,562.48 2668.05,511.27C2704.87,456.49 2728.34,399.27 2726.38,382.27C2723.88,360.65 2713.2,344.36 2706.03,342.58C2676.56,334.87 2604.46,333.1 2540.84,331.58C2503.99,330.67 2469.2,329.84 2439.67,327.94C2396.94,325.22 2344.35,322.65 2287.25,319.84C2153.8,313.28 2002.56,305.84 1887.42,292.78C1802.71,283.14 1704.83,263.94 1610.19,245.37C1553.77,234.31 1500.47,223.86 1451.87,215.77C1392.96,205.94 1320.87,191.77 1244.54,176.77C1070.54,142.55 873.24,103.77 718.97,92.77C519.66,78.62 213.64,98.51 104.6,118.83C100.072,119.746 95.755,121.5 91.87,124" style="fill-rule:nonzero;"/>
    </g>
</svg>
