<?xml version="1.0" encoding="UTF-8" standalone="no"?>
<!DOCTYPE svg PUBLIC "-//W3C//DTD SVG 1.1//EN" "http://www.w3.org/Graphics/SVG/1.1/DTD/svg11.dtd">
<svg width="100%" height="100%" viewBox="0 0 4372 2753" version="1.1" xmlns="http://www.w3.org/2000/svg" xmlns:xlink="http://www.w3.org/1999/xlink" xml:space="preserve" xmlns:serif="http://www.serif.com/" style="fill-rule:evenodd;clip-rule:evenodd;stroke-linejoin:round;stroke-miterlimit:2;">
    <g transform="matrix(1,0,0,1,-0.00213151,0.0168388)">
        <path d="M4198.31,2742.49C4185.68,2748.28 4170.81,2751.59 4154.31,2752.11C4122.18,2753.11 4077.42,2742.35 4057.1,2708.83C4022.32,2651.36 3970.7,2535.12 3910.95,2400.55C3826.55,2210.47 3721.52,1973.93 3654.66,1891.16C3636.09,1868.16 3594.23,1870.68 3532.47,1877.16C3486.2,1881.99 3438.35,1887 3394.47,1874.16C3354.87,1862.51 3314.95,1839.53 3272.67,1815.25C3220.14,1785.02 3160.59,1750.79 3119.75,1754.15C3065.45,1758.58 2981.44,1801.15 2900.26,1842.25C2806.78,1889.54 2718.46,1934.25 2647.48,1938.58C2565.76,1943.58 2519.79,1883.58 2486.2,1839.73C2464.91,1811.95 2444.78,1785.73 2424.57,1784.02C2289.12,1772.78 2021.52,1795.57 1920.65,1820.75C1846.19,1839.35 1654.01,1918.03 1406.59,2031.23C1396.04,2036.02 1375.7,2045.47 1348.95,2057.84C1272.86,2093.03 1145.54,2151.84 1039.52,2199.73C1008.27,2213.73 982.96,2225.99 962.13,2236C858.19,2285.87 828.13,2295.46 757.43,2211.15C740.87,2191.41 716.7,2156.72 686.14,2112.82C640.88,2047.82 550.94,1918.74 508.62,1885.6C507.22,1891.26 507.27,1901.6 508.95,1922.23C511.51,1953.15 514.95,1995.52 484.19,2026.73C453.19,2058.21 405.69,2058.82 372.65,2056.56C336.04,2054.06 270.21,2088.73 217.29,2116.56C176.4,2138.05 137.8,2158.37 105.88,2166.31C85.88,2171.31 65.02,2164.46 50.06,2148.03C-2.4,2090.29 -14.85,1854 18.52,1759.46C48.43,1674.82 124.92,1598.72 228.44,1550.69C333.5,1501.9 499.79,1428.33 692.44,1343.08C983.14,1214.43 1344.92,1054.33 1606.01,930.18C1733.27,869.7 1864.01,804.07 1990.37,740.63C2190.84,639.99 2380.11,544.92 2554.92,469.63C2688.98,411.84 2842.82,341.2 2978.74,278.78C3097.44,224.28 3209.61,172.78 3293.39,136.72L3333.49,119.32C3634.21,-11.56 3691.96,-24.68 3719.64,31.32C3738.77,70.12 3750.54,101.73 3760.93,129.62C3778,175.44 3788.26,203.1 3819.69,231.86C3824.14,235.95 3833.19,235 3858.13,230.1C3883.91,225.1 3916.02,218.79 3951.4,228.66C4000.22,242.27 4025.74,307.18 4081.05,475.57C4086.11,490.97 4091.18,506.34 4096.17,521.32C4140.87,655.05 4159.98,1988.62 4147.17,2268.08C4165.1,2269.4 4193.25,2268.08 4212.01,2267.16C4273.01,2264.23 4325.67,2261.73 4354.65,2293.86C4367.85,2308.54 4373.43,2327.8 4370.32,2348.15C4357.19,2434.3 4267.04,2646.66 4234.04,2709.62C4226.5,2723.99 4214.15,2735.16 4198.29,2742.43M4134.8,2656C4139.87,2658 4148.97,2658.88 4155.09,2658.16C4187.44,2593.74 4251.5,2438.54 4272.09,2359.5C4255.18,2358.96 4232.31,2360.04 4216.46,2360.81C4154.93,2363.75 4101.78,2366.29 4071.22,2335.13C4057.78,2321.39 4050.92,2302.48 4052.43,2283.31C4068.83,2040.17 4044.88,663.83 4007.2,551.08C4002.14,535.95 3997.03,520.4 3991.9,504.85C3971.8,443.63 3938.85,343.31 3919.61,317.68C3907.03,316.07 3892.52,318.92 3876.09,322.14C3842.46,328.73 3796.41,337.76 3756.3,301.01C3708.23,257.01 3691.9,213.13 3673,162.37C3665.7,142.75 3657.68,121.17 3646.75,96.8C3588.13,110.68 3438.9,175.63 3370.83,205.27L3330.36,222.81C3247.69,258.44 3136,309.74 3017.84,364C2881.57,426.63 2727.11,497.52 2592,555.75C2419.86,630 2231.59,724.4 2032.41,824.41C1905.54,888.08 1774.41,953.94 1646.26,1014.85C1384,1139.54 1021.57,1299.94 730.35,1428.85C538.14,1513.91 372.35,1587.32 267.92,1635.75C188.33,1672.67 128.15,1730.6 106.92,1790.75C81.05,1864 95.29,2006.23 112,2064.52C130.69,2056.47 152.27,2044.78 173.64,2033.52C240.28,1998.52 315.88,1958.7 379.04,1962.99C401.94,1964.56 412.51,1962.2 416.42,1960.88C417.52,1954.18 416.34,1939.79 415.53,1929.88C412.41,1892.16 407.34,1821.8 480.07,1790.99C547.4,1762.64 618,1850.99 763.07,2059.21C791.14,2099.52 815.42,2134.34 829.27,2150.87C836.04,2158.87 849.47,2174.87 855.89,2179.87C866.29,2177.99 893.18,2165.04 921.56,2151.45C942.94,2141.18 968.87,2128.71 1001,2114.23C1106.58,2066.59 1233.67,2007.81 1309.61,1972.71C1336.49,1960.26 1356.99,1950.84 1367.61,1945.93C1488.77,1890.51 1783.03,1758.46 1897.95,1729.76C2008.62,1702.11 2282.4,1678.1 2432.35,1690.55C2493.95,1695.66 2530.92,1743.91 2560.64,1782.68C2594.1,1826.33 2613.04,1846.68 2641.84,1844.98C2693.4,1841.86 2777.04,1799.52 2857.95,1758.55C2951.33,1711.28 3039.5,1666.63 3112.1,1660.66C3182.1,1654.93 3251.88,1695.09 3319.43,1733.95C3356.73,1755.39 3391.98,1775.66 3420.89,1784.15C3447.06,1791.83 3485.55,1787.8 3522.79,1783.89C3590.87,1776.77 3675.65,1767.89 3727.66,1832.25C3802.26,1924.63 3905.54,2157.25 3996.66,2362.48C4051.24,2485.4 4102.87,2601.66 4134.81,2656.04" style="fill-rule:nonzero;"/>
    </g>
</svg>
