<?xml version="1.0" encoding="UTF-8" standalone="no"?>
<!DOCTYPE svg PUBLIC "-//W3C//DTD SVG 1.1//EN" "http://www.w3.org/Graphics/SVG/1.1/DTD/svg11.dtd">
<svg width="100%" height="100%" viewBox="0 0 4373 2833" version="1.1" xmlns="http://www.w3.org/2000/svg" xmlns:xlink="http://www.w3.org/1999/xlink" xml:space="preserve" xmlns:serif="http://www.serif.com/" style="fill-rule:evenodd;clip-rule:evenodd;stroke-linejoin:round;stroke-miterlimit:2;">
    <g transform="matrix(1,0,0,1,-0.093139,-0.00356518)">
        <path d="M1174.72,2516.93C1188.63,2486.11 1194.18,2449.66 1206.29,2416.47C1353.47,2012.7 1484.26,1609.42 1647.86,1211.85L1647.86,1211.85C1791.88,861.742 1932.65,506.55 2064.78,158.94C2084.43,107.204 2138.73,60.063 2187.61,35.181C2239.12,8.95 2300.36,-1.554 2356.8,0.188C2415.89,2 2483.53,14.504 2533.91,46.462L2533.91,46.463C2577.17,73.916 2616.68,120.933 2638.23,166.958C2657.68,208.51 2664.7,265.395 2655.24,309.848L2655.24,309.869C2645.72,354.374 2615.79,402.686 2582.33,434.168C2547.62,466.834 2493.62,485.665 2453.05,476.965C2405.84,466.848 2354.84,419.173 2334.8,363.448C2332.21,356.25 2325.31,350.221 2318.09,344.345C2303.37,332.372 2285.22,322.931 2272.28,317.894C2267.41,319.353 2241.39,327.371 2234.06,334.381L2234.06,334.383C2220.2,347.64 2205.55,371.054 2205.65,389.356L2205.65,389.364C2205.78,414.568 2223.1,448.208 2237.5,470.742C2256.3,500.056 2281.67,533.463 2311.46,552.893L2311.47,552.895C2342.99,573.464 2382.78,594.319 2419.39,590.688L2419.4,590.687C2497.19,582.989 2588.9,567.594 2673.68,555.336C2861.88,528.137 3049.95,501.28 3238.51,477.024L3238.52,477.024C3288.37,470.621 3346.86,466.496 3395.48,477.69C3602.37,525.29 3796.36,576.778 3999.56,634.65C4041.06,646.459 4090.63,659.38 4120.12,685.59L4120.14,685.607C4132.56,696.677 4141.18,712.44 4145.36,730.067C4150.55,751.998 4148.59,776.565 4142.73,793.384C4133.25,820.641 4107.1,841.142 4073.01,854.504C4012.67,878.172 3949.99,900.414 3886.42,913.294L3886.42,913.294C3820.13,926.718 3749.89,926.616 3682.12,924.715L3682.12,924.715C3522.19,920.204 3363.44,904.119 3203.31,895.028C3142.93,891.601 3080.78,885.432 3021.76,894.631C2966.77,903.2 2911.41,926.081 2865.39,954.537C2834.17,973.839 2806.9,1003.25 2788.82,1036.27C2766,1077.99 2750.49,1125.95 2740.56,1172.78L2740.56,1172.78C2730.15,1221.86 2731,1275.87 2739.61,1324.01C2748.36,1372.87 2767.96,1418.92 2793.27,1463.52C2832.18,1532.06 2882.91,1594.19 2921.38,1662.85L2921.38,1662.85C2943.73,1702.76 2967.55,1746.29 2973.38,1790.42C2980.12,1841.44 2976.82,1902.79 2956.08,1948.79C2935.05,1995.43 2891.41,2038.95 2848.06,2068.93C2798,2103.59 2735.71,2139.28 2676.26,2142.11C2594.08,2146.02 2507.68,2105.72 2422.78,2094.4C2395.39,2090.75 2365.38,2088.87 2344.82,2100.46L2344.8,2100.47C2333.16,2107.01 2327.62,2123 2328.75,2137.4L2328.75,2137.41C2332.51,2185.66 2356.26,2235.56 2374.02,2285.05C2388.1,2324.28 2394.65,2364.02 2418.09,2389.13L2418.09,2389.14C2429.31,2401.17 2451.8,2401.91 2470.3,2401.8C2540.08,2401.37 2607.2,2399.7 2677.43,2403.02C3075.54,2421.86 3479.59,2441.84 3876.5,2455.16C3886.67,2455.5 3894.71,2448.05 3899.77,2439.81C3899.2,2437.3 3898.03,2432.33 3897.02,2429.29C3893.62,2419.12 3889.7,2408.8 3887.48,2399.18L3887.47,2399.17C3882.14,2376.05 3868.4,2351.32 3860.6,2327.9C3852.46,2303.44 3849.88,2279.84 3856.04,2258.8C3866.68,2222.42 3882.05,2199.03 3900.12,2183.03C3919.06,2166.28 3941.48,2157.14 3967.86,2152.32L3967.86,2152.32C4013,2144.07 4071.57,2143 4120.43,2155.22C4177.17,2169.4 4232.77,2196.37 4276.74,2232.88C4317.45,2266.66 4342.83,2302.13 4358.81,2352.88L4358.81,2352.88C4373.99,2401.1 4377.38,2458.8 4366.88,2508.69C4356.09,2559.96 4324.69,2609.51 4294.46,2653.09C4265.12,2695.39 4230.51,2735.22 4187.17,2762.22L4187.17,2762.22C4137.65,2793.05 4079.23,2817.95 4020.67,2824.69C3893.56,2839.31 3763.96,2830.31 3634.4,2829.68C2455.26,2823.97 1276.12,2829.24 99.209,2810.68C54.982,2809.99 17.285,2787.07 4.566,2760.21L0.962,2749.37L0.093,2735.33L1.971,2724.22C3.072,2720.03 4.697,2715.53 6.866,2710.89C17.24,2688.67 42.929,2661.46 61.753,2651.57C140.127,2610.38 219.136,2579.33 308.602,2565.79C412.891,2550.02 511.186,2557.8 618.249,2552.41C792.965,2543.55 957.479,2538.11 1130.43,2529.88C1139.67,2529.44 1151.86,2527.49 1162.71,2523.44C1167,2521.85 1173.5,2517.72 1174.72,2516.93ZM1683.46,1265L1719.06,1241.15C1555.86,1637.74 1425.45,2040.06 1278.63,2442.84L1278.63,2442.84C1265.68,2478.34 1259.33,2517.18 1244.29,2549.96C1236.58,2566.84 1221.3,2581.01 1201.46,2590.56C1180.17,2600.81 1153.47,2605.87 1134.1,2606.8L1134.1,2606.8C961.219,2615.01 796.779,2620.45 622.134,2629.31L622.128,2629.31C517.712,2634.57 421.828,2626.54 320.118,2641.93C239.405,2654.14 168.274,2682.58 97.568,2719.73L97.566,2719.73C94.107,2721.55 89.476,2726.63 85.428,2731.67C90.07,2732.93 95.17,2733.6 100.414,2733.68L100.417,2733.68C1277.06,2752.24 2455.92,2746.97 3634.78,2752.68C3761.26,2753.29 3887.78,2762.47 4011.87,2748.19C4059.31,2742.73 4106.35,2721.83 4146.47,2696.86C4180.99,2675.36 4207.82,2642.91 4231.18,2609.21L4231.19,2609.21C4255.72,2573.84 4282.77,2534.44 4291.52,2492.83L4291.53,2492.83C4299.4,2455.42 4296.75,2412.16 4285.37,2376C4274.17,2340.45 4256.09,2315.8 4227.56,2292.12L4227.56,2292.12C4192.2,2262.77 4147.38,2241.32 4101.75,2229.92L4101.75,2229.92C4063.31,2220.3 4017.22,2221.57 3981.71,2228.06C3957.11,2232.56 3940.34,2244.86 3929.94,2280.42L3929.94,2280.42C3926.94,2290.69 3932.76,2301.97 3937.5,2314.11C3946.3,2336.64 3957.46,2359.99 3962.5,2381.86C3965.49,2394.8 3972.13,2409.09 3974.97,2422.35C3977.03,2431.96 3977.66,2441.3 3976.61,2450.04L3974.35,2461.05L3969.82,2472.28L3969.82,2472.28C3952.11,2506.33 3915.45,2533.51 3873.92,2532.12C3476.65,2518.78 3072.26,2498.78 2673.79,2479.94C2604.96,2476.68 2539.17,2478.37 2470.78,2478.8C2431.13,2479.05 2385.84,2467.45 2361.79,2441.66C2331.97,2409.71 2319.46,2360.99 2301.54,2311.05L2301.54,2311.05C2281.44,2255.02 2256.24,2198.01 2251.99,2143.4C2248.54,2099.42 2271.48,2053.37 2307.04,2033.36C2340.38,2014.58 2388.53,2012.15 2432.96,2018.08C2513.35,2028.8 2594.78,2068.9 2672.6,2065.19C2718.6,2063 2765.5,2032.44 2804.24,2005.61L2804.25,2005.6C2836.55,1983.27 2870.21,1951.89 2885.88,1917.13L2885.88,1917.13C2901.14,1883.31 2902,1838.03 2897.04,1800.51C2892.43,1765.65 2871.85,1732 2854.2,1700.48C2815.81,1631.95 2765.14,1569.94 2726.31,1501.52C2696.6,1449.18 2674.08,1394.93 2663.81,1337.57L2663.81,1337.57C2653.52,1280.03 2652.79,1215.46 2665.24,1156.8C2676.71,1102.73 2694.92,1047.47 2721.28,999.307L2721.28,999.304C2745.7,954.688 2782.72,915.121 2824.89,889.043C2879.31,855.399 2944.89,828.68 3009.9,818.549C3074.2,808.528 3141.89,814.419 3207.67,818.152C3367.08,827.201 3525.09,843.255 3684.28,847.745C3746.25,849.484 3810.51,850.102 3871.14,837.826C3930.36,825.826 3988.68,804.869 4044.91,782.817L4044.91,782.816C4051.44,780.254 4057.62,777.484 4062.92,774.133C4065.85,772.282 4069,770.966 4070.01,768.076L4070.01,768.073C4071.57,763.587 4071.87,757.352 4071.07,751.344C4070.67,748.344 4070.97,744.943 4068.92,743.103C4047.12,723.747 4009.16,717.441 3978.48,708.709L3978.47,708.708C3776.56,651.201 3583.79,600.029 3378.21,552.729L3378.21,552.728C3337.98,543.464 3289.58,548.098 3248.33,553.396C3060.17,577.6 2872.5,604.403 2684.7,631.544C2598.78,643.966 2505.83,659.51 2426.99,667.312C2374.07,672.561 2314.98,647.122 2269.4,617.387C2230.9,592.279 2196.95,550.159 2172.66,512.259L2172.64,512.241C2151.19,478.692 2128.85,427.3 2128.65,389.765C2128.45,353.492 2153.36,305.026 2180.84,278.739C2195.74,264.483 2227.54,248.087 2253.59,242.796C2269.94,239.476 2284.65,240.499 2295.08,244.224L2295.09,244.227C2314.17,251.049 2343.37,265.652 2366.68,284.611C2385.62,300.023 2400.47,318.508 2407.26,337.393L2407.26,337.395C2418.17,367.74 2443.48,396.167 2469.19,401.675L2469.2,401.676C2488.5,405.818 2513.05,393.639 2529.57,378.092C2552.37,356.638 2573.45,324.121 2579.94,293.791C2586.16,264.487 2581.32,227.003 2568.49,199.602C2552.78,166.028 2524.21,131.505 2492.65,111.478C2453.46,86.616 2400.41,78.561 2354.44,77.152L2354.43,77.152C2310.48,75.795 2262.66,83.37 2222.55,103.799L2222.54,103.801C2189.18,120.782 2150.17,150.972 2136.76,186.285L2136.76,186.289C2004.39,534.549 1863.36,890.395 1719.07,1241.15L1683.46,1265Z"/>
    </g>
</svg>
