<?xml version="1.0" encoding="UTF-8" standalone="no"?>
<!DOCTYPE svg PUBLIC "-//W3C//DTD SVG 1.1//EN" "http://www.w3.org/Graphics/SVG/1.1/DTD/svg11.dtd">
<svg width="100%" height="100%" viewBox="0 0 4179 2758" version="1.1" xmlns="http://www.w3.org/2000/svg" xmlns:xlink="http://www.w3.org/1999/xlink" xml:space="preserve" xmlns:serif="http://www.serif.com/" style="fill-rule:evenodd;clip-rule:evenodd;stroke-linejoin:round;stroke-miterlimit:2;">
    <g transform="matrix(1,0,0,1,-0.0222195,0.0600762)">
        <path d="M3850.26,2690.59C3789.64,2692.68 3708.14,2678.33 3664.55,2668.2C3596.17,2652.2 3490.94,2610.07 3419.74,2570.06C3352.41,2532.23 3159.1,2387.63 3110.02,2334.85C3073.31,2295.37 3032.02,2239.85 2992.09,2186.19C2966.59,2151.88 2940.2,2116.4 2916.19,2086.78C2898.14,2064.53 2881.97,2042.6 2866.34,2021.4C2831.93,1974.71 2799.43,1930.62 2754.88,1894.93C2686.25,1839.93 2639.88,1809.69 2561.98,1786.39C2504.06,1769.08 2436.38,1751.88 2376.67,1736.71C2341.03,1727.65 2308.51,1719.38 2282.96,1712.34C2203.56,1690.41 2148.26,1682.96 2118.77,1690.34C2086.34,1698.34 2014.36,1742.4 1961.77,1774.57C1932.4,1792.57 1904.66,1809.49 1883.4,1820.85C1855.83,1835.54 1825.4,1853.51 1793.28,1872.56C1697.28,1929.4 1577.83,2000.12 1452.28,2028.92C1408.11,2039.07 1350.52,2055.24 1294.82,2070.92C1153.82,2110.53 1088.49,2127.31 1055.56,2122.26C1014.01,2115.82 1006.46,2071.98 1000.42,2036.74C999.42,2030.59 997.96,2022.43 996.42,2014.97C902.25,2084.6 706.92,2251.53 533.75,2399.5C397.86,2515.63 269.53,2625.31 200.75,2679.01C196.2,2682.57 190.91,2687.01 185.06,2692.01C144,2726.53 81.93,2778.7 26.87,2747.85C18.06,2742.9 6.58,2732.85 1.87,2712.95C-18.54,2627.32 134.93,2211.5 225.5,2076.72C285.42,1987.54 368.5,1888.64 441.85,1801.38C460.32,1779.38 478.11,1758.2 494.66,1738.2C518.12,1709.88 544.54,1681.1 570.1,1653.2C621.64,1597.05 674.93,1538.99 697.22,1491.2C699.89,1485.44 703.07,1478.03 706.77,1469.48C726.61,1423.37 759.77,1346.19 807.77,1299.3C842.77,1265.12 898.7,1244.15 952.83,1223.9C991.21,1209.51 1030.9,1194.66 1058.24,1176.73C1099.85,1149.43 1132.18,1118.5 1166.41,1085.73C1184.41,1068.47 1203.08,1050.6 1224.02,1032.33C1246.31,1012.89 1275.18,985.44 1308.63,953.63C1399.49,867.25 1512.63,759.73 1592.16,719.43C1850.42,588.6 2400.94,326.43 2765.25,152.92C2862.17,106.74 2945.34,67.15 3005.32,38.42L3010.72,35.83C3050.43,16.73 3104.79,-9.51 3153.62,3.36C3183.81,11.29 3206.86,34.16 3229.13,56.29C3250.36,77.29 3272.31,99.13 3292.81,99.46C3312.16,100.03 3360.38,77.28 3399,59.19C3487,17.89 3578.07,-24.75 3636.4,23.05C3749.1,115.3 4032.58,402.49 4120.93,504.47C4163.18,553.2 4152.88,663.41 4101.93,707.81C4042.93,759.16 3954.35,745.15 3913.04,715.29C3882.93,693.54 3840.76,644.67 3796.12,592.96C3761.69,553.07 3705.62,488.1 3682.03,472.52C3655.26,481.42 3578.19,520.38 3515.23,552.18C3414.65,603.03 3300.67,660.63 3211.74,694.33C3159.14,714.26 3101.61,734.74 3045.97,754.52C2927.87,796.52 2805.73,840.02 2738.42,875.88C2683.26,905.27 2676.35,945.23 2671.51,1007.51C2666.78,1068.78 2683.62,1178.51 2713.29,1233.72C2741.85,1286.87 2793.71,1332.49 2848.64,1352.78C2944.64,1388.25 3164.16,1431.64 3324.44,1463.32C3373.24,1472.95 3417.65,1481.76 3453.44,1489.24C3520.32,1503.24 3609.1,1530.24 3652.06,1578.96C3711.72,1646.65 3686.92,1730.02 3666.99,1797.02C3652.12,1847.07 3637.99,1894.37 3655.33,1928.87C3679.17,1976.52 3807.65,2025.87 3910.89,2065.48C4036.89,2113.86 4145.63,2155.61 4173.81,2219.61C4208.02,2297.41 4029.56,2599.02 4027.7,2601.96C3987.8,2665.29 3909.7,2683.33 3877.92,2688.16C3868.76,2689.47 3859.52,2690.26 3850.27,2690.53M2136.27,1604.84C2190.78,1602.97 2256.54,1618.84 2305.04,1632.22C2330.14,1639.14 2362.11,1647.22 2397.14,1656.16C2457.63,1671.55 2526.14,1688.96 2585.78,1706.79C2676.32,1733.85 2731.27,1769.53 2806.78,1830.07C2859.78,1872.54 2895.45,1920.88 2933.18,1972.07C2948.25,1992.52 2963.85,2013.68 2980.68,2034.44C3005.78,2065.44 3032.68,2101.58 3058.68,2136.58C3097.26,2188.46 3137.16,2242.09 3170.79,2278.23C3214.05,2324.78 3400.19,2463.79 3460.36,2497.6C3524.61,2533.71 3622.57,2573.1 3683.36,2587.28C3741.91,2600.88 3825.58,2612.13 3865.41,2606.05C3898.31,2601.05 3939.74,2585.75 3957.41,2557.69C4006.41,2479.92 4094.76,2293.91 4096.13,2250.04C4076.33,2217.99 3963.88,2174.82 3881.13,2143.04C3746.5,2091.33 3619.37,2042.52 3581.08,1966.04C3549.08,1902.17 3569.44,1833.72 3587.39,1773.34C3607.01,1707.42 3617.6,1665.42 3589.77,1633.83C3568.95,1610.23 3510.19,1585.95 3436.4,1570.49C3400.9,1563.06 3356.83,1554.34 3308.4,1544.76C3136.29,1510.76 2922.12,1468.42 2819.91,1430.67C2745.68,1403.24 2678.49,1344.3 2640.21,1273C2602.31,1202.53 2583.03,1075.47 2588.8,1001.08C2593.28,943.08 2600.06,855.52 2699.44,802.58C2772.16,763.82 2891.66,721.3 3018.2,676.28C3073.44,656.61 3130.56,636.28 3182.36,616.66C3267.17,584.52 3383.99,525.49 3477.84,478.06C3620.72,405.83 3659.52,387.53 3685.84,388.06C3725.95,388.8 3765.17,429.94 3859.01,538.67C3896.73,582.37 3939.48,631.89 3961.7,647.97C3975.2,657.73 4020.62,668.52 4047.39,645.17C4065.06,629.78 4069.96,572.41 4058.21,558.84C3972,459.4 3690.27,174.5 3583.81,87.35C3565.89,72.74 3473.66,115.96 3434.24,134.44C3378.37,160.63 3329.95,183.04 3291.41,182.56C3237.52,181.66 3200.41,144.84 3170.62,115.26C3157.5,102.26 3141.14,85.99 3132.5,83.73C3113.22,78.73 3070.01,99.51 3046.74,110.73L3041.19,113.4C2981.15,142.12 2898,181.76 2801,228C2437,401.26 1887,663.19 1629.67,793.58C1560.98,828.36 1448.19,935.58 1365.84,1013.89C1331.72,1046.33 1302.25,1074.34 1278.64,1094.96C1259.13,1111.96 1241.17,1129.16 1223.81,1145.79C1188.39,1179.68 1151.75,1214.79 1103.81,1246.21C1068.73,1269.21 1024.62,1285.74 981.98,1301.7C935.9,1318.95 888.29,1336.77 865.84,1358.7C829.61,1394.14 800.45,1461.86 783.04,1502.35C778.96,1511.77 775.45,1519.95 772.49,1526.29C744.76,1585.74 687.08,1648.6 631.28,1709.4C606.43,1736.47 580.73,1764.4 558.62,1791.16C541.96,1811.29 524.03,1832.64 505.41,1854.78C433.41,1940.45 351.84,2037.55 294.41,2123.01C214.41,2242.06 102.82,2557.13 84.83,2664.36C101.72,2653.56 121.92,2636.54 131.58,2628.41C138.3,2622.77 144.41,2617.64 149.65,2613.54C216.92,2560.97 344.59,2451.85 479.77,2336.34C670.39,2173.44 867.51,2005 959.42,1939.12C990.53,1916.84 1015.3,1919.63 1030.59,1925.92C1068.31,1941.4 1076.05,1986.46 1082.27,2022.67C1083.1,2027.45 1084.1,2033.31 1085.16,2038.73C1124.66,2032.44 1211.56,2008.02 1272.36,1990.93C1329,1975.02 1387.58,1958.56 1433.7,1947.93C1546.7,1922.02 1655.25,1857.75 1751.02,1801.06C1784.02,1781.52 1815.15,1763.06 1844.33,1747.5C1863.44,1737.32 1890.17,1720.97 1918.45,1703.67C1985.05,1662.92 2053.91,1620.79 2098.8,1609.67C2111.09,1606.76 2123.64,1605.15 2136.26,1604.85" style="fill-rule:nonzero;"/>
    </g>
</svg>
