<?xml version="1.0" encoding="UTF-8" standalone="no"?>
<!DOCTYPE svg PUBLIC "-//W3C//DTD SVG 1.1//EN" "http://www.w3.org/Graphics/SVG/1.1/DTD/svg11.dtd">
<svg width="100%" height="100%" viewBox="0 0 4376 2152" version="1.1" xmlns="http://www.w3.org/2000/svg" xmlns:xlink="http://www.w3.org/1999/xlink" xml:space="preserve" xmlns:serif="http://www.serif.com/" style="fill-rule:evenodd;clip-rule:evenodd;stroke-linejoin:round;stroke-miterlimit:2;">
    <g transform="matrix(1,0,0,1,0.0339699,-0.0022226)">
        <path d="M46.16,1750.83C108.59,1677.69 176.74,1690.61 202.29,1695.44C204.59,1695.89 206.56,1696.3 208.15,1696.44C250.55,1698.55 308.52,1706.68 369.93,1715.3C437.53,1724.78 507.45,1734.57 564.48,1737.59C586.48,1738.74 615.48,1709.86 643.48,1681.95C680.63,1644.95 722.75,1602.95 779.7,1592.59C853.1,1579.24 922.21,1614.38 983.21,1645.36C1029.21,1668.73 1072.61,1690.8 1107.38,1687.62C1147.56,1683.96 1177.3,1649.25 1211.76,1609.06C1248.5,1566.22 1290.17,1517.65 1354.15,1500.91C1429.99,1481.1 1517.35,1514.69 1558.01,1558.65C1576.78,1578.92 1600.17,1618.28 1627.27,1663.85C1648.63,1699.8 1684.44,1759.97 1697.57,1769.91C1720.89,1783.91 1767.3,1792.09 1798.26,1787.39C1839.74,1781.09 1891.57,1762.03 1930.26,1738.86C1969.94,1715.09 2026.43,1678.15 2057.6,1632.72C2085.32,1592.4 2133.05,1513.89 2141.33,1440.79C2149.78,1366.53 2142.89,1265.51 2123.79,1183.45C2110.05,1124.39 2079.56,983.05 2092.9,946.01C2103.7,915.91 2201.58,786.65 2202.56,785.34C2312.46,640.4 2328.9,638.54 2355.68,648.08C2367.6,652.31 2428.9,685.69 2507.83,730.32C2519.22,724.42 2530.76,718.65 2542.2,712.93C2566.7,700.64 2592.04,687.93 2614.86,674.56C2650.09,653.87 2696.86,626.18 2750.03,594.76C2928.08,489.42 3171.93,345.17 3301.72,274.4C3409,216 3525.67,161.61 3630.21,121.39C3717.91,87.68 3830.72,60.55 3913.09,40.74L3940,34.26C4091.14,-2.41 4197.24,-9.67 4255.36,12.62C4290.95,26.25 4350.22,63.24 4367.46,109.23C4384.03,153.32 4374.09,223.17 4343.29,279.06C4315.59,329.37 4259.51,417.11 4195.64,439.46C4138.21,459.59 4032.38,425.2 3910.18,381.7C3882.35,371.79 3856.09,362.44 3844.32,359.7C3835.14,357.58 3825.5,355.23 3815.52,352.82C3761.22,339.67 3699.65,324.77 3646.39,326.45C3589.24,328.25 3522.81,343.69 3454.27,371.08C3401.27,392.27 3344.14,425.96 3279.64,474.08C3214.07,523 3166.94,567 3135.45,608.64C3102.77,651.89 3073.57,715.58 3061.05,770.92C3051.55,812.92 3060.44,858.65 3069.05,902.92C3077.66,947.19 3100.92,1017.92 3114.86,1060.23C3117.68,1068.84 3120.15,1076.34 3122.08,1082.34C3124.08,1088.52 3127.79,1097.43 3131.72,1106.87C3151.65,1154.61 3188.78,1243.43 3113.77,1283.43C3084.77,1298.89 3061.65,1295.88 3047.33,1290.63C3009.33,1276.72 2993.21,1235.84 2978.95,1199.76C2974.51,1188.57 2970.33,1177.97 2966.16,1170.05C2963.02,1164.05 2959.68,1157.44 2956.16,1150.51C2937.48,1113.82 2909.29,1058.35 2881.9,1039.51C2813.9,992.64 2641.37,891.72 2506.9,815.21C2481.9,829.76 2460.31,844.99 2445.13,862.3C2444.91,862.53 2444.69,862.79 2444.47,863.05C2417.35,894.82 2385.85,983.87 2369.82,1052.16C2340.7,1176.24 2349.82,1311.9 2356.5,1410.94C2364.04,1522.94 2368.83,1646.41 2347.16,1713.2C2336.66,1745.66 2302.16,1746.84 2279.38,1747.65C2258.01,1748.39 2233.82,1749.24 2222.2,1762.54C2218.27,1767.14 2220.3,1782.41 2222.09,1795.88C2224.17,1811.69 2226.54,1829.59 2223.09,1847.99C2216.09,1886.12 2208.17,1922.99 2189.68,1955.58C2168.18,1993.58 2135.68,2023.58 2112.21,2042.03C2085.41,2063.16 2035.54,2102.46 1983.21,2118.58C1929.73,2135.07 1838.81,2153.64 1758.66,2151.58C1480.13,2144.64 544,2126.43 259.66,2125.84C215.66,2125.77 148.01,2100.84 115.56,2060.84C100.84,2042.67 -27.44,1881.25 5.29,1814.67C18.29,1788.29 32.06,1767.38 46.13,1750.87M2101.13,1697.29C2061.68,1743.51 2007.62,1778.83 1968.13,1802.46C1921.13,1830.61 1860.19,1852.92 1809.13,1860.69C1760.76,1868.02 1697.46,1856.4 1658.62,1833.07C1633.35,1817.87 1606.02,1773.3 1563.55,1701.87C1541.76,1665.21 1517.03,1623.66 1503.55,1609.07C1482.03,1585.82 1423.03,1559.46 1372.61,1572.65C1331.07,1583.51 1300.33,1619.34 1267.79,1657.29C1228.51,1703.1 1183.98,1755.05 1113.86,1761.44C1057.86,1766.56 1002.75,1738.56 949.45,1711.44C896.45,1684.44 841.56,1656.59 792.69,1665.5C758.45,1671.71 726.49,1703.58 695.54,1734.4C656.05,1773.76 615.19,1814.46 560.31,1811.55C500.07,1808.4 428.55,1798.37 359.31,1788.66C299.6,1780.29 243.21,1772.38 203.53,1770.39C198.376,1770.01 193.254,1769.28 188.2,1768.2C161.88,1763.2 117.99,1754.92 73.2,1843.95C74.86,1869.16 124.83,1954.64 173,2014.13C188.07,2032.74 231.91,2051.76 259.86,2051.82C544.66,2052.4 1481.78,2070.61 1760.54,2077.56C1827.2,2079.23 1909.46,2063.82 1961.42,2047.8C2000.5,2035.74 2043.33,2002 2066.34,1983.86C2092.51,1963.25 2112.85,1940.86 2125.17,1919.13C2138,1896.51 2144.08,1867.47 2150.17,1834.64C2151.42,1827.82 2149.94,1816.57 2148.51,1805.72C2145.05,1779.72 2140.36,1744.23 2165.69,1714.56L2166.34,1713.8C2199.13,1676.29 2247.72,1674.58 2276.77,1673.58C2278.09,1673.51 2279.5,1673.47 2280.97,1673.42C2295.14,1603.66 2286.08,1469.29 2282.49,1415.99C2275.49,1312.27 2265.93,1170.2 2297.6,1035.3C2301.41,1019.05 2336.15,875.8 2388.14,814.86C2388.55,814.38 2388.96,813.92 2389.37,813.45C2402.11,798.92 2417.27,785.94 2433.97,774.03C2395.58,752.52 2364.58,735.47 2346.38,725.85C2302.06,771.49 2179.6,938.23 2163.01,970.04C2161.5,990.32 2174.15,1073.49 2195.8,1166.57C2216.98,1257.57 2224.25,1365.82 2214.8,1449.04C2205.19,1533.67 2157.11,1618.43 2118.48,1674.63C2113.06,1682.47 2107.24,1690.02 2101.04,1697.25M2330.04,717.65L2329.94,717.77L2330.04,717.65ZM4221.26,328.06C4240.19,305.87 4260.2,276.55 4278.48,243.43C4302.91,199.07 4304.65,152.74 4298.13,135.43C4292.13,119.48 4257.78,92.94 4228.71,81.79C4208.82,74.17 4142.59,61.29 3957.27,106.27L3930.27,112.76C3849.9,132.1 3739.81,158.57 3656.67,190.54C3555.09,229.62 3441.61,282.54 3337.11,339.54C3208.47,409.67 2965.26,553.54 2787.68,658.61C2734.44,690.09 2687.59,717.83 2652.27,738.53C2630.48,751.33 2607.5,763.08 2584.97,774.39C2716.6,850 2866.37,938.81 2923.97,978.52C2966.76,1008.04 2997.45,1068.38 3022.11,1116.86C3025.49,1123.51 3028.69,1129.86 3031.72,1135.61C3037.72,1147 3042.8,1159.95 3047.77,1172.45C3053.77,1187.75 3064.98,1216 3072.77,1221.03C3073.01,1220.74 3075.2,1220.2 3078.99,1218.17C3094.15,1209.93 3073.46,1159.71 3063.39,1135.59C3058.82,1124.67 3054.52,1114.36 3051.57,1105.19C3049.67,1099.31 3047.25,1091.96 3044.5,1083.57C3030.02,1039.57 3005.8,965.94 2996.34,917.25C2986.76,867.93 2975.89,812.04 2988.82,754.82C3000.5,703.25 3029.65,626.1 3076.4,564.19C3112.68,516.12 3163.21,468.72 3235.4,414.87C3305.13,362.87 3367.77,326.05 3426.86,302.44C3504.41,271.44 3577.5,254.67 3644.14,252.54C3707.42,250.54 3777.04,267.41 3832.99,280.95C3842.74,283.31 3852.14,285.59 3861.12,287.67C3877.01,291.36 3902.6,300.48 3935.04,312.03C3994.52,333.2 4133.8,382.8 4171.24,369.69C4185.06,364.84 4202.61,349.95 4221.24,328.16" style="fill-rule:nonzero;"/>
    </g>
</svg>
