<?xml version="1.0" encoding="UTF-8" standalone="no"?>
<!DOCTYPE svg PUBLIC "-//W3C//DTD SVG 1.1//EN" "http://www.w3.org/Graphics/SVG/1.1/DTD/svg11.dtd">
<svg width="100%" height="100%" viewBox="0 0 3978 2429" version="1.1" xmlns="http://www.w3.org/2000/svg" xmlns:xlink="http://www.w3.org/1999/xlink" xml:space="preserve" xmlns:serif="http://www.serif.com/" style="fill-rule:evenodd;clip-rule:evenodd;stroke-linejoin:round;stroke-miterlimit:2;">
    <g transform="matrix(1,0,0,1,-0.0143073,0.00217786)">
        <path d="M3956.35,759.19L3977.23,2128.83C3977.27,2131.43 3977.03,2134.03 3976.52,2136.58L3963.29,2202.83C3962.25,2208.05 3960.08,2212.98 3956.94,2217.28L3928.15,2256.74C3927.45,2257.74 3926.7,2258.63 3925.91,2259.52L3790,2412.16C3782.94,2420.09 3772.77,2424.58 3762.15,2424.45L3678.22,2423.45L3206.96,2428.79L3205.46,2428.79L2635.21,2411.91L1697.64,2408.2C1696.35,2408.2 1695.06,2408.12 1693.77,2407.98L1524,2389.28C1523.2,2389.2 1522.39,2389.08 1521.59,2388.94L1251.11,2340.87C1249.72,2340.61 1248.35,2340.28 1247,2339.87L944.78,2249.36C944.31,2249.22 943.85,2249.07 943.38,2248.91L804.17,2201.07C802.453,2200.48 800.782,2199.76 799.17,2198.92L19.78,1793.44C4.809,1785.65 -2.958,1768.5 1.07,1752.11L40.22,1592.75L40.43,1591.91L66.88,1494.22C67.2,1493.04 67.58,1491.88 68.01,1490.74L94.32,1421.74C96.051,1417.2 98.669,1413.04 102.02,1409.52L166,1342.19C167.709,1340.4 169.592,1338.78 171.62,1337.36L234.75,1293.36C236.575,1292.09 238.513,1290.99 240.54,1290.07L531.78,1157.51L586.62,1121.77L621.32,1079.04L643.32,1043.74L672.7,980.2L684.76,934.38L686.27,803.05L694.63,104C694.855,84.524 710.536,68.44 730,67.72L749.89,67C751.224,66.95 752.559,66.973 753.89,67.07L774.8,68.62C777.364,68.816 779.901,69.279 782.37,70L918.47,109.5L946.65,107.97L948.07,106.66L948.38,47.29C948.412,40.155 950.526,33.182 954.46,27.23L958.25,21.5C961.119,17.177 964.868,13.507 969.25,10.73L974.57,7.36C978.427,4.927 982.703,3.231 987.18,2.36L995.47,0.68C998.499,0.089 1001.59,-0.119 1004.67,0.06L1057.82,3.17C1059.09,3.245 1060.36,3.385 1061.61,3.59L1119.05,12.99C1121.44,13.383 1123.78,14.009 1126.05,14.86L1194.89,40.78C1197.52,41.769 1200.02,43.058 1202.35,44.62L1254.64,79.56C1256.04,80.494 1257.38,81.519 1258.64,82.63L1327.26,143.56C1329.32,145.388 1331.16,147.44 1332.76,149.68L1365.33,195.29C1366.82,197.375 1368.09,199.61 1369.11,201.96L1445.17,376.54C1447.19,381.164 1448.23,386.155 1448.23,391.2L1448.3,746.62L3421,699.74L3432.87,686.58L3442.51,672.67L3444.68,652.21L3440.62,620.4L3422.86,587.6L3403.21,567.08L3295.71,454.21C3294.34,452.769 3293.08,451.217 3291.96,449.57L3196.59,309.72C3195.68,308.386 3194.86,306.993 3194.13,305.55L3176.24,270.05C3174.24,266.081 3172.98,261.781 3172.52,257.36L3165.45,190.05C3164.87,184.463 3165.58,178.817 3167.5,173.54L3184.07,128.54C3185.66,124.197 3188.06,120.195 3191.15,116.75L3212.24,93.14C3214.96,90.093 3218.17,87.521 3221.73,85.53L3246,72C3251.29,69.054 3257.23,67.46 3263.29,67.36L3300.29,66.75C3305.18,66.67 3310.03,67.568 3314.56,69.39L3356,86C3359.72,87.486 3363.16,89.574 3366.2,92.18L3857.61,512.54C3860.16,514.716 3862.39,517.233 3864.25,520.02L3902.18,576.67C3904.24,579.748 3905.83,583.119 3906.88,586.67L3954.88,749.37C3955.82,752.561 3956.31,755.865 3956.35,759.19ZM3903.74,2126.08L3883,765.37L3838,612.86L3806,565.05L3323,151.9L3294,140.28L3273.65,140.62L3262.85,146.62L3250.53,160.42L3239.33,190.86L3244.8,242.99L3258.58,270.33L3351,405.72L3479.4,540.37C3481.67,542.737 3483.61,545.398 3485.17,548.28L3508.56,591.46C3510.72,595.446 3512.12,599.796 3512.69,604.29L3518.17,647.16C3518.52,649.991 3518.55,652.852 3518.26,655.69L3514.64,689.76C3513.98,695.868 3511.8,701.714 3508.3,706.76L3491.98,730.3C3491.07,731.599 3490.08,732.835 3489,734L3465,760.65C3458.24,768.145 3448.69,772.532 3438.6,772.77L1412.45,820.93C1412.16,820.937 1411.86,820.941 1411.57,820.941C1391.43,820.941 1374.86,804.369 1374.86,784.231C1374.86,784.23 1374.86,784.23 1374.86,784.23L1374.78,398.86L1303.32,234.86L1275.39,195.76L1211.75,139.25L1165.07,108L1103.59,84.85L1051.59,76.34L1021.59,74.59L1021.37,116.54C1021.34,121.835 1020.17,127.061 1017.93,131.86L1012.83,143C1010.83,147.288 1008.02,151.152 1004.56,154.38L986.92,170.78C980.634,176.626 972.492,180.085 963.92,180.55L916.23,183.12C912.107,183.347 907.975,182.873 904.01,181.72L767.62,142.16L759.62,803.91L758.07,939.76C758.038,942.775 757.632,945.775 756.86,948.69L742.86,1002.03C742.31,1004.11 741.581,1006.14 740.68,1008.09L709,1076.63C708.358,1078.01 707.633,1079.34 706.83,1080.63L682.42,1119.81C681.61,1121.11 680.722,1122.35 679.76,1123.54L639.99,1172.54C637.583,1175.5 634.729,1178.08 631.53,1180.16L569.53,1220.56C567.985,1221.57 566.367,1222.45 564.69,1223.22L274,1355.53L216.68,1395.53L160.38,1454.77L137.38,1515.23L111.53,1610.73L79.27,1741.61L830.6,2132.52L966.54,2179.24L1266,2268.93L1533.23,2316.42L1699.84,2334.77L2635.95,2338.47L2636.89,2338.47L3206.84,2355.34L3677.84,2350L3678.69,2350L3746.31,2350.8L3869.92,2212.04L3892.92,2180.55L3903.74,2126.08Z" style="fill-rule:nonzero;"/>
    </g>
</svg>
