<?xml version="1.0" encoding="UTF-8" standalone="no"?>
<!DOCTYPE svg PUBLIC "-//W3C//DTD SVG 1.1//EN" "http://www.w3.org/Graphics/SVG/1.1/DTD/svg11.dtd">
<svg width="100%" height="100%" viewBox="0 0 3957 2427" version="1.1" xmlns="http://www.w3.org/2000/svg" xmlns:xlink="http://www.w3.org/1999/xlink" xml:space="preserve" xmlns:serif="http://www.serif.com/" style="fill-rule:evenodd;clip-rule:evenodd;stroke-linejoin:round;stroke-miterlimit:2;">
    <g transform="matrix(1,0,0,1,-139.575,-0.00134033)">
        <path d="M2170.47,265C2217.68,278.47 2262.84,302.65 2297.94,324.94C2407.01,394.2 2620.94,556.69 2765.47,688.21C2882.67,794.79 3022.62,973.07 3181.47,1218.07C3207.39,1258.07 3179.75,1291.78 3163.23,1311.94C3145.44,1333.63 3138.02,1344.94 3141.64,1361.69C3158.05,1438.03 3216.31,1524.9 3233.79,1549.69C3298.37,1641.42 3386.3,1754.52 3468.98,1852.25C3544.41,1941.38 3602.98,1994.86 3705.79,2081.03C3745.4,2114.23 3878.58,2178.03 3950.11,2212.24C3977.24,2225.24 3996.83,2234.61 4006.11,2239.68C4007.75,2240.59 4010.02,2241.68 4012.71,2242.95C4034.96,2253.63 4081.25,2275.86 4093.4,2318.5C4097.85,2334.17 4099.32,2358.85 4080.96,2387.62C4036.02,2458.01 3959.13,2415.62 3930.24,2399.67C3925.09,2396.85 3920.51,2394.27 3916.64,2392.49C3893.57,2381.95 3865.25,2360.7 3835.25,2338.21C3809.42,2318.83 3777.25,2294.72 3762.67,2289.83C3715.06,2273.83 3660.67,2257.83 3608.09,2242.28C3564.79,2229.5 3523.86,2217.43 3490,2206.34C3405.46,2178.69 3296.94,2138.72 3209.73,2106.6L3164.78,2090.06C3103.43,2067.56 2992.28,2025.46 2937.2,1996.39C2729.92,1887.02 2269.02,1639.39 2009.78,1499.7C1888.07,1434.1 1729.96,1345.58 1635.49,1292.7L1612.49,1279.85C1576.65,1259.8 1590.58,1218.94 1597.29,1199.31C1598.29,1196.44 1599.59,1192.57 1600.67,1189.03C1535.44,1152.03 1410.01,1086.41 1277.67,1017.2C1098.85,923.73 896.15,817.73 776.65,748.4C644.58,671.73 549.52,589.87 448.59,465.86L439.52,454.6C417.12,426.6 389.24,391.81 362.6,384.2C357.49,384.49 339.48,395.99 328.71,402.85C291.43,426.67 222.02,470.93 162.51,393.71C143.73,369.34 136.27,342.01 140.92,314.71C151.34,253.54 217.43,210.59 256.92,184.92C260.66,182.48 264.06,180.27 267,178.29C337.1,131.19 393.61,95.65 482.3,66.74C586.47,32.79 807.76,-9.4 900,1.86C942.66,7 959.87,43.19 972.49,69.62C978.8,82.81 986.67,99.24 993.43,101.17C1033.82,112.67 1092.83,113.11 1161.16,113.63C1197.23,113.89 1234.54,114.18 1273.37,116.11C1283.05,116.6 1300.26,111.32 1318.48,105.74C1364.16,91.74 1433.18,70.61 1523.83,93.5C1586.19,109.31 1644.91,156.02 1701.83,201.27C1716.56,213 1731.02,224.52 1745.09,235.07C1769.82,253.57 1794.26,277.55 1817.9,300.74C1854.9,337.01 1896.63,378.13 1926.9,382.25C1937.04,383.64 1939.76,384.01 1957.33,350.87C1975.53,316.56 2003.02,264.71 2078.82,255.67C2108.82,252.08 2140.13,256.34 2170.56,265.03M3121.87,1252.75C2967,1014.14 2831.54,841.38 2719.19,739.21C2577.25,610.1 2367.73,450.87 2261.1,383.21C2193.82,340.49 2130.37,318.96 2086.98,324.14C2048.98,328.69 2036.06,349.55 2018.22,383.22C2002.22,413.34 1978.09,458.86 1917.54,450.57C1864.93,443.36 1816.48,395.89 1769.69,349.99C1747.69,328.37 1724.87,305.99 1703.83,290.26C1689.24,279.35 1674.24,267.41 1658.96,255.26C1607.81,214.55 1554.46,172.17 1507.06,160.38C1435.06,142.21 1381.66,158.55 1338.76,171.7C1313.55,179.41 1291.76,186.08 1270.04,185C1232.65,183.15 1196.04,182.88 1160.72,182.61C1087.37,182.05 1024.03,181.56 974.66,167.51L974.58,167.51C937.9,157 922,123.68 910.34,99.36C905.22,88.71 896.8,70.87 891.7,70.26C817.57,61.21 610.26,97.52 503.7,132.26C423.27,158.47 372.97,190.14 305.46,235.48C302.25,237.61 298.57,240.02 294.51,242.66C268.46,259.59 214.25,294.83 208.91,326.25C207.91,331.86 208.01,339.81 217.14,351.63C235.19,375.09 245.62,374.16 291.67,344.77C318.31,327.77 348.49,308.5 381.56,317.94C429.34,331.58 464.85,375.94 493.37,411.54L502,422.35C598.58,541 685.28,615.68 811.26,688.79C929.43,757.37 1131.41,863 1309.63,956.18C1456.96,1033.18 1584.19,1099.75 1646.63,1135.98C1684.29,1157.81 1669.57,1200.91 1662.52,1221.62C1661.89,1223.45 1661.15,1225.62 1660.44,1227.75L1669.1,1232.6C1763.39,1285.39 1921.2,1373.74 2042.43,1439.08C2301.56,1578.76 2762.23,1826.23 2969.3,1935.48C3022.75,1963.7 3140.38,2007.76 3188.46,2025.4L3233.46,2041.96C3320.13,2073.89 3428,2113.62 3511.33,2140.89C3544.23,2151.66 3584.69,2163.58 3627.52,2176.23C3680.71,2191.91 3735.68,2208.16 3784.52,2224.52C3809.68,2232.96 3842.15,2257.33 3876.52,2283.12C3901.06,2301.53 3928.9,2322.41 3945.2,2329.86C3950.4,2332.24 3956.58,2335.59 3963.42,2339.36C4009.34,2364.69 4016.48,2360.49 4022.78,2350.58C4025.3,2346.63 4028.08,2341.14 4027.02,2337.43C4023.36,2324.6 3992.82,2309.93 3982.8,2305.11C3978.73,2303.11 3975.33,2301.5 3972.91,2300.11C3965.28,2295.94 3944.43,2285.96 3920.27,2274.39C3812.71,2222.91 3704.14,2169.63 3661.43,2133.83C3557.65,2046.83 3494.49,1989.18 3416.28,1896.74C3332.36,1797.55 3243.05,1682.64 3177.34,1589.36C3152.53,1554.11 3092.81,1462.79 3074.17,1376.17C3063.17,1325.17 3091.25,1290.89 3109.83,1268.23C3113.68,1263.54 3119.09,1256.94 3121.71,1252.7M1646.11,1219.7L1645.98,1219.7L1646.11,1219.7Z" style="fill-rule:nonzero;"/>
    </g>
</svg>
