<?xml version="1.0" encoding="UTF-8" standalone="no"?>
<!DOCTYPE svg PUBLIC "-//W3C//DTD SVG 1.1//EN" "http://www.w3.org/Graphics/SVG/1.1/DTD/svg11.dtd">
<svg width="100%" height="100%" viewBox="0 0 3389 2878" version="1.1" xmlns="http://www.w3.org/2000/svg" xmlns:xlink="http://www.w3.org/1999/xlink" xml:space="preserve" xmlns:serif="http://www.serif.com/" style="fill-rule:evenodd;clip-rule:evenodd;stroke-linejoin:round;stroke-miterlimit:2;">
    <g transform="matrix(1,0,0,1,-0.0119682,-0.0217294)">
        <path d="M589.43,2877.26C299.98,2877.26 215.52,2816.63 94.97,2681.26C30.07,2608.39 -61.03,2443.14 57.66,2155.26C124.52,1993.15 187.84,1839.94 249.2,1691.5C453.53,1197.13 629.98,770.17 844.2,239.5L908,90C941.09,9.15 1065.58,-15 1130.36,8.69C1203.78,35.69 1257.75,135.84 1239.36,210.96C1230.17,248.39 1187.42,348.96 1132.52,476.58C1117.17,512.26 1103.39,544.28 1093.95,566.99C1034.49,710.16 1034.37,810.68 1034.28,891.44C1034.19,969.1 1034.11,1036.14 982.39,1104.44C954.39,1141.44 880.09,1166.67 760.96,1203.93C721.07,1216.4 735.86,1207.55 700.96,1220.56C665.24,1233.85 623.41,1281.66 641.21,1333.34C661.3,1391.73 713.76,1407.86 797.14,1381.41C869.02,1358.66 874.43,1359.75 928.67,1341.53C1073.84,1292.76 1169.75,1260.53 1270.6,1254.61C1414.98,1246.24 1509.68,1270.1 1629.5,1300.36C1677.17,1312.36 1726.5,1324.87 1785.04,1336.91C1904.15,1361.48 2043.49,1333.91 2139.98,1266.6C2153.46,1257.21 2299.03,1163.95 2340.82,1144.31C2439.03,1098.31 2524.29,1077.14 2600.6,1079.6C2734.23,1083.97 2856.1,1088.13 2994.85,1094.99C3135.57,1101.99 3245.85,1157.41 3313.77,1255.2C3348.77,1305.51 3453.25,1484.64 3329.9,1676.98C3292.46,1735.39 3260.9,1778.44 3230.37,1820.08C3160.43,1915.47 3094.37,2005.57 2966.43,2268.55C2899.86,2405.38 2701.76,2374.23 2558.5,2338.9C2412.98,2302.97 2194.89,2169.15 2195.21,2048.53C2192.59,2014.96 2215.56,1928.73 2377.79,1869.64C2402.79,1860.53 2433.56,1855.86 2472.48,1849.94C2539.48,1839.77 2631.27,1825.85 2746.59,1779.45C2837.59,1742.91 2875.07,1689.9 2861.26,1617.45C2847.07,1543.06 2796,1513.61 2658.86,1500.68C2472.31,1483.07 2404.4,1482.3 2231.55,1495.87C1717.67,1536.12 1385.3,1692.32 1114.09,1835.58C1045.17,1872.16 1011.28,1811.47 991.09,1775.23C988.53,1770.67 985.94,1766 983.21,1761.29C946.94,1698.57 915.58,1694.29 870.32,1708.44C836.45,1719.02 801.73,1739.05 818.57,1843.25C862.91,2117.25 895.9,2287.11 937.67,2502.17L943.67,2533.17C965.09,2643.35 951.76,2730 904.06,2790.74C851.4,2857.74 774.78,2871.23 733.79,2873.28C680.59,2875.93 632.7,2877.28 589.46,2877.28M1075.94,65C1034.81,65 981.34,82.62 968.38,114.63C968.314,114.821 968.238,115.008 968.15,115.19L904.43,264.37C690.43,794.67 513.87,1221.73 309.49,1716.24C248.13,1864.67 184.82,2017.84 118,2180C12.75,2435.22 89,2576.56 143.74,2638.1C261.74,2770.61 330.74,2828.42 730.53,2808.35C760.41,2806.84 816.03,2797.35 852.71,2750.66C888.26,2705.43 897.33,2636.42 879.71,2545.57L873.71,2514.57C831.84,2298.96 798.71,2128.65 754.27,1853.57C747.53,1811.89 727.04,1685.09 850.87,1646.37C932.44,1620.85 992.49,1647.06 1039.76,1728.81C1042.67,1733.81 1045.44,1738.81 1048.14,1743.61C1055.57,1756.98 1068.04,1779.32 1074.14,1781.52C1074.14,1781.52 1076.87,1781.65 1083.54,1778.11C1360.54,1631.79 1700.15,1472.24 2226.44,1431.02C2402.05,1417.24 2475.84,1418.02 2665.01,1435.9C2777.34,1446.5 2899.36,1469.2 2925.32,1605.3C2936.73,1665.11 2931.85,1775.13 2770.98,1839.77C2648.6,1888.98 2552.48,1903.57 2482.29,1914.23C2446.96,1919.6 2419.07,1923.84 2400.16,1930.72C2271.52,1977.57 2260.79,2034.98 2259.97,2042.07C2260.31,2044.05 2260.46,2046.06 2260.41,2048.07C2259.06,2116.54 2429.13,2239.95 2574.16,2275.76C2856.53,2345.43 2895.11,2266.19 2907.78,2240.15C3038.28,1971.91 3106.01,1879.52 3177.73,1781.69C3207.67,1740.86 3238.63,1698.63 3274.97,1641.95C3376.61,1483.44 3289.34,1334.19 3260.17,1292.21C3203.35,1210.53 3113,1166 2991.55,1160C2853.33,1153.16 2731.74,1149 2598.44,1144.67C2532.2,1142.38 2457.15,1161.67 2368.54,1203.23C2331.54,1220.61 2189.63,1311.38 2177.28,1319.97C2065.11,1398.16 1909.7,1429.07 1771.81,1400.65C1711.81,1388.32 1659.55,1375.11 1613.44,1363.47C1499.08,1334.57 1408.79,1311.71 1274.36,1319.6C1182.24,1325 1094.62,1354.45 949.44,1403.23C894.95,1421.53 889.24,1420.53 816.83,1443.43C786.26,1453.16 740.48,1463.25 696.36,1455.96C639.51,1446.61 599.1,1411.53 579.49,1354.53C550.59,1270.69 607.16,1186.09 678.12,1159.7C714.66,1146.11 700.71,1154.7 741.42,1141.95C813.8,1119.32 912.92,1088.32 930.32,1065.34C968.9,1014.34 968.96,965.44 969.05,891.42C969.15,804.89 969.28,697.21 1033.68,542.15C1043.2,519.25 1057.09,486.96 1072.58,450.97C1112.58,357.97 1167.35,230.69 1175.99,195.53C1186.36,153.21 1149.43,85.03 1107.86,69.75C1099.22,66.59 1088.13,65.04 1075.94,65.04M2258.73,2037.17L2258.73,2037.25C2258.73,2037.33 2258.73,2037.19 2258.73,2037.17" style="fill-rule:nonzero;"/>
    </g>
</svg>
