<?xml version="1.0" encoding="UTF-8" standalone="no"?>
<!DOCTYPE svg PUBLIC "-//W3C//DTD SVG 1.1//EN" "http://www.w3.org/Graphics/SVG/1.1/DTD/svg11.dtd">
<svg width="100%" height="100%" viewBox="0 0 1807 450" version="1.1" xmlns="http://www.w3.org/2000/svg" xmlns:xlink="http://www.w3.org/1999/xlink" xml:space="preserve" xmlns:serif="http://www.serif.com/" style="fill-rule:evenodd;clip-rule:evenodd;stroke-linejoin:round;stroke-miterlimit:2;">
    <g transform="matrix(1,0,0,1,-350.037,-664.338)">
        <g>
            <path d="M350.037,1114.34L350.037,664.338L704.637,664.338L704.637,763.338L470.037,763.338L470.037,846.138L704.637,846.138L704.637,945.138L470.037,945.138L470.037,1114.34L350.037,1114.34Z" style="fill:white;fill-rule:nonzero;"/>
            <path d="M1104.84,919.338L1104.84,1114.34L858.237,1114.34C822.237,1114.34 794.637,1106.54 775.437,1090.94C756.237,1075.34 746.637,1054.94 746.637,1029.74C746.637,1002.14 756.037,980.038 774.837,963.438C793.637,946.838 816.237,929.538 842.637,911.538L944.637,841.338L755.037,841.338L755.037,754.338L912.837,754.338C981.637,754.338 1030.84,768.838 1060.44,797.838C1090.04,826.838 1104.84,867.338 1104.84,919.338ZM890.637,1027.34L996.837,1027.34L996.837,907.938L888.237,992.538C881.437,997.738 876.637,1001.64 873.837,1004.24C871.037,1006.84 869.637,1010.14 869.637,1014.14C869.637,1018.54 871.237,1021.84 874.437,1024.04C877.637,1026.24 883.037,1027.34 890.637,1027.34Z" style="fill:white;fill-rule:nonzero;"/>
            <path d="M1347.24,841.338C1323.64,841.338 1306.34,846.638 1295.34,857.238C1284.34,867.838 1278.84,883.938 1278.84,905.538L1278.84,967.338C1278.84,991.338 1284.34,1007.34 1295.34,1015.34C1306.34,1023.34 1323.64,1027.34 1347.24,1027.34L1464.24,1027.34L1464.24,1114.34L1343.64,1114.34C1279.24,1114.34 1232.84,1100.34 1204.44,1072.34C1176.04,1044.34 1161.84,1005.74 1161.84,956.538L1161.84,912.738C1161.84,863.538 1176.04,824.838 1204.44,796.638C1232.84,768.438 1279.24,754.338 1343.64,754.338L1602.24,754.338L1602.24,841.338L1347.24,841.338Z" style="fill:white;fill-rule:nonzero;"/>
            <path d="M1488.24,841.338L1488.24,754.338L1546.44,754.338L1546.44,681.138L1651.44,681.138L1651.44,754.338L1774.44,754.338L1774.44,841.338L1651.44,841.338L1651.44,987.138C1651.44,1002.34 1654.64,1012.84 1661.04,1018.64C1667.44,1024.44 1677.84,1027.34 1692.24,1027.34L1774.44,1027.34L1774.44,1114.34L1679.04,1114.34C1629.44,1114.34 1593.94,1103.84 1572.54,1082.84C1551.14,1061.84 1540.44,1029.94 1540.44,987.138L1540.44,841.338L1488.24,841.338Z" style="fill:white;fill-rule:nonzero;"/>
            <path d="M1825.44,1114.34L1825.44,1022.54L1938.84,1022.54L1938.84,781.338C1938.84,774.938 1937.34,770.038 1934.34,766.638C1931.34,763.238 1926.84,761.538 1920.84,761.538L1831.44,761.538L1831.44,664.338L1946.64,664.338C1980.64,664.338 2007.84,674.638 2028.24,695.238C2048.64,715.838 2058.84,741.938 2058.84,773.538L2058.84,1022.54L2156.64,1022.54L2156.64,1114.34L1825.44,1114.34Z" style="fill:white;fill-rule:nonzero;"/>
        </g>
    </g>
</svg>
